<svg width="262" height="418" viewBox="0 0 262 418" fill="none" xmlns="http://www.w3.org/2000/svg">
<path fill-rule="evenodd" clip-rule="evenodd" d="M152.5 1.03903C139.48 0.878332 126.48 1.21173 113.5 2.03903C120.766 0.491632 128.27 -0.175068 136 0.0390319C141.68 0.0396319 147.18 0.372932 152.5 1.03903Z" fill="#4B4F55"/>
<path fill-rule="evenodd" clip-rule="evenodd" d="M201.5 18.039C199.08 18.2466 196.75 17.9132 194.5 17.039C193.61 17.864 193.28 18.864 193.5 20.039C193.17 20.039 192.83 20.039 192.5 20.039C192.58 18.6085 192.25 17.2752 191.5 16.039C188.61 14.7423 185.77 14.409 183 15.039C179.64 13.1995 176.14 11.8662 172.5 11.039C172.79 12.827 172.45 14.4937 171.5 16.039C170.71 15.2969 170.05 14.4636 169.5 13.539C170.45 12.8215 170.62 11.9881 170 11.039C167.54 11.7571 165.04 12.4237 162.5 13.039C157.41 11.9234 152.24 11.2568 147 11.039C136.71 11.3238 126.54 12.3238 116.5 14.039C114.488 13.6994 112.488 13.3661 110.5 13.039C110.5 14.039 110.5 15.039 110.5 16.039C108.266 16.1589 106.099 15.8255 104 15.039C99.57 17.111 95.07 19.111 90.5 21.039C89.808 21.5643 89.308 22.2309 89 23.039C88.439 22.5171 87.772 22.1838 87 22.039C85.433 23.3951 83.6 24.0618 81.5 24.039C81.5 25.039 81.5 26.039 81.5 27.039C76.763 28.4133 72.429 30.7466 68.5 34.039C69.025 34.7314 69.692 35.2314 70.5 35.539C70.167 35.8723 69.833 36.2057 69.5 36.539C66.354 37.8774 63.354 39.3774 60.5 41.039C60.5 42.039 60.5 43.039 60.5 44.039C58.61 43.8355 57.11 44.5022 56 46.039C57.361 48.0987 57.861 50.432 57.5 53.039C56.579 55.295 54.912 56.295 52.5 56.039C52.515 60.6892 50.515 64.0225 46.5 66.039C47.09 67.3379 48.09 68.1712 49.5 68.539C47.956 68.8286 46.623 69.4953 45.5 70.539C45.833 70.8723 46.167 71.2057 46.5 71.539C45.692 71.8466 45.025 72.3466 44.5 73.039C47.191 75.5372 46.858 77.7039 43.5 79.539C44.308 79.8466 44.975 80.3466 45.5 81.039C44.674 81.99 44.508 82.99 45 84.039C46.509 84.629 48.009 85.295 49.5 86.039C47.618 85.694 45.618 86.194 43.5 87.539C43.975 91.981 44.975 96.314 46.5 100.539C44.016 102.145 44.016 103.645 46.5 105.039C45.465 106.667 45.465 108.334 46.5 110.039C43.109 105.611 39.942 100.945 37 96.039C36.833 94.706 36.667 93.372 36.5 92.039C37.52 88.135 37.52 84.3013 36.5 80.539C38.739 73.8199 40.573 66.9865 42 60.039C44.523 54.3318 47.023 48.6651 49.5 43.039C54.197 37.3476 58.863 31.681 63.5 26.039C66.524 24.5256 69.191 22.5256 71.5 20.039C76.065 18.1782 80.398 16.0115 84.5 13.539C91.349 10.7436 98.349 8.41033 105.5 6.53903C133.63 1.99493 161.3 3.66153 188.5 11.539C192.66 14.2842 196.99 16.4509 201.5 18.039Z" fill="#2E2D2D"/>
<path fill-rule="evenodd" clip-rule="evenodd" d="M192.5 20.039C180.72 15.9336 169.06 16.1003 157.5 20.539C148.04 26.1574 145.2 34.3241 149 45.039C152.55 53.0089 158.05 59.1756 165.5 63.539C173.75 65.822 182.08 67.6553 190.5 69.039C197.07 68.4765 203.41 67.1432 209.5 65.039C209.35 63.987 209.52 62.987 210 62.039C212.22 60.6148 213.72 58.6148 214.5 56.039C215.66 51.072 215.83 46.072 215 41.039C209.29 32.4971 202.13 25.4971 193.5 20.039C193.28 18.864 193.61 17.864 194.5 17.039C196.75 17.9132 199.08 18.2466 201.5 18.039C204.1 19.296 206.76 20.4626 209.5 21.539C209.17 21.8723 208.83 22.2057 208.5 22.539C211.81 25.1753 215.14 27.842 218.5 30.539C219.58 31.0086 220.58 30.8419 221.5 30.039C223.17 31.039 224.5 32.3723 225.5 34.039C224.23 33.452 223.23 33.452 222.5 34.039C223.95 37.2757 225.12 40.609 226 44.039C228.72 46.9448 230.89 50.2782 232.5 54.039C235.23 63.9088 238.4 73.5755 242 83.039C242.78 89.91 242.61 96.744 241.5 103.539C238.73 105.905 236.06 108.405 233.5 111.039C213.86 123.193 193.19 133.193 171.5 141.039C173.83 141.372 176.17 141.706 178.5 142.039C188.16 141.418 197.83 140.918 207.5 140.539C217.34 140.329 227 138.995 236.5 136.539C244.41 133.846 249.57 136.346 252 144.039C256.7 161.744 258.37 179.744 257 198.039C256.63 198.955 256.13 199.789 255.5 200.539C241.81 201.95 229.14 198.95 217.5 191.539C214.98 187.515 211.64 184.348 207.5 182.039C204.08 178.208 201.41 173.874 199.5 169.039C194.77 166.481 191.77 162.648 190.5 157.539C182.49 158.151 174.49 157.984 166.5 157.039C161.5 157.039 156.5 157.039 151.5 157.039C150.85 156.448 150.18 155.782 149.5 155.039C144.39 157.19 139.05 158.857 133.5 160.039C132.01 159.83 130.84 159.163 130 158.039C124.75 159.346 119.246 160.013 113.5 160.039C108.167 159.706 102.833 159.372 97.5 159.039C94.769 157.074 91.935 156.74 89 158.039C85.085 156.962 81.252 155.628 77.5 154.039C72.479 154.117 67.479 154.117 62.5 154.039C61.833 153.706 61.167 153.372 60.5 153.039C59.516 150.111 59.183 147.111 59.5 144.039C61.467 144.278 63.301 143.945 65 143.039C65.483 143.987 65.649 144.987 65.5 146.039C68.247 146.352 70.914 146.019 73.5 145.039C75.444 143.738 77.444 142.738 79.5 142.039C68.589 133.307 58.089 123.974 48 114.039C47.209 112.794 46.709 111.461 46.5 110.039C45.465 108.334 45.465 106.667 46.5 105.039C44.016 103.645 44.016 102.145 46.5 100.539C44.975 96.314 43.975 91.981 43.5 87.539C45.618 86.194 47.618 85.694 49.5 86.039C48.009 85.295 46.509 84.629 45 84.039C44.508 82.99 44.674 81.99 45.5 81.039C44.975 80.3466 44.308 79.8466 43.5 79.539C46.858 77.7039 47.191 75.5372 44.5 73.039C45.025 72.3466 45.692 71.8466 46.5 71.539C46.167 71.2057 45.833 70.8723 45.5 70.539C46.623 69.4953 47.956 68.8286 49.5 68.539C48.09 68.1712 47.09 67.3379 46.5 66.039C50.515 64.0225 52.515 60.6892 52.5 56.039C54.912 56.295 56.579 55.295 57.5 53.039C57.861 50.432 57.361 48.0987 56 46.039C57.11 44.5022 58.61 43.8355 60.5 44.039C60.5 43.039 60.5 42.039 60.5 41.039C63.354 39.3774 66.354 37.8774 69.5 36.539C69.833 36.2057 70.167 35.8723 70.5 35.539C69.692 35.2314 69.025 34.7314 68.5 34.039C72.429 30.7466 76.763 28.4133 81.5 27.039C81.5 26.039 81.5 25.039 81.5 24.039C83.6 24.0618 85.433 23.3951 87 22.039C87.772 22.1838 88.439 22.5171 89 23.039C89.308 22.2309 89.808 21.5643 90.5 21.039C95.07 19.111 99.57 17.111 104 15.039C106.099 15.8255 108.266 16.1589 110.5 16.039C110.5 15.039 110.5 14.039 110.5 13.039C112.488 13.3661 114.488 13.6994 116.5 14.039C126.54 12.3238 136.71 11.3238 147 11.039C152.24 11.2568 157.41 11.9234 162.5 13.039C165.04 12.4237 167.54 11.7571 170 11.039C170.62 11.9881 170.45 12.8215 169.5 13.539C170.05 14.4636 170.71 15.2969 171.5 16.039C172.45 14.4937 172.79 12.827 172.5 11.039C176.14 11.8662 179.64 13.1995 183 15.039C185.77 14.409 188.61 14.7423 191.5 16.039C192.25 17.2752 192.58 18.6085 192.5 20.039Z" fill="#343433"/>
<path fill-rule="evenodd" clip-rule="evenodd" d="M192.5 20.039C192.83 20.039 193.17 20.039 193.5 20.039C202.13 25.4971 209.29 32.4971 215 41.039C215.83 46.072 215.66 51.072 214.5 56.039C213.72 58.6148 212.22 60.6148 210 62.039C209.52 62.987 209.35 63.987 209.5 65.039C203.41 67.1432 197.07 68.4765 190.5 69.039C182.08 67.6553 173.75 65.822 165.5 63.539C158.05 59.1756 152.55 53.0089 149 45.039C145.2 34.3241 148.04 26.1574 157.5 20.539C169.06 16.1003 180.72 15.9336 192.5 20.039Z" fill="#4C4C4C"/>
<path fill-rule="evenodd" clip-rule="evenodd" d="M215.5 67.039C229.33 67.3662 236.33 74.5328 236.5 88.539C236.33 99.376 230.99 103.376 220.5 100.539C218.56 99.631 217.56 98.131 217.5 96.039C216.18 96.209 215.01 95.876 214 95.039C207.74 85.219 208.24 75.886 215.5 67.039Z" fill="#484847"/>
<path fill-rule="evenodd" clip-rule="evenodd" d="M79.5 142.039C77.444 142.738 75.444 143.738 73.5 145.039C70.914 146.019 68.247 146.352 65.5 146.039C65.649 144.987 65.483 143.987 65 143.039C63.301 143.945 61.467 144.278 59.5 144.039C59.183 147.111 59.516 150.111 60.5 153.039C61.167 153.372 61.833 153.706 62.5 154.039C67.479 154.117 72.479 154.117 77.5 154.039C81.252 155.628 85.085 156.962 89 158.039C91.935 156.74 94.769 157.074 97.5 159.039C102.833 159.372 108.167 159.706 113.5 160.039C119.246 160.013 124.75 159.346 130 158.039C130.84 159.163 132.01 159.83 133.5 160.039C139.05 158.857 144.39 157.19 149.5 155.039C150.18 155.782 150.85 156.448 151.5 157.039C149.54 158.031 147.54 159.031 145.5 160.039C124.64 161.327 103.643 161.327 82.5 160.039C79.579 159.058 76.579 158.224 73.5 157.539C62.691 157.328 52.025 156.161 41.5 154.039C39.62 158.463 38.454 163.13 38 168.039C35.91 170.755 34.41 173.755 33.5 177.039C31.846 180.205 29.179 181.872 25.5 182.039C23.807 168.792 24.64 155.792 28 143.039C30.264 139.723 33.264 137.723 37 137.039C44.355 138.006 51.522 139.506 58.5 141.539C65.492 142.039 72.492 142.205 79.5 142.039Z" fill="#2D2D2D"/>
<path fill-rule="evenodd" clip-rule="evenodd" d="M152.5 1.03905C173.15 1.66475 192.15 7.49805 209.5 18.539C214 21.8748 218 25.7081 221.5 30.039C220.58 30.8419 219.58 31.0086 218.5 30.539C215.14 27.842 211.81 25.1753 208.5 22.539C208.83 22.2057 209.17 21.8723 209.5 21.539C206.76 20.4626 204.1 19.296 201.5 18.039C196.99 16.4509 192.66 14.2842 188.5 11.539C161.3 3.66155 133.63 1.99495 105.5 6.53905C98.349 8.41035 91.349 10.7436 84.5 13.539C80.398 16.0115 76.065 18.1782 71.5 20.039C69.191 22.5256 66.524 24.5256 63.5 26.039C58.863 31.681 54.197 37.3476 49.5 43.039C47.023 48.6651 44.523 54.3318 42 60.039C40.573 66.9865 38.739 73.8199 36.5 80.539C37.52 84.3013 37.52 88.135 36.5 92.039C36.667 93.372 36.833 94.706 37 96.039C39.942 100.945 43.109 105.611 46.5 110.039C46.709 111.461 47.209 112.794 48 114.039C58.089 123.974 68.589 133.307 79.5 142.039C72.492 142.205 65.492 142.039 58.5 141.539C51.522 139.506 44.355 138.006 37 137.039C33.264 137.723 30.264 139.723 28 143.039C24.64 155.792 23.807 168.792 25.5 182.039C29.179 181.872 31.846 180.205 33.5 177.039C31.193 185.23 30.86 193.563 32.5 202.039C35.526 202.376 37.526 204.043 38.5 207.039C33.424 209.148 29.591 207.815 27 203.039C20.848 185.792 19.181 168.125 22 150.039C23.298 144.103 26.131 139.103 30.5 135.039C31.239 117.366 32.073 99.7 33 82.039C39.804 35.0676 66.638 8.40095 113.5 2.03905C126.48 1.21175 139.48 0.878348 152.5 1.03905Z" fill="#161516"/>
<path fill-rule="evenodd" clip-rule="evenodd" d="M82.5 160.039C86.771 162.512 91.104 165.012 95.5 167.539C107.5 168.206 119.5 168.206 131.5 167.539C134.84 167.541 137.17 166.041 138.5 163.039C141.13 162.481 143.46 161.481 145.5 160.039C147.54 159.031 149.54 158.031 151.5 157.039C156.5 157.039 161.5 157.039 166.5 157.039C170.87 159.093 175.54 160.593 180.5 161.539C189.75 168.525 196.75 177.359 201.5 188.039C204.17 191.039 206.83 194.039 209.5 197.039C214.26 199.778 219.26 202.112 224.5 204.039C225.93 205.127 226.93 206.461 227.5 208.039C225.54 209.851 223.21 210.851 220.5 211.039C220.5 212.039 220.5 213.039 220.5 214.039C226.44 215.76 231.94 218.426 237 222.039C244.09 242.213 250.59 262.546 256.5 283.039C253.05 283.632 249.72 284.632 246.5 286.039C244.9 285.6 243.4 284.933 242 284.039C237.15 284.987 232.31 285.987 227.5 287.039C225.47 287.201 223.47 287.034 221.5 286.539C214.53 274.723 204.2 268.556 190.5 268.039C190.26 272.261 190.6 276.428 191.5 280.539C198.69 290.063 206.03 299.563 213.5 309.039C214.17 309.372 214.83 309.706 215.5 310.039C221.55 303.666 224.71 296.333 225 288.039C226.01 288.595 226.84 289.261 227.5 290.039C227.49 300.399 223.33 309.066 215 316.039C212.75 322.733 208.91 328.233 203.5 332.539C209.74 350.253 216.57 367.753 224 385.039C226.78 392.495 227.78 400.162 227 408.039C226 412.219 223.5 415.053 219.5 416.539C200.17 417.206 180.83 417.206 161.5 416.539C159.68 414.739 158.52 412.573 158 410.039C156.45 404.13 155.62 398.13 155.5 392.039C155.47 391.042 155.97 390.375 157 390.039C158.34 391.045 159.67 392.045 161 393.039C161.42 398.589 162.59 403.923 164.5 409.039C166.14 409.019 167.48 409.686 168.5 411.039C181.67 410.831 195 410.831 208.5 411.039C210.85 410.479 213.19 409.812 215.5 409.039C216.73 407.949 217.56 406.615 218 405.039C219.88 404.486 221.38 403.486 222.5 402.039C221.12 389.288 217.45 377.288 211.5 366.039C210.07 363.231 209.4 360.231 209.5 357.039C199.13 363.264 187.8 365.764 175.5 364.539C173.68 363.542 172.01 362.375 170.5 361.039C170.5 360.372 170.17 360.039 169.5 360.039C168.31 357.583 166.98 355.25 165.5 353.039C157.54 357.45 154.54 364.283 156.5 373.539C156.56 377.736 156.9 381.903 157.5 386.039C157.13 387.714 156.13 388.714 154.5 389.039C152.34 371.441 151.01 353.774 150.5 336.039C147.43 336.412 144.43 337.078 141.5 338.039C140.66 358.786 138.83 379.453 136 400.039C135.3 405.222 133.96 410.222 132 415.039C131.25 415.665 130.42 416.165 129.5 416.539C110.167 417.206 90.833 417.206 71.5 416.539C67.835 414.871 65.668 412.038 65 408.039C64.259 397.992 65.926 388.325 70 379.039C75.829 365.73 81.329 352.397 86.5 339.039C86.167 338.372 85.833 337.706 85.5 337.039C81.892 338.132 78.225 338.299 74.5 337.539C70.253 333.797 66.586 329.631 63.5 325.039C64.028 323.818 64.695 322.652 65.5 321.539C64.655 319.981 65.321 318.981 67.5 318.539C73.457 315.467 79.79 314.134 86.5 314.539C96.086 323.668 106.086 332.335 116.5 340.539C117.167 340.706 117.833 340.872 118.5 341.039C121.982 339.366 125.32 337.699 128.5 336.039C128.83 336.039 129.17 336.039 129.5 336.039C138.18 335.697 146.18 333.364 153.5 329.039C153.48 324.717 151.81 321.217 148.5 318.539C139.15 311.843 129.81 305.176 120.5 298.539C122.67 296.816 125 296.649 127.5 298.039C130.62 297.674 133.62 296.841 136.5 295.539C139.14 290.969 142.14 286.635 145.5 282.539C148.98 281.774 151.98 280.274 154.5 278.039C158.22 274.844 162.56 272.677 167.5 271.539C168.57 270.8 169.24 269.8 169.5 268.539C167.06 259.891 164.23 251.391 161 243.039C159.6 241.791 158.1 240.791 156.5 240.039C146.13 241.798 136.13 244.798 126.5 249.039C125.73 249.802 125.23 250.802 125 252.039C123.35 252.938 121.848 253.938 120.5 255.039C111.05 257.633 101.717 260.633 92.5 264.039C90.128 263.436 87.961 262.436 86 261.039C64.983 268.545 43.816 275.545 22.5 282.039C21.414 282.159 20.747 282.826 20.5 284.039C24.39 298.144 28.557 312.144 33 326.039C41.671 326.627 50.004 324.96 58 321.039C59.68 322.142 61.18 321.809 62.5 320.039C62.833 320.206 63.167 320.372 63.5 320.539C62.778 322.29 61.778 323.79 60.5 325.039C51.034 327.639 41.701 330.639 32.5 334.039C29.35 325.91 26.35 317.744 23.5 309.539C17.114 310.551 10.781 312.051 4.5 314.039C2.862 308.31 1.362 302.644 0 297.039C5.307 294.658 10.807 292.992 16.5 292.039C16.806 288.341 16.139 284.841 14.5 281.539C14.645 280.767 14.978 280.1 15.5 279.539C21.167 277.872 26.833 276.206 32.5 274.539C33.167 273.206 33.833 271.872 34.5 270.539C46.774 266.386 59.108 262.386 71.5 258.539C73.18 258.192 74.18 257.192 74.5 255.539C71.461 245.257 68.128 235.09 64.5 225.039C54.435 220.96 45.768 214.96 38.5 207.039C37.526 204.043 35.526 202.376 32.5 202.039C30.86 193.563 31.193 185.23 33.5 177.039C34.41 173.755 35.91 170.755 38 168.039C38.454 163.13 39.62 158.463 41.5 154.039C52.025 156.161 62.691 157.328 73.5 157.539C76.579 158.224 79.579 159.058 82.5 160.039Z" fill="#0E0E0E"/>
<path fill-rule="evenodd" clip-rule="evenodd" d="M82.5 160.039C103.643 161.327 124.64 161.327 145.5 160.039C143.46 161.481 141.13 162.481 138.5 163.039C137.17 166.041 134.84 167.541 131.5 167.539C119.5 168.206 107.5 168.206 95.5 167.539C91.104 165.012 86.771 162.512 82.5 160.039Z" fill="#1B1B1B"/>
<path fill-rule="evenodd" clip-rule="evenodd" d="M169.5 162.039C169.61 162.656 169.94 163.156 170.5 163.539C164.69 168.448 158.02 170.448 150.5 169.539C150.04 169.125 149.71 168.625 149.5 168.039C151.85 166.351 153.85 164.351 155.5 162.039C160.01 160.942 164.68 160.942 169.5 162.039Z" fill="#434341"/>
<path fill-rule="evenodd" clip-rule="evenodd" d="M178.5 166.039C182.04 167.46 184.71 169.794 186.5 173.039C186.59 174.035 186.25 174.868 185.5 175.539C180.09 177.288 174.76 178.954 169.5 180.539C168.67 178.372 167.17 176.872 165 176.039C164.41 174.64 164.57 173.307 165.5 172.039C170.15 170.395 174.48 168.395 178.5 166.039Z" fill="#464544"/>
<path fill-rule="evenodd" clip-rule="evenodd" d="M59.5 171.039C59.5 171.372 59.5 171.706 59.5 172.039C54.921 172.009 50.921 173.343 47.5 176.039C47.167 176.039 46.833 176.039 46.5 176.039C46.574 174.128 47.574 172.961 49.5 172.539C52.757 171.496 56.09 170.996 59.5 171.039Z" fill="#5A1311"/>
<path fill-rule="evenodd" clip-rule="evenodd" d="M97.5 172.039C108.194 171.83 118.86 172.164 129.5 173.039C126.62 180.735 125.79 188.735 127 197.039C128.64 200.281 129.64 203.615 130 207.039C128.94 206.442 127.77 206.109 126.5 206.039C116.72 208.245 106.887 208.579 97 207.039C99.286 200.819 100.786 194.319 101.5 187.539C101.638 181.922 100.305 176.755 97.5 172.039Z" fill="#2F2F2E"/>
<path fill-rule="evenodd" clip-rule="evenodd" d="M73.5 186.039C74.7 189.508 74.7 192.841 73.5 196.039C70.896 197.069 68.229 197.069 65.5 196.039C65.5 195.039 65.5 194.039 65.5 193.039C59.976 192.616 54.642 191.616 49.5 190.039C49.495 187.007 49.162 184.007 48.5 181.039C48.833 180.039 49.167 179.039 49.5 178.039C50.791 176.442 52.291 175.109 54 174.039C55 174.706 56 175.372 57 176.039C59.12 175.08 61.287 174.913 63.5 175.539C64.583 177.595 66.25 178.928 68.5 179.539C66.848 184.067 68.514 186.234 73.5 186.039Z" fill="#E20104"/>
<path fill-rule="evenodd" clip-rule="evenodd" d="M94.5 201.039C91.097 202.224 88.097 201.391 85.5 198.539C84.216 197.855 83.049 198.022 82 199.039C79.441 194.769 77.941 195.103 77.5 200.039C75.784 199.91 74.117 199.577 72.5 199.039C73.11 198.148 73.443 197.148 73.5 196.039C74.7 192.841 74.7 189.508 73.5 186.039C72.208 178.081 67.542 173.414 59.5 172.039C59.5 171.706 59.5 171.372 59.5 171.039C56.635 169.756 53.635 169.756 50.5 171.039C49.808 170.514 49.308 169.847 49 169.039C47.301 169.945 45.467 170.278 43.5 170.039C51.951 162.369 61.951 159.536 73.5 161.539C94.885 167.145 101.885 180.312 94.5 201.039Z" fill="#353433"/>
<path fill-rule="evenodd" clip-rule="evenodd" d="M155.5 162.039C153.85 164.351 151.85 166.351 149.5 168.039C149.71 168.625 150.04 169.125 150.5 169.539C158.02 170.448 164.69 168.448 170.5 163.539C169.94 163.156 169.61 162.656 169.5 162.039C172.95 162.622 175.95 163.955 178.5 166.039C174.48 168.395 170.15 170.395 165.5 172.039C164.57 173.307 164.41 174.64 165 176.039C167.17 176.872 168.67 178.372 169.5 180.539C174.76 178.954 180.09 177.288 185.5 175.539C186.25 174.868 186.59 174.035 186.5 173.039C192.38 180.12 193.88 188.12 191 197.039C190.52 198.672 189.69 200.005 188.5 201.039C182.41 199.174 176.08 198.508 169.5 199.039C170.64 194.891 170.64 190.891 169.5 187.039C168.42 182.551 166.09 178.884 162.5 176.039C157.27 171.51 151.6 170.844 145.5 174.039C143.94 174.272 142.6 174.939 141.5 176.039C141.7 174.495 142.37 173.161 143.5 172.039C143 171.706 142.5 171.372 142 171.039C139.07 172.871 136.57 175.204 134.5 178.039C133.61 177.214 133.28 176.214 133.5 175.039C138.66 167.124 145.99 162.79 155.5 162.039Z" fill="#322F2E"/>
<path fill-rule="evenodd" clip-rule="evenodd" d="M162.5 176.039C162.56 177.148 162.89 178.148 163.5 179.039C162.7 181.146 162.03 183.313 161.5 185.539C162.31 187.614 163.64 189.281 165.5 190.539C164.07 196.421 161.74 197.087 158.5 192.539C154.79 192.364 151.12 191.864 147.5 191.039C145.01 187.733 143.35 184.066 142.5 180.039C143.97 178.323 144.97 176.323 145.5 174.039C151.6 170.844 157.27 171.51 162.5 176.039Z" fill="#E00205"/>
<path fill-rule="evenodd" clip-rule="evenodd" d="M162.5 176.039C166.09 178.884 168.42 182.551 169.5 187.039C169.93 190.416 169.27 193.416 167.5 196.039C167.5 192.706 167.5 189.372 167.5 186.039C166.18 185.869 165.01 186.202 164 187.039C163.47 184.954 163.97 183.121 165.5 181.539C165.36 180.238 164.69 179.405 163.5 179.039C162.89 178.148 162.56 177.148 162.5 176.039Z" fill="#95050A"/>
<path fill-rule="evenodd" clip-rule="evenodd" d="M59.5 172.039C67.542 173.414 72.208 178.081 73.5 186.039C68.514 186.234 66.848 184.067 68.5 179.539C66.25 178.928 64.583 177.595 63.5 175.539C61.287 174.913 59.12 175.08 57 176.039C56 175.372 55 174.706 54 174.039C52.291 175.109 50.791 176.442 49.5 178.039C49.167 179.039 48.833 180.039 48.5 181.039C49.162 184.007 49.495 187.007 49.5 190.039C54.642 191.616 59.976 192.616 65.5 193.039C65.5 194.039 65.5 195.039 65.5 196.039C68.229 197.069 70.896 197.069 73.5 196.039C73.443 197.148 73.11 198.148 72.5 199.039C70.246 199.663 68.579 200.996 67.5 203.039C66.167 203.372 64.833 203.706 63.5 204.039C60.579 204.393 58.246 203.393 56.5 201.039C55.406 202.407 55.74 203.574 57.5 204.539C56.167 205.206 54.833 205.206 53.5 204.539C52.167 203.206 50.833 201.872 49.5 200.539C53.19 200.115 53.357 199.281 50 198.039C49.667 198.372 49.333 198.706 49 199.039C48.689 196.983 48.189 194.983 47.5 193.039C47.709 192.453 48.043 191.953 48.5 191.539C47.095 189.562 46.095 187.396 45.5 185.039C46.548 183.129 46.548 181.295 45.5 179.539C46.973 178.829 47.64 177.663 47.5 176.039C50.921 173.343 54.921 172.009 59.5 172.039Z" fill="#B60204"/>
<path fill-rule="evenodd" clip-rule="evenodd" d="M137.5 181.039C136.24 184.662 136.24 188.329 137.5 192.039C143.63 193.433 146.63 197.267 146.5 203.539C149.64 203.65 152.64 203.817 155.5 204.039C158.59 202.706 161.59 201.373 164.5 200.039C164.59 201.035 164.25 201.868 163.5 202.539C155.19 207.646 147.53 206.98 140.5 200.539C139.55 200.056 138.55 199.89 137.5 200.039C135.89 196.268 134.89 192.268 134.5 188.039C134.63 186.164 134.96 184.331 135.5 182.539C135.84 181.509 136.5 181.009 137.5 181.039Z" fill="#9A0809"/>
<path fill-rule="evenodd" clip-rule="evenodd" d="M46.5 176.039C46.833 176.039 47.167 176.039 47.5 176.039C47.64 177.663 46.973 178.829 45.5 179.539C46.548 181.295 46.548 183.129 45.5 185.039C46.095 187.396 47.095 189.562 48.5 191.539C48.043 191.953 47.709 192.453 47.5 193.039C48.189 194.983 48.689 196.983 49 199.039C49.333 198.706 49.667 198.372 50 198.039C53.357 199.281 53.19 200.115 49.5 200.539C50.833 201.872 52.167 203.206 53.5 204.539C54.833 205.206 56.167 205.206 57.5 204.539C55.74 203.574 55.406 202.407 56.5 201.039C58.246 203.393 60.579 204.393 63.5 204.039C59.806 205.951 55.806 206.451 51.5 205.539C48.035 203.076 44.869 200.243 42 197.039C38.882 188.894 40.382 181.894 46.5 176.039Z" fill="#A10705"/>
<path fill-rule="evenodd" clip-rule="evenodd" d="M163.5 179.039C164.69 179.405 165.36 180.238 165.5 181.539C163.97 183.121 163.47 184.954 164 187.039C165.01 186.202 166.18 185.869 167.5 186.039C167.5 189.372 167.5 192.706 167.5 196.039C166.83 196.039 166.5 196.372 166.5 197.039C163.56 197.945 160.56 198.611 157.5 199.039C157.71 197.395 157.38 195.895 156.5 194.539C152.48 194.394 148.64 193.56 145 192.039C143.46 188.717 142.29 185.217 141.5 181.539C141.57 180.774 141.9 180.274 142.5 180.039C143.35 184.066 145.01 187.733 147.5 191.039C151.12 191.864 154.79 192.364 158.5 192.539C161.74 197.087 164.07 196.421 165.5 190.539C163.64 189.281 162.31 187.614 161.5 185.539C162.03 183.313 162.7 181.146 163.5 179.039Z" fill="#C70204"/>
<path fill-rule="evenodd" clip-rule="evenodd" d="M59.5 171.039C56.09 170.996 52.757 171.496 49.5 172.539C47.574 172.961 46.574 174.128 46.5 176.039C40.382 181.894 38.882 188.894 42 197.039C44.869 200.243 48.035 203.076 51.5 205.539C55.806 206.451 59.806 205.951 63.5 204.039C64.833 203.706 66.167 203.372 67.5 203.039C66.652 204.632 65.319 205.799 63.5 206.539C65.167 206.872 66.833 207.206 68.5 207.539C63.515 207.32 58.515 207.32 53.5 207.539C54.938 207.758 56.271 208.258 57.5 209.039C57 209.372 56.5 209.706 56 210.039C51.979 208.452 47.813 207.452 43.5 207.039C34.974 197.476 33.474 186.81 39 175.039C40.049 172.921 41.549 171.255 43.5 170.039C45.467 170.278 47.301 169.945 49 169.039C49.308 169.847 49.808 170.514 50.5 171.039C53.635 169.756 56.635 169.756 59.5 171.039Z" fill="#251B1C"/>
<path fill-rule="evenodd" clip-rule="evenodd" d="M145.5 174.039C144.97 176.323 143.97 178.323 142.5 180.039C141.9 180.274 141.57 180.774 141.5 181.539C142.29 185.217 143.46 188.717 145 192.039C148.64 193.56 152.48 194.394 156.5 194.539C157.38 195.895 157.71 197.395 157.5 199.039C160.56 198.611 163.56 197.945 166.5 197.039C166.71 198.718 166.05 199.718 164.5 200.039C161.59 201.373 158.59 202.706 155.5 204.039C152.64 203.817 149.64 203.65 146.5 203.539C146.63 197.267 143.63 193.433 137.5 192.039C136.24 188.329 136.24 184.662 137.5 181.039C137.37 178.172 138.7 176.506 141.5 176.039C142.6 174.939 143.94 174.272 145.5 174.039Z" fill="#AD0204"/>
<path fill-rule="evenodd" clip-rule="evenodd" d="M225.5 34.039C239.53 55.1403 247.03 78.4737 248 104.039C248.33 113.706 248.67 123.372 249 133.039C252.97 137.308 255.64 142.308 257 148.039C260.98 163.81 262.31 179.81 261 196.039C260.39 199.087 258.89 201.587 256.5 203.539C247.04 206.398 237.37 207.898 227.5 208.039C226.93 206.461 225.93 205.127 224.5 204.039C219.26 202.112 214.26 199.778 209.5 197.039C206.83 194.039 204.17 191.039 201.5 188.039C196.75 177.359 189.75 168.525 180.5 161.539C175.54 160.593 170.87 159.093 166.5 157.039C174.49 157.984 182.49 158.151 190.5 157.539C191.77 162.648 194.77 166.481 199.5 169.039C201.41 173.874 204.08 178.208 207.5 182.039C211.64 184.348 214.98 187.515 217.5 191.539C229.14 198.95 241.81 201.95 255.5 200.539C256.13 199.789 256.63 198.955 257 198.039C258.37 179.744 256.7 161.744 252 144.039C249.57 136.346 244.41 133.846 236.5 136.539C227 138.995 217.34 140.329 207.5 140.539C197.83 140.918 188.16 141.418 178.5 142.039C176.17 141.706 173.83 141.372 171.5 141.039C193.19 133.193 213.86 123.193 233.5 111.039C236.06 108.405 238.73 105.905 241.5 103.539C242.61 96.744 242.78 89.91 242 83.039C238.4 73.5755 235.23 63.9088 232.5 54.039C230.89 50.2782 228.72 46.9448 226 44.039C225.12 40.609 223.95 37.2757 222.5 34.039C223.23 33.452 224.23 33.452 225.5 34.039Z" fill="#181818"/>
<path fill-rule="evenodd" clip-rule="evenodd" d="M141.5 176.039C138.7 176.506 137.37 178.172 137.5 181.039C136.5 181.009 135.84 181.509 135.5 182.539C134.96 184.331 134.63 186.164 134.5 188.039C134.89 192.268 135.89 196.268 137.5 200.039C138.55 199.89 139.55 200.056 140.5 200.539C147.53 206.98 155.19 207.646 163.5 202.539C164.25 201.868 164.59 201.035 164.5 200.039C166.05 199.718 166.71 198.718 166.5 197.039C166.5 196.372 166.83 196.039 167.5 196.039C169.27 193.416 169.93 190.416 169.5 187.039C170.64 190.891 170.64 194.891 169.5 199.039C176.08 198.508 182.41 199.174 188.5 201.039C178.7 214.252 165.7 218.752 149.5 214.539C136.08 208.786 129.58 198.62 130 184.039C130.12 180.497 131.29 177.497 133.5 175.039C133.28 176.214 133.61 177.214 134.5 178.039C136.57 175.204 139.07 172.871 142 171.039C142.5 171.372 143 171.706 143.5 172.039C142.37 173.161 141.7 174.495 141.5 176.039Z" fill="#232021"/>
<path fill-rule="evenodd" clip-rule="evenodd" d="M94.5 201.039C80.699 217.396 64.366 220.229 45.5 209.539C44.619 208.831 43.953 207.997 43.5 207.039C47.813 207.452 51.979 208.452 56 210.039C56.5 209.706 57 209.372 57.5 209.039C56.271 208.258 54.938 207.758 53.5 207.539C58.515 207.32 63.515 207.32 68.5 207.539C66.833 207.206 65.167 206.872 63.5 206.539C65.319 205.799 66.652 204.632 67.5 203.039C68.579 200.996 70.246 199.663 72.5 199.039C74.117 199.577 75.784 199.91 77.5 200.039C77.941 195.103 79.441 194.769 82 199.039C83.049 198.022 84.216 197.855 85.5 198.539C88.097 201.391 91.097 202.224 94.5 201.039Z" fill="#242323"/>
<path fill-rule="evenodd" clip-rule="evenodd" d="M125.5 213.039C124.27 213.691 123.61 214.858 123.5 216.539C125.44 221.589 126.94 226.755 128 232.039C128.59 234.558 129.75 236.558 131.5 238.039C129.74 239 127.74 239.334 125.5 239.039C122.96 231.201 119.956 223.535 116.5 216.039C118.242 214.582 120.242 213.415 122.5 212.539C123.75 211.799 124.75 211.966 125.5 213.039Z" fill="#494948"/>
<path fill-rule="evenodd" clip-rule="evenodd" d="M244.5 262.039C244.82 265.233 243.66 266.233 241 265.039C240.67 262.706 240.33 260.372 240 258.039C239.67 258.706 239.33 259.372 239 260.039C236.72 249.349 233.89 240.016 230.5 232.039C225.94 226.156 219.94 223.489 212.5 224.039C209.78 222.843 208.61 220.843 209 218.039C213.41 215.722 217.91 215.555 222.5 217.539C226.25 219.832 230.09 221.999 234 224.039C234.5 225.574 234.33 227.074 233.5 228.539C238.41 239.287 242.08 250.454 244.5 262.039Z" fill="#535352"/>
<path fill-rule="evenodd" clip-rule="evenodd" d="M116.5 216.039C119.956 223.535 122.96 231.201 125.5 239.039C125.44 239.582 125.11 239.915 124.5 240.039C123.83 239.039 123.17 238.039 122.5 237.039C120.929 237.848 119.262 238.182 117.5 238.039C118.021 233.82 116.854 230.153 114 227.039C111.5 225.206 109 223.372 106.5 221.539C110.374 220.441 113.707 218.607 116.5 216.039Z" fill="#333333"/>
<path fill-rule="evenodd" clip-rule="evenodd" d="M82.5 253.039C83.209 252.135 84.209 251.802 85.5 252.039C82.739 243.906 80.739 235.572 79.5 227.039C83.984 227.779 88.317 227.779 92.5 227.039C90.154 228.776 89.154 231.109 89.5 234.039C90.203 238.495 91.036 242.829 92 247.039C89.14 249.773 85.973 251.773 82.5 253.039Z" fill="#353535"/>
<path fill-rule="evenodd" clip-rule="evenodd" d="M99.5 227.039C110.104 225.814 114.27 230.48 112 241.039C105.922 247.616 99.922 247.616 94 241.039C92.025 234.716 93.858 230.049 99.5 227.039Z" fill="#6C6C6A"/>
<path fill-rule="evenodd" clip-rule="evenodd" d="M125.5 213.039C127.73 219.226 129.9 225.56 132 232.039C132.79 234.251 132.62 236.251 131.5 238.039C129.75 236.558 128.59 234.558 128 232.039C126.94 226.755 125.44 221.589 123.5 216.539C123.61 214.858 124.27 213.691 125.5 213.039Z" fill="#7D7D7D"/>
<path fill-rule="evenodd" clip-rule="evenodd" d="M183.5 228.039C184.5 227.953 185.33 228.287 186 229.039C187.4 233.994 189.4 238.661 192 243.039C192.51 248.44 193.34 253.773 194.5 259.039C199.44 259.331 204.44 259.497 209.5 259.539C213.02 262.333 213.36 265.499 210.5 269.039C204.82 266.201 198.82 264.534 192.5 264.039C192.39 261.756 191.56 259.756 190 258.039C186.59 254.001 182.59 250.668 178 248.039C174.92 244.569 173.59 240.569 174 236.039C176.77 232.759 179.94 230.093 183.5 228.039Z" fill="#2B2B2B"/>
<path fill-rule="evenodd" clip-rule="evenodd" d="M100.5 230.039C101.5 230.039 102.5 230.039 103.5 230.039C103.5 231.372 103.5 232.706 103.5 234.039C105.288 233.754 106.955 234.087 108.5 235.039C107.675 235.925 106.675 236.258 105.5 236.039C105.808 238.463 105.474 240.796 104.5 243.039C104.167 239.372 102.167 237.372 98.5 237.039C102.038 235.894 102.372 234.061 99.5 231.539C100.056 231.156 100.389 230.656 100.5 230.039Z" fill="#2D2E2C"/>
<path fill-rule="evenodd" clip-rule="evenodd" d="M135.5 225.039C143.7 224.783 151.86 225.116 160 226.039C160.83 226.372 161.67 226.706 162.5 227.039C161.75 229.292 160.41 231.126 158.5 232.539C159.78 233.223 160.95 233.056 162 232.039C163.04 229.793 164.21 227.626 165.5 225.539C169.15 225.04 172.82 224.874 176.5 225.039C175.36 228.372 173.53 231.372 171 234.039C169.33 244.031 165.66 244.698 160 236.039C158.14 233.364 157.14 230.364 157 227.039C156.19 228.975 155.69 230.975 155.5 233.039C149.27 233.188 143.27 234.188 137.5 236.039C136.67 232.403 136.01 228.736 135.5 225.039Z" fill="#272727"/>
<path fill-rule="evenodd" clip-rule="evenodd" d="M190.5 218.039C192.86 218.213 195.19 218.546 197.5 219.039C197.01 221.345 196.67 223.678 196.5 226.039C200.18 225.874 203.85 226.04 207.5 226.539C209.3 227.511 210.97 228.678 212.5 230.039C208.98 231.525 205.32 232.692 201.5 233.539C200.4 235.94 200.23 238.44 201 241.039C208.49 239.666 215.99 239.833 223.5 241.539C225.01 242.978 225.35 244.478 224.5 246.039C219.34 243.465 213.84 242.131 208 242.039C203.92 243.159 199.75 243.826 195.5 244.039C193.96 238.622 192.13 233.288 190 228.039C189.25 224.615 189.42 221.282 190.5 218.039Z" fill="#272828"/>
<path fill-rule="evenodd" clip-rule="evenodd" d="M212.5 224.039C219.94 223.489 225.94 226.156 230.5 232.039C233.89 240.016 236.72 249.349 239 260.039C239.33 259.372 239.67 258.706 240 258.039C240.33 260.372 240.67 262.706 241 265.039C243.66 266.233 244.82 265.233 244.5 262.039C246.83 267.302 249.16 272.635 251.5 278.039C250.35 279.258 249.35 280.591 248.5 282.039C240.75 273.537 235.92 263.537 234 252.039C229.48 240.651 222.31 231.317 212.5 224.039Z" fill="#434341"/>
<path fill-rule="evenodd" clip-rule="evenodd" d="M156.5 240.039C155.43 241.823 153.76 242.99 151.5 243.539C145.38 245.19 139.38 247.024 133.5 249.039C131.17 248.786 129.17 249.453 127.5 251.039C126.7 250.582 126.37 249.915 126.5 249.039C136.13 244.798 146.13 241.798 156.5 240.039Z" fill="#A5A6A5"/>
<path fill-rule="evenodd" clip-rule="evenodd" d="M79.5 227.039C80.739 235.572 82.739 243.906 85.5 252.039C84.209 251.802 83.209 252.135 82.5 253.039C80.958 253.84 79.292 254.173 77.5 254.039C75.983 245.82 73.65 237.82 70.5 230.039C73.038 227.98 76.038 226.98 79.5 227.039Z" fill="#717172"/>
<path fill-rule="evenodd" clip-rule="evenodd" d="M205.5 246.039C216.9 244.987 225.4 249.32 231 259.039C231.81 261.441 231.65 263.774 230.5 266.039C226.98 262.685 223.31 259.519 219.5 256.539C212.24 255.191 204.91 254.691 197.5 255.039C197.19 252.615 197.53 250.282 198.5 248.039C200.98 247.472 203.32 246.805 205.5 246.039Z" fill="#292929"/>
<path fill-rule="evenodd" clip-rule="evenodd" d="M114.5 245.039C115.496 244.953 116.329 245.287 117 246.039C117.495 248.012 117.662 250.012 117.5 252.039C114.833 252.372 112.167 252.706 109.5 253.039C109.343 251.666 109.51 250.332 110 249.039C111.992 248.211 113.492 246.878 114.5 245.039Z" fill="#686868"/>
<path fill-rule="evenodd" clip-rule="evenodd" d="M167.5 246.039C171.43 247.549 173.1 250.549 172.5 255.039C171.5 255.039 170.5 255.039 169.5 255.039C168.08 252.278 167.41 249.278 167.5 246.039Z" fill="#333333"/>
<path fill-rule="evenodd" clip-rule="evenodd" d="M97.5 250.039C100.206 250.114 102.873 250.447 105.5 251.039C105.714 252.683 105.38 254.183 104.5 255.539C102.187 256.201 99.854 256.701 97.5 257.039C97.5 254.706 97.5 252.372 97.5 250.039Z" fill="#696969"/>
<path fill-rule="evenodd" clip-rule="evenodd" d="M91.5 253.039C93.988 255.112 93.988 257.446 91.5 260.039C90.286 257.68 90.286 255.347 91.5 253.039Z" fill="#464646"/>
<path fill-rule="evenodd" clip-rule="evenodd" d="M156.5 240.039C158.1 240.791 159.6 241.791 161 243.039C164.23 251.391 167.06 259.891 169.5 268.539C169.24 269.8 168.57 270.8 167.5 271.539C162.56 272.677 158.22 274.844 154.5 278.039C149.04 278.647 144.04 280.314 139.5 283.039C139.5 282.039 139.5 281.039 139.5 280.039C141.35 280.317 142.68 279.65 143.5 278.039C139.67 276.951 136.01 275.618 132.5 274.039C131.05 269.894 130.05 265.561 129.5 261.039C128.95 257.986 130.12 255.986 133 255.039C133.5 253.066 133.66 251.066 133.5 249.039C139.38 247.024 145.38 245.19 151.5 243.539C153.76 242.99 155.43 241.823 156.5 240.039Z" fill="#454645"/>
<path fill-rule="evenodd" clip-rule="evenodd" d="M120.5 255.039C121.873 254.882 123.21 255.049 124.5 255.539C115.59 259.182 106.59 262.849 97.5 266.539C95.527 267.034 93.527 267.201 91.5 267.039C87.577 263.146 83.577 263.146 79.5 267.039C75.405 267.347 71.405 268.18 67.5 269.539C54.721 273.515 42.054 277.681 29.5 282.039C26.995 282.956 24.662 282.956 22.5 282.039C43.816 275.545 64.983 268.545 86 261.039C87.961 262.436 90.128 263.436 92.5 264.039C101.717 260.633 111.05 257.633 120.5 255.039Z" fill="#A1A1A0"/>
<path fill-rule="evenodd" clip-rule="evenodd" d="M178.5 254.039C181.16 256.523 183.99 258.856 187 261.039C187.48 261.987 187.65 262.987 187.5 264.039C180.87 264.181 177.87 260.847 178.5 254.039Z" fill="#515151"/>
<path fill-rule="evenodd" clip-rule="evenodd" d="M91.5 267.039C93.369 273.618 90.869 277.618 84 279.039C78.658 276.525 77.158 272.525 79.5 267.039C83.577 263.146 87.577 263.146 91.5 267.039Z" fill="#393937"/>
<path fill-rule="evenodd" clip-rule="evenodd" d="M227.5 287.039C227.5 288.039 227.5 289.039 227.5 290.039C226.84 289.261 226.01 288.595 225 288.039C224.71 296.333 221.55 303.666 215.5 310.039C214.83 309.706 214.17 309.372 213.5 309.039C206.03 299.563 198.69 290.063 191.5 280.539C190.6 276.428 190.26 272.261 190.5 268.039C204.2 268.556 214.53 274.723 221.5 286.539C223.47 287.034 225.47 287.201 227.5 287.039Z" fill="#2C2C2C"/>
<path fill-rule="evenodd" clip-rule="evenodd" d="M126.5 249.039C126.37 249.915 126.7 250.582 127.5 251.039C129.17 249.453 131.17 248.786 133.5 249.039C133.66 251.066 133.5 253.066 133 255.039C130.12 255.986 128.95 257.986 129.5 261.039C130.05 265.561 131.05 269.894 132.5 274.039C136.01 275.618 139.67 276.951 143.5 278.039C142.68 279.65 141.35 280.317 139.5 280.039C139.5 281.039 139.5 282.039 139.5 283.039C139.53 284.036 139.03 284.703 138 285.039C135.08 283.784 132.41 282.117 130 280.039C126.62 282.144 124.78 285.144 124.5 289.039C125.04 292.227 126.04 295.227 127.5 298.039C125 296.649 122.67 296.816 120.5 298.539C129.81 305.176 139.15 311.843 148.5 318.539C151.81 321.217 153.48 324.717 153.5 329.039C152.5 329.125 151.67 328.791 151 328.039C148.99 318.113 143.99 316.446 136 323.039C135.94 326.687 136.1 330.354 136.5 334.039C133.93 334.26 131.6 334.927 129.5 336.039C129.17 336.039 128.83 336.039 128.5 336.039C124.53 337.022 120.692 337.356 117 337.039C106.765 327.515 96.265 318.348 85.5 309.539C80.948 308.425 76.948 309.425 73.5 312.539C64.958 313.911 56.792 316.411 49 320.039C48.73 317.315 48.23 314.648 47.5 312.039C48.243 311.357 48.909 310.69 49.5 310.039C50.605 304.43 49.438 299.097 46 294.039C45.505 292.066 45.338 290.066 45.5 288.039C43.901 287.771 42.568 288.105 41.5 289.039C40.5 289.039 39.5 289.039 38.5 289.039C38.968 285.639 37.635 283.306 34.5 282.039C33.808 282.564 33.308 283.231 33 284.039C32.29 282.566 31.124 281.899 29.5 282.039C42.054 277.681 54.721 273.515 67.5 269.539C71.405 268.18 75.405 267.347 79.5 267.039C77.158 272.525 78.658 276.525 84 279.039C90.869 277.618 93.369 273.618 91.5 267.039C93.527 267.201 95.527 267.034 97.5 266.539C106.59 262.849 115.59 259.182 124.5 255.539C123.21 255.049 121.873 254.882 120.5 255.039C121.848 253.938 123.35 252.938 125 252.039C125.23 250.802 125.73 249.802 126.5 249.039Z" fill="#5F5F5E"/>
<path fill-rule="evenodd" clip-rule="evenodd" d="M105.5 266.039C109.437 265.746 113.27 266.079 117 267.039C123.95 273.599 125.28 281.266 121 290.039C119.442 291.898 117.609 293.398 115.5 294.539C110.129 295.215 104.796 295.048 99.5 294.039C93.702 286.419 93.035 278.253 97.5 269.539C100.53 268.961 103.197 267.794 105.5 266.039Z" fill="#2B2C2B"/>
<path fill-rule="evenodd" clip-rule="evenodd" d="M163.5 277.039C168.27 276.73 172.93 277.23 177.5 278.539C180.03 280.623 180.03 282.623 177.5 284.539C172.96 284.792 168.46 285.292 164 286.039C156.89 283.25 156.72 280.25 163.5 277.039Z" fill="#292928"/>
<path fill-rule="evenodd" clip-rule="evenodd" d="M54.5 284.039C55.833 284.039 57.167 284.039 58.5 284.039C59.973 289.002 61.473 294.002 63 299.039C63.497 301.349 63.663 303.682 63.5 306.039C61.549 306.312 60.049 305.646 59 304.039C56.799 297.536 55.299 290.869 54.5 284.039Z" fill="#0A0A0B"/>
<path fill-rule="evenodd" clip-rule="evenodd" d="M189.5 287.039C190.55 286.89 191.55 287.056 192.5 287.539C197.67 294.706 202.83 301.872 208 309.039C210.98 313.352 211.15 317.686 208.5 322.039C201.86 327.515 195.36 333.181 189 339.039C182.64 331.004 176.64 322.67 171 314.039C169.29 311.116 169.12 308.116 170.5 305.039C176.23 298.307 182.56 292.307 189.5 287.039Z" fill="#2E2E2E"/>
<path fill-rule="evenodd" clip-rule="evenodd" d="M154.5 278.039C151.98 280.274 148.98 281.774 145.5 282.539C142.14 286.635 139.14 290.969 136.5 295.539C133.62 296.841 130.62 297.674 127.5 298.039C126.04 295.227 125.04 292.227 124.5 289.039C124.78 285.144 126.62 282.144 130 280.039C132.41 282.117 135.08 283.784 138 285.039C139.03 284.703 139.53 284.036 139.5 283.039C144.04 280.314 149.04 278.647 154.5 278.039Z" fill="#333332"/>
<path fill-rule="evenodd" clip-rule="evenodd" d="M41.5 293.039C42.833 298.039 44.167 303.039 45.5 308.039C41.017 308.643 36.683 309.976 32.5 312.039C31.5 306.707 30.5 301.374 29.5 296.039C34.051 296.17 37.384 294.17 39.5 290.039C40.176 291.141 40.842 292.141 41.5 293.039Z" fill="#5C5D5C"/>
<path fill-rule="evenodd" clip-rule="evenodd" d="M60.5 282.039C62.167 282.039 63.833 282.039 65.5 282.039C67.951 289.194 69.951 296.527 71.5 304.039C69.833 304.039 68.167 304.039 66.5 304.039C64.183 296.768 62.183 289.435 60.5 282.039Z" fill="#0F0F10"/>
<path fill-rule="evenodd" clip-rule="evenodd" d="M48.5 286.039C50.124 285.899 51.29 286.566 52 288.039C53.942 294.32 56.109 300.487 58.5 306.539C56.75 307.858 54.75 308.358 52.5 308.039C50.686 301.786 49.019 295.452 47.5 289.039C47.685 287.955 48.018 286.955 48.5 286.039Z" fill="#0C0C0D"/>
<path fill-rule="evenodd" clip-rule="evenodd" d="M151.5 294.039C158.57 293.459 161.57 296.793 160.5 304.039C159.5 304.039 158.5 304.039 157.5 304.039C157.5 306.706 157.5 309.372 157.5 312.039C156.5 312.039 155.5 312.039 154.5 312.039C152.67 306.206 151.67 300.206 151.5 294.039Z" fill="#2A2A29"/>
<path fill-rule="evenodd" clip-rule="evenodd" d="M14.5 296.039C16.467 295.8 18.301 296.133 20 297.039C20.373 299.237 20.873 301.404 21.5 303.539C20.14 306.179 18.807 306.346 17.5 304.039C11.025 307.771 7.025 306.104 5.5 299.039C8.855 298.849 11.855 297.849 14.5 296.039Z" fill="#333233"/>
<path fill-rule="evenodd" clip-rule="evenodd" d="M49.5 310.039C47.801 310.012 46.467 309.345 45.5 308.039C44.167 303.039 42.833 298.039 41.5 293.039C41.5 291.706 41.5 290.372 41.5 289.039C42.568 288.105 43.901 287.771 45.5 288.039C45.338 290.066 45.505 292.066 46 294.039C49.438 299.097 50.605 304.43 49.5 310.039Z" fill="#0A090B"/>
<path fill-rule="evenodd" clip-rule="evenodd" d="M97.5 305.039C102.355 306.036 106.688 308.203 110.5 311.539C115.667 316.039 120.833 320.539 126 325.039C126.28 327.541 125.11 329.208 122.5 330.039C115.414 325.786 108.747 320.953 102.5 315.539C100.291 313.666 98.458 311.499 97 309.039C96.421 307.611 96.588 306.277 97.5 305.039Z" fill="#0B0B0B"/>
<path fill-rule="evenodd" clip-rule="evenodd" d="M22.5 282.039C24.662 282.956 26.995 282.956 29.5 282.039C31.124 281.899 32.29 282.566 33 284.039C33.308 283.231 33.808 282.564 34.5 282.039C37.635 283.306 38.968 285.639 38.5 289.039C39.5 289.039 40.5 289.039 41.5 289.039C41.5 290.372 41.5 291.706 41.5 293.039C40.842 292.141 40.176 291.141 39.5 290.039C37.384 294.17 34.051 296.17 29.5 296.039C30.5 301.374 31.5 306.707 32.5 312.039C36.683 309.976 41.017 308.643 45.5 308.039C46.467 309.345 47.801 310.012 49.5 310.039C48.909 310.69 48.243 311.357 47.5 312.039C48.23 314.648 48.73 317.315 49 320.039C56.792 316.411 64.958 313.911 73.5 312.539C76.948 309.425 80.948 308.425 85.5 309.539C96.265 318.348 106.765 327.515 117 337.039C120.692 337.356 124.53 337.022 128.5 336.039C125.32 337.699 121.982 339.366 118.5 341.039C117.833 340.872 117.167 340.706 116.5 340.539C106.086 332.335 96.086 323.668 86.5 314.539C79.79 314.134 73.457 315.467 67.5 318.539C65.321 318.981 64.655 319.981 65.5 321.539C64.695 322.652 64.028 323.818 63.5 325.039C62.5 325.039 61.5 325.039 60.5 325.039C61.778 323.79 62.778 322.29 63.5 320.539C63.167 320.372 62.833 320.206 62.5 320.039C61.18 321.809 59.68 322.142 58 321.039C50.004 324.96 41.671 326.627 33 326.039C28.557 312.144 24.39 298.144 20.5 284.039C20.747 282.826 21.414 282.159 22.5 282.039Z" fill="#383838"/>
<path fill-rule="evenodd" clip-rule="evenodd" d="M153.5 329.039C146.18 333.364 138.18 335.697 129.5 336.039C131.6 334.927 133.93 334.26 136.5 334.039C136.1 330.354 135.94 326.687 136 323.039C143.99 316.446 148.99 318.113 151 328.039C151.67 328.791 152.5 329.125 153.5 329.039Z" fill="#343434"/>
<path fill-rule="evenodd" clip-rule="evenodd" d="M158.5 332.039C159.82 331.869 160.99 332.202 162 333.039C164.17 339.478 162.17 343.811 156 346.039C155.23 345.894 154.56 345.561 154 345.039C153.69 342.167 153.19 339.334 152.5 336.539C152.74 335.666 153.07 334.832 153.5 334.039C155.29 333.369 156.96 332.702 158.5 332.039Z" fill="#232321"/>
<path fill-rule="evenodd" clip-rule="evenodd" d="M94.5 329.039C95.552 328.89 96.552 329.056 97.5 329.539C103.02 334.56 108.686 339.393 114.5 344.039C115.833 346.039 115.833 348.039 114.5 350.039C112.981 351.39 111.648 352.89 110.5 354.539C103.109 355.529 96.109 354.363 89.5 351.039C87.946 343.231 89.613 335.897 94.5 329.039Z" fill="#2C2C2C"/>
<path fill-rule="evenodd" clip-rule="evenodd" d="M199 330.539C202.04 335.756 203.04 341.423 202 347.539C195.06 348.948 188.06 349.448 181 349.039C179.57 348.574 178.4 347.74 177.5 346.539C176.78 343.319 175.62 340.319 174 337.539C176.06 336.278 177.73 336.778 179 339.039C187.43 340.321 194.1 337.487 199 330.539Z" fill="#2C2C2B"/>
<path fill-rule="evenodd" clip-rule="evenodd" d="M121 355.539C127.49 356.54 130.49 360.373 130 367.039C129.62 368.674 128.96 370.174 128 371.539C121.307 368.469 114.64 365.302 108 362.039C100.599 361.799 93.266 361.632 86 361.539C85.308 362.064 84.808 362.731 84.5 363.539C82.04 362.284 80.873 360.284 81 357.539C80.958 355.19 82.125 353.857 84.5 353.539C94.379 358.63 104.879 360.463 116 359.039C117.823 358.042 119.49 356.875 121 355.539Z" fill="#424241"/>
<path fill-rule="evenodd" clip-rule="evenodd" d="M211 360.539C209.99 361.867 208.66 362.867 207 363.539C198.05 362.692 189.05 362.525 180 363.039C175.17 364.923 170.5 367.09 166 369.539C165.31 369.014 164.81 368.347 164.5 367.539C164 364.557 163.84 361.557 164 358.539C166.17 357.833 168.17 356.833 170 355.539C171.51 356.875 173.18 358.042 175 359.039C187.3 360.264 198.63 357.764 209 351.539C208.9 354.731 209.57 357.731 211 360.539Z" fill="#3E3D3B"/>
<path fill-rule="evenodd" clip-rule="evenodd" d="M81 357.539C80.873 360.284 82.04 362.284 84.5 363.539C84.808 362.731 85.308 362.064 86 361.539C93.266 361.632 100.599 361.799 108 362.039C114.64 365.302 121.307 368.469 128 371.539C128.96 370.174 129.62 368.674 130 367.039C130.49 360.373 127.49 356.54 121 355.539C121.95 352.63 123.61 350.297 126 348.539C130.38 350.036 133.38 352.87 135 357.039C134.6 363.051 133.44 368.884 131.5 374.539C129.6 373.023 127.44 372.356 125 372.539C122.92 380.704 120.917 388.87 119 397.039C102.337 397.539 85.67 397.706 69 397.539C69.111 389.984 70.444 382.65 73 375.539C75.504 369.318 78.171 363.318 81 357.539Z" fill="#2E2E2E"/>
<path fill-rule="evenodd" clip-rule="evenodd" d="M89 363.539C91.563 364.239 94.063 365.239 96.5 366.539C98.71 364.928 101.21 364.261 104 364.539C104.05 366.629 103.05 367.962 101 368.539C100.034 370.435 99.701 372.435 100 374.539C96.735 374.831 93.735 374.164 91 372.539C89.047 373.195 87.047 373.528 85 373.539C85 372.539 85 371.539 85 370.539C86 370.539 87 370.539 88 370.539C87.798 368.089 88.131 365.756 89 363.539Z" fill="#060606"/>
<path fill-rule="evenodd" clip-rule="evenodd" d="M169 354.539C169.67 354.539 170 354.872 170 355.539C168.17 356.833 166.17 357.833 164 358.539C163.84 361.557 164 364.557 164.5 367.539C164.81 368.347 165.31 369.014 166 369.539C170.5 367.09 175.17 364.923 180 363.039C189.05 362.525 198.05 362.692 207 363.539C208.66 362.867 209.99 361.867 211 360.539C216.95 371.788 220.62 383.788 222 396.539C205.36 397.48 188.69 397.814 172 397.539C169.8 388.936 167.8 380.27 166 371.539C163.09 372.597 160.25 373.93 157.5 375.539C156.67 370.837 156.84 366.17 158 361.539C161.08 360.874 163.08 359.041 164 356.039C165.65 355.431 167.32 354.931 169 354.539Z" fill="#30302F"/>
<path fill-rule="evenodd" clip-rule="evenodd" d="M187 364.539C189.44 364.356 191.6 365.023 193.5 366.539C196.06 364.86 198.9 364.193 202 364.539C201.84 365.912 202.01 367.246 202.5 368.539C204.67 369.548 205.84 371.215 206 373.539C203.43 373.695 200.93 373.361 198.5 372.539C196.29 374.15 193.79 374.817 191 374.539C191.42 371.382 190.25 369.049 187.5 367.539C187.02 366.591 186.85 365.591 187 364.539Z" fill="#070606"/>
<path fill-rule="evenodd" clip-rule="evenodd" d="M169 354.539C167.32 354.931 165.65 355.431 164 356.039C163.08 359.041 161.08 360.874 158 361.539C156.84 366.17 156.67 370.837 157.5 375.539C160.25 373.93 163.09 372.597 166 371.539C167.8 380.27 169.8 388.936 172 397.539C188.69 397.814 205.36 397.48 222 396.539C220.88 397.986 219.38 398.986 217.5 399.539C217.06 401.115 216.23 402.449 215 403.539C212.69 404.312 210.35 404.979 208 405.539C194.5 405.331 181.17 405.331 168 405.539C166.98 404.186 165.64 403.519 164 403.539C162.09 398.423 160.92 393.089 160.5 387.539C159.17 386.545 157.84 385.545 156.5 384.539C155.47 384.875 154.97 385.542 155 386.539C154.1 385.83 153.76 384.83 154 383.539C155.63 383.214 156.63 382.214 157 380.539C156.4 376.403 156.06 372.236 156 368.039C154.04 358.783 157.04 351.95 165 347.539C166.48 349.75 167.81 352.083 169 354.539Z" fill="#181818"/>
</svg>
