<svg width="262" height="418" viewBox="0 0 262 418" fill="none" xmlns="http://www.w3.org/2000/svg">
<path fill-rule="evenodd" clip-rule="evenodd" d="M108.987 1.03903C122.007 0.878332 135.007 1.21173 147.987 2.03903C140.721 0.491632 133.217 -0.175068 125.487 0.0390319C119.807 0.0396319 114.307 0.372932 108.987 1.03903Z" fill="#4B4F55"/>
<path fill-rule="evenodd" clip-rule="evenodd" d="M59.9874 18.039C62.4074 18.2466 64.7374 17.9132 66.9874 17.039C67.8774 17.864 68.2074 18.864 67.9874 20.039C68.3174 20.039 68.6574 20.039 68.9874 20.039C68.9074 18.6085 69.2374 17.2752 69.9874 16.039C72.8774 14.7423 75.7174 14.409 78.4874 15.039C81.8474 13.1995 85.3474 11.8662 88.9874 11.039C88.6974 12.827 89.0374 14.4937 89.9874 16.039C90.7774 15.2969 91.4374 14.4636 91.9874 13.539C91.0374 12.8215 90.8674 11.9881 91.4874 11.039C93.9474 11.7571 96.4474 12.4237 98.9874 13.039C104.077 11.9234 109.247 11.2568 114.487 11.039C124.777 11.3238 134.947 12.3238 144.987 14.039C146.999 13.6994 148.999 13.3661 150.987 13.039C150.987 14.039 150.987 15.039 150.987 16.039C153.221 16.1589 155.388 15.8255 157.487 15.039C161.917 17.111 166.417 19.111 170.987 21.039C171.679 21.5643 172.179 22.2309 172.487 23.039C173.048 22.5171 173.715 22.1838 174.487 22.039C176.054 23.3951 177.887 24.0618 179.987 24.039C179.987 25.039 179.987 26.039 179.987 27.039C184.724 28.4133 189.058 30.7466 192.987 34.039C192.462 34.7314 191.795 35.2314 190.987 35.539C191.32 35.8723 191.654 36.2057 191.987 36.539C195.133 37.8774 198.133 39.3774 200.987 41.039C200.987 42.039 200.987 43.039 200.987 44.039C202.877 43.8355 204.377 44.5022 205.487 46.039C204.126 48.0987 203.626 50.432 203.987 53.039C204.908 55.295 206.575 56.295 208.987 56.039C208.972 60.6892 210.972 64.0225 214.987 66.039C214.397 67.3379 213.397 68.1712 211.987 68.539C213.531 68.8286 214.864 69.4953 215.987 70.539C215.654 70.8723 215.32 71.2057 214.987 71.539C215.795 71.8466 216.462 72.3466 216.987 73.039C214.296 75.5372 214.629 77.7039 217.987 79.539C217.179 79.8466 216.512 80.3466 215.987 81.039C216.813 81.99 216.979 82.99 216.487 84.039C214.978 84.629 213.478 85.295 211.987 86.039C213.869 85.694 215.869 86.194 217.987 87.539C217.512 91.981 216.512 96.314 214.987 100.539C217.471 102.145 217.471 103.645 214.987 105.039C216.022 106.667 216.022 108.334 214.987 110.039C218.378 105.611 221.545 100.945 224.487 96.039C224.654 94.706 224.82 93.372 224.987 92.039C223.967 88.135 223.967 84.3013 224.987 80.539C222.748 73.8199 220.914 66.9865 219.487 60.039C216.964 54.3318 214.464 48.6651 211.987 43.039C207.29 37.3476 202.624 31.681 197.987 26.039C194.963 24.5256 192.296 22.5256 189.987 20.039C185.422 18.1782 181.089 16.0115 176.987 13.539C170.138 10.7436 163.138 8.41033 155.987 6.53903C127.857 1.99493 100.187 3.66153 72.9874 11.539C68.8274 14.2842 64.4974 16.4509 59.9874 18.039Z" fill="#2E2D2D"/>
<path fill-rule="evenodd" clip-rule="evenodd" d="M68.9874 20.039C80.7674 15.9336 92.4274 16.1003 103.987 20.539C113.447 26.1574 116.287 34.3241 112.487 45.039C108.937 53.0089 103.437 59.1756 95.9874 63.539C87.7374 65.822 79.4074 67.6553 70.9874 69.039C64.4174 68.4765 58.0774 67.1432 51.9874 65.039C52.1374 63.987 51.9674 62.987 51.4874 62.039C49.2674 60.6148 47.7674 58.6148 46.9874 56.039C45.8274 51.072 45.6574 46.072 46.4874 41.039C52.1974 32.4971 59.3574 25.4971 67.9874 20.039C68.2074 18.864 67.8774 17.864 66.9874 17.039C64.7374 17.9132 62.4074 18.2466 59.9874 18.039C57.3874 19.296 54.7274 20.4626 51.9874 21.539C52.3174 21.8723 52.6574 22.2057 52.9874 22.539C49.6774 25.1753 46.3474 27.842 42.9874 30.539C41.9074 31.0086 40.9074 30.8419 39.9874 30.039C38.3174 31.039 36.9874 32.3723 35.9874 34.039C37.2574 33.452 38.2574 33.452 38.9874 34.039C37.5374 37.2757 36.3674 40.609 35.4874 44.039C32.7674 46.9448 30.5974 50.2782 28.9874 54.039C26.2574 63.9088 23.0874 73.5755 19.4874 83.039C18.7074 89.91 18.8774 96.744 19.9874 103.539C22.7574 105.905 25.4274 108.405 27.9874 111.039C47.6274 123.193 68.2974 133.193 89.9874 141.039C87.6574 141.372 85.3174 141.706 82.9874 142.039C73.3274 141.418 63.6574 140.918 53.9874 140.539C44.1474 140.329 34.4874 138.995 24.9874 136.539C17.0774 133.846 11.9174 136.346 9.48737 144.039C4.78737 161.744 3.11737 179.744 4.48737 198.039C4.85737 198.955 5.35737 199.789 5.98737 200.539C19.6774 201.95 32.3474 198.95 43.9874 191.539C46.5074 187.515 49.8474 184.348 53.9874 182.039C57.4074 178.208 60.0774 173.874 61.9874 169.039C66.7174 166.481 69.7174 162.648 70.9874 157.539C78.9974 158.151 86.9974 157.984 94.9874 157.039C99.9874 157.039 104.987 157.039 109.987 157.039C110.637 156.448 111.307 155.782 111.987 155.039C117.097 157.19 122.437 158.857 127.987 160.039C129.477 159.83 130.647 159.163 131.487 158.039C136.737 159.346 142.241 160.013 147.987 160.039C153.32 159.706 158.654 159.372 163.987 159.039C166.718 157.074 169.552 156.74 172.487 158.039C176.402 156.962 180.235 155.628 183.987 154.039C189.008 154.117 194.008 154.117 198.987 154.039C199.654 153.706 200.32 153.372 200.987 153.039C201.971 150.111 202.304 147.111 201.987 144.039C200.02 144.278 198.186 143.945 196.487 143.039C196.004 143.987 195.838 144.987 195.987 146.039C193.24 146.352 190.573 146.019 187.987 145.039C186.043 143.738 184.043 142.738 181.987 142.039C192.898 133.307 203.398 123.974 213.487 114.039C214.278 112.794 214.778 111.461 214.987 110.039C216.022 108.334 216.022 106.667 214.987 105.039C217.471 103.645 217.471 102.145 214.987 100.539C216.512 96.314 217.512 91.981 217.987 87.539C215.869 86.194 213.869 85.694 211.987 86.039C213.478 85.295 214.978 84.629 216.487 84.039C216.979 82.99 216.813 81.99 215.987 81.039C216.512 80.3466 217.179 79.8466 217.987 79.539C214.629 77.7039 214.296 75.5372 216.987 73.039C216.462 72.3466 215.795 71.8466 214.987 71.539C215.32 71.2057 215.654 70.8723 215.987 70.539C214.864 69.4953 213.531 68.8286 211.987 68.539C213.397 68.1712 214.397 67.3379 214.987 66.039C210.972 64.0225 208.972 60.6892 208.987 56.039C206.575 56.295 204.908 55.295 203.987 53.039C203.626 50.432 204.126 48.0987 205.487 46.039C204.377 44.5022 202.877 43.8355 200.987 44.039C200.987 43.039 200.987 42.039 200.987 41.039C198.133 39.3774 195.133 37.8774 191.987 36.539C191.654 36.2057 191.32 35.8723 190.987 35.539C191.795 35.2314 192.462 34.7314 192.987 34.039C189.058 30.7466 184.724 28.4133 179.987 27.039C179.987 26.039 179.987 25.039 179.987 24.039C177.887 24.0618 176.054 23.3951 174.487 22.039C173.715 22.1838 173.048 22.5171 172.487 23.039C172.179 22.2309 171.679 21.5643 170.987 21.039C166.417 19.111 161.917 17.111 157.487 15.039C155.388 15.8255 153.221 16.1589 150.987 16.039C150.987 15.039 150.987 14.039 150.987 13.039C148.999 13.3661 146.999 13.6994 144.987 14.039C134.947 12.3238 124.777 11.3238 114.487 11.039C109.247 11.2568 104.077 11.9234 98.9874 13.039C96.4474 12.4237 93.9474 11.7571 91.4874 11.039C90.8674 11.9881 91.0374 12.8215 91.9874 13.539C91.4374 14.4636 90.7774 15.2969 89.9874 16.039C89.0374 14.4937 88.6974 12.827 88.9874 11.039C85.3474 11.8662 81.8474 13.1995 78.4874 15.039C75.7174 14.409 72.8774 14.7423 69.9874 16.039C69.2374 17.2752 68.9074 18.6085 68.9874 20.039Z" fill="#343433"/>
<path fill-rule="evenodd" clip-rule="evenodd" d="M68.9873 20.039C68.6573 20.039 68.3173 20.039 67.9873 20.039C59.3573 25.4971 52.1973 32.4971 46.4873 41.039C45.6573 46.072 45.8273 51.072 46.9873 56.039C47.7673 58.6148 49.2673 60.6148 51.4873 62.039C51.9673 62.987 52.1373 63.987 51.9873 65.039C58.0773 67.1432 64.4173 68.4765 70.9873 69.039C79.4073 67.6553 87.7373 65.822 95.9873 63.539C103.437 59.1756 108.937 53.0089 112.487 45.039C116.287 34.3241 113.447 26.1574 103.987 20.539C92.4273 16.1003 80.7673 15.9336 68.9873 20.039Z" fill="#4C4C4C"/>
<path fill-rule="evenodd" clip-rule="evenodd" d="M45.9874 67.039C32.1574 67.3662 25.1574 74.5328 24.9874 88.539C25.1574 99.376 30.4974 103.376 40.9874 100.539C42.9274 99.631 43.9274 98.131 43.9874 96.039C45.3074 96.209 46.4774 95.876 47.4874 95.039C53.7474 85.219 53.2474 75.886 45.9874 67.039Z" fill="#484847"/>
<path fill-rule="evenodd" clip-rule="evenodd" d="M181.987 142.039C184.043 142.738 186.043 143.738 187.987 145.039C190.573 146.019 193.24 146.352 195.987 146.039C195.838 144.987 196.004 143.987 196.487 143.039C198.186 143.945 200.02 144.278 201.987 144.039C202.304 147.111 201.971 150.111 200.987 153.039C200.32 153.372 199.654 153.706 198.987 154.039C194.008 154.117 189.008 154.117 183.987 154.039C180.235 155.628 176.402 156.962 172.487 158.039C169.552 156.74 166.718 157.074 163.987 159.039C158.654 159.372 153.32 159.706 147.987 160.039C142.241 160.013 136.737 159.346 131.487 158.039C130.647 159.163 129.477 159.83 127.987 160.039C122.437 158.857 117.097 157.19 111.987 155.039C111.307 155.782 110.637 156.448 109.987 157.039C111.947 158.031 113.947 159.031 115.987 160.039C136.847 161.327 157.844 161.327 178.987 160.039C181.908 159.058 184.908 158.224 187.987 157.539C198.796 157.328 209.462 156.161 219.987 154.039C221.867 158.463 223.033 163.13 223.487 168.039C225.577 170.755 227.077 173.755 227.987 177.039C229.641 180.205 232.308 181.872 235.987 182.039C237.68 168.792 236.847 155.792 233.487 143.039C231.223 139.723 228.223 137.723 224.487 137.039C217.132 138.006 209.965 139.506 202.987 141.539C195.995 142.039 188.995 142.205 181.987 142.039Z" fill="#2D2D2D"/>
<path fill-rule="evenodd" clip-rule="evenodd" d="M108.987 1.03905C88.3374 1.66475 69.3374 7.49805 51.9874 18.539C47.4874 21.8748 43.4874 25.7081 39.9874 30.039C40.9074 30.8419 41.9074 31.0086 42.9874 30.539C46.3474 27.842 49.6774 25.1753 52.9874 22.539C52.6574 22.2057 52.3174 21.8723 51.9874 21.539C54.7274 20.4626 57.3874 19.296 59.9874 18.039C64.4974 16.4509 68.8274 14.2842 72.9874 11.539C100.187 3.66155 127.857 1.99495 155.987 6.53905C163.138 8.41035 170.138 10.7436 176.987 13.539C181.089 16.0115 185.422 18.1782 189.987 20.039C192.296 22.5256 194.963 24.5256 197.987 26.039C202.624 31.681 207.29 37.3476 211.987 43.039C214.464 48.6651 216.964 54.3318 219.487 60.039C220.914 66.9865 222.748 73.8199 224.987 80.539C223.967 84.3013 223.967 88.135 224.987 92.039C224.82 93.372 224.654 94.706 224.487 96.039C221.545 100.945 218.378 105.611 214.987 110.039C214.778 111.461 214.278 112.794 213.487 114.039C203.398 123.974 192.898 133.307 181.987 142.039C188.995 142.205 195.995 142.039 202.987 141.539C209.965 139.506 217.132 138.006 224.487 137.039C228.223 137.723 231.223 139.723 233.487 143.039C236.847 155.792 237.68 168.792 235.987 182.039C232.308 181.872 229.641 180.205 227.987 177.039C230.294 185.23 230.627 193.563 228.987 202.039C225.961 202.376 223.961 204.043 222.987 207.039C228.063 209.148 231.896 207.815 234.487 203.039C240.639 185.792 242.306 168.125 239.487 150.039C238.189 144.103 235.356 139.103 230.987 135.039C230.248 117.366 229.414 99.7 228.487 82.039C221.683 35.0676 194.849 8.40095 147.987 2.03905C135.007 1.21175 122.007 0.878348 108.987 1.03905Z" fill="#161516"/>
<path fill-rule="evenodd" clip-rule="evenodd" d="M178.987 160.039C174.716 162.512 170.383 165.012 165.987 167.539C153.987 168.206 141.987 168.206 129.987 167.539C126.647 167.541 124.317 166.041 122.987 163.039C120.357 162.481 118.027 161.481 115.987 160.039C113.947 159.031 111.947 158.031 109.987 157.039C104.987 157.039 99.9874 157.039 94.9874 157.039C90.6174 159.093 85.9474 160.593 80.9874 161.539C71.7374 168.525 64.7374 177.359 59.9874 188.039C57.3174 191.039 54.6574 194.039 51.9874 197.039C47.2274 199.778 42.2274 202.112 36.9874 204.039C35.5574 205.127 34.5574 206.461 33.9874 208.039C35.9474 209.851 38.2774 210.851 40.9874 211.039C40.9874 212.039 40.9874 213.039 40.9874 214.039C35.0474 215.76 29.5474 218.426 24.4874 222.039C17.3974 242.213 10.8974 262.546 4.98737 283.039C8.43737 283.632 11.7674 284.632 14.9874 286.039C16.5874 285.6 18.0874 284.933 19.4874 284.039C24.3374 284.987 29.1774 285.987 33.9874 287.039C36.0174 287.201 38.0174 287.034 39.9874 286.539C46.9574 274.723 57.2874 268.556 70.9874 268.039C71.2274 272.261 70.8874 276.428 69.9874 280.539C62.7974 290.063 55.4574 299.563 47.9874 309.039C47.3174 309.372 46.6574 309.706 45.9874 310.039C39.9374 303.666 36.7774 296.333 36.4874 288.039C35.4774 288.595 34.6474 289.261 33.9874 290.039C33.9974 300.399 38.1574 309.066 46.4874 316.039C48.7374 322.733 52.5774 328.233 57.9874 332.539C51.7474 350.253 44.9174 367.753 37.4874 385.039C34.7074 392.495 33.7074 400.162 34.4874 408.039C35.4874 412.219 37.9874 415.053 41.9874 416.539C61.3174 417.206 80.6574 417.206 99.9874 416.539C101.807 414.739 102.967 412.573 103.487 410.039C105.037 404.13 105.867 398.13 105.987 392.039C106.017 391.042 105.517 390.375 104.487 390.039C103.147 391.045 101.817 392.045 100.487 393.039C100.067 398.589 98.8974 403.923 96.9874 409.039C95.3474 409.019 94.0074 409.686 92.9874 411.039C79.8174 410.831 66.4874 410.831 52.9874 411.039C50.6374 410.479 48.2974 409.812 45.9874 409.039C44.7574 407.949 43.9274 406.615 43.4874 405.039C41.6074 404.486 40.1074 403.486 38.9874 402.039C40.3674 389.288 44.0374 377.288 49.9874 366.039C51.4174 363.231 52.0874 360.231 51.9874 357.039C62.3574 363.264 73.6874 365.764 85.9874 364.539C87.8074 363.542 89.4774 362.375 90.9874 361.039C90.9874 360.372 91.3174 360.039 91.9874 360.039C93.1774 357.583 94.5074 355.25 95.9874 353.039C103.947 357.45 106.947 364.283 104.987 373.539C104.927 377.736 104.587 381.903 103.987 386.039C104.357 387.714 105.357 388.714 106.987 389.039C109.147 371.441 110.477 353.774 110.987 336.039C114.057 336.412 117.057 337.078 119.987 338.039C120.827 358.786 122.657 379.453 125.487 400.039C126.187 405.222 127.527 410.222 129.487 415.039C130.237 415.665 131.067 416.165 131.987 416.539C151.32 417.206 170.654 417.206 189.987 416.539C193.652 414.871 195.819 412.038 196.487 408.039C197.228 397.992 195.561 388.325 191.487 379.039C185.658 365.73 180.158 352.397 174.987 339.039C175.32 338.372 175.654 337.706 175.987 337.039C179.595 338.132 183.262 338.299 186.987 337.539C191.234 333.797 194.901 329.631 197.987 325.039C197.459 323.818 196.792 322.652 195.987 321.539C196.832 319.981 196.166 318.981 193.987 318.539C188.03 315.467 181.697 314.134 174.987 314.539C165.401 323.668 155.401 332.335 144.987 340.539C144.32 340.706 143.654 340.872 142.987 341.039C139.505 339.366 136.167 337.699 132.987 336.039C132.657 336.039 132.317 336.039 131.987 336.039C123.307 335.697 115.307 333.364 107.987 329.039C108.007 324.717 109.677 321.217 112.987 318.539C122.337 311.843 131.677 305.176 140.987 298.539C138.817 296.816 136.487 296.649 133.987 298.039C130.867 297.674 127.867 296.841 124.987 295.539C122.347 290.969 119.347 286.635 115.987 282.539C112.507 281.774 109.507 280.274 106.987 278.039C103.267 274.844 98.9274 272.677 93.9874 271.539C92.9174 270.8 92.2474 269.8 91.9874 268.539C94.4274 259.891 97.2574 251.391 100.487 243.039C101.887 241.791 103.387 240.791 104.987 240.039C115.357 241.798 125.357 244.798 134.987 249.039C135.757 249.802 136.257 250.802 136.487 252.039C138.137 252.938 139.639 253.938 140.987 255.039C150.437 257.633 159.77 260.633 168.987 264.039C171.359 263.436 173.526 262.436 175.487 261.039C196.504 268.545 217.671 275.545 238.987 282.039C240.073 282.159 240.74 282.826 240.987 284.039C237.097 298.144 232.93 312.144 228.487 326.039C219.816 326.627 211.483 324.96 203.487 321.039C201.807 322.142 200.307 321.809 198.987 320.039C198.654 320.206 198.32 320.372 197.987 320.539C198.709 322.29 199.709 323.79 200.987 325.039C210.453 327.639 219.786 330.639 228.987 334.039C232.137 325.91 235.137 317.744 237.987 309.539C244.373 310.551 250.706 312.051 256.987 314.039C258.625 308.31 260.125 302.644 261.487 297.039C256.18 294.658 250.68 292.992 244.987 292.039C244.681 288.341 245.348 284.841 246.987 281.539C246.842 280.767 246.509 280.1 245.987 279.539C240.32 277.872 234.654 276.206 228.987 274.539C228.32 273.206 227.654 271.872 226.987 270.539C214.713 266.386 202.379 262.386 189.987 258.539C188.307 258.192 187.307 257.192 186.987 255.539C190.026 245.257 193.359 235.09 196.987 225.039C207.052 220.96 215.719 214.96 222.987 207.039C223.961 204.043 225.961 202.376 228.987 202.039C230.627 193.563 230.294 185.23 227.987 177.039C227.077 173.755 225.577 170.755 223.487 168.039C223.033 163.13 221.867 158.463 219.987 154.039C209.462 156.161 198.796 157.328 187.987 157.539C184.908 158.224 181.908 159.058 178.987 160.039Z" fill="#0E0E0E"/>
<path fill-rule="evenodd" clip-rule="evenodd" d="M178.987 160.039C157.844 161.327 136.847 161.327 115.987 160.039C118.027 161.481 120.357 162.481 122.987 163.039C124.317 166.041 126.647 167.541 129.987 167.539C141.987 168.206 153.987 168.206 165.987 167.539C170.383 165.012 174.716 162.512 178.987 160.039Z" fill="#1B1B1B"/>
<path fill-rule="evenodd" clip-rule="evenodd" d="M91.9874 162.039C91.8774 162.656 91.5474 163.156 90.9874 163.539C96.7974 168.448 103.467 170.448 110.987 169.539C111.447 169.125 111.777 168.625 111.987 168.039C109.637 166.351 107.637 164.351 105.987 162.039C101.477 160.942 96.8074 160.942 91.9874 162.039Z" fill="#434341"/>
<path fill-rule="evenodd" clip-rule="evenodd" d="M82.9874 166.039C79.4474 167.46 76.7774 169.794 74.9874 173.039C74.8974 174.035 75.2374 174.868 75.9874 175.539C81.3974 177.288 86.7274 178.954 91.9874 180.539C92.8174 178.372 94.3174 176.872 96.4874 176.039C97.0774 174.64 96.9174 173.307 95.9874 172.039C91.3374 170.395 87.0074 168.395 82.9874 166.039Z" fill="#464544"/>
<path fill-rule="evenodd" clip-rule="evenodd" d="M201.987 171.039C201.987 171.372 201.987 171.706 201.987 172.039C206.566 172.009 210.566 173.343 213.987 176.039C214.32 176.039 214.654 176.039 214.987 176.039C214.913 174.128 213.913 172.961 211.987 172.539C208.73 171.496 205.397 170.996 201.987 171.039Z" fill="#5A1311"/>
<path fill-rule="evenodd" clip-rule="evenodd" d="M163.987 172.039C153.293 171.83 142.627 172.164 131.987 173.039C134.867 180.735 135.697 188.735 134.487 197.039C132.847 200.281 131.847 203.615 131.487 207.039C132.547 206.442 133.717 206.109 134.987 206.039C144.767 208.245 154.6 208.579 164.487 207.039C162.201 200.819 160.701 194.319 159.987 187.539C159.849 181.922 161.182 176.755 163.987 172.039Z" fill="#2F2F2E"/>
<path fill-rule="evenodd" clip-rule="evenodd" d="M187.987 186.039C186.787 189.508 186.787 192.841 187.987 196.039C190.591 197.069 193.258 197.069 195.987 196.039C195.987 195.039 195.987 194.039 195.987 193.039C201.511 192.616 206.845 191.616 211.987 190.039C211.992 187.007 212.325 184.007 212.987 181.039C212.654 180.039 212.32 179.039 211.987 178.039C210.696 176.442 209.196 175.109 207.487 174.039C206.487 174.706 205.487 175.372 204.487 176.039C202.367 175.08 200.2 174.913 197.987 175.539C196.904 177.595 195.237 178.928 192.987 179.539C194.639 184.067 192.973 186.234 187.987 186.039Z" fill="#E20104"/>
<path fill-rule="evenodd" clip-rule="evenodd" d="M166.987 201.039C170.39 202.224 173.39 201.391 175.987 198.539C177.271 197.855 178.438 198.022 179.487 199.039C182.046 194.769 183.546 195.103 183.987 200.039C185.703 199.91 187.37 199.577 188.987 199.039C188.377 198.148 188.044 197.148 187.987 196.039C186.787 192.841 186.787 189.508 187.987 186.039C189.279 178.081 193.945 173.414 201.987 172.039C201.987 171.706 201.987 171.372 201.987 171.039C204.852 169.756 207.852 169.756 210.987 171.039C211.679 170.514 212.179 169.847 212.487 169.039C214.186 169.945 216.02 170.278 217.987 170.039C209.536 162.369 199.536 159.536 187.987 161.539C166.602 167.145 159.602 180.312 166.987 201.039Z" fill="#353433"/>
<path fill-rule="evenodd" clip-rule="evenodd" d="M105.987 162.039C107.637 164.351 109.637 166.351 111.987 168.039C111.777 168.625 111.447 169.125 110.987 169.539C103.467 170.448 96.7974 168.448 90.9874 163.539C91.5474 163.156 91.8774 162.656 91.9874 162.039C88.5374 162.622 85.5374 163.955 82.9874 166.039C87.0074 168.395 91.3374 170.395 95.9874 172.039C96.9174 173.307 97.0774 174.64 96.4874 176.039C94.3174 176.872 92.8174 178.372 91.9874 180.539C86.7274 178.954 81.3974 177.288 75.9874 175.539C75.2374 174.868 74.8974 174.035 74.9874 173.039C69.1074 180.12 67.6074 188.12 70.4874 197.039C70.9674 198.672 71.7974 200.005 72.9874 201.039C79.0774 199.174 85.4074 198.508 91.9874 199.039C90.8474 194.891 90.8474 190.891 91.9874 187.039C93.0674 182.551 95.3974 178.884 98.9874 176.039C104.217 171.51 109.887 170.844 115.987 174.039C117.547 174.272 118.887 174.939 119.987 176.039C119.787 174.495 119.117 173.161 117.987 172.039C118.487 171.706 118.987 171.372 119.487 171.039C122.417 172.871 124.917 175.204 126.987 178.039C127.877 177.214 128.207 176.214 127.987 175.039C122.827 167.124 115.497 162.79 105.987 162.039Z" fill="#322F2E"/>
<path fill-rule="evenodd" clip-rule="evenodd" d="M98.9874 176.039C98.9274 177.148 98.5974 178.148 97.9874 179.039C98.7874 181.146 99.4574 183.313 99.9874 185.539C99.1774 187.614 97.8474 189.281 95.9874 190.539C97.4174 196.421 99.7474 197.087 102.987 192.539C106.697 192.364 110.367 191.864 113.987 191.039C116.477 187.733 118.137 184.066 118.987 180.039C117.517 178.323 116.517 176.323 115.987 174.039C109.887 170.844 104.217 171.51 98.9874 176.039Z" fill="#E00205"/>
<path fill-rule="evenodd" clip-rule="evenodd" d="M98.9874 176.039C95.3974 178.884 93.0674 182.551 91.9874 187.039C91.5574 190.416 92.2174 193.416 93.9874 196.039C93.9874 192.706 93.9874 189.372 93.9874 186.039C95.3074 185.869 96.4774 186.202 97.4874 187.039C98.0174 184.954 97.5174 183.121 95.9874 181.539C96.1274 180.238 96.7974 179.405 97.9874 179.039C98.5974 178.148 98.9274 177.148 98.9874 176.039Z" fill="#95050A"/>
<path fill-rule="evenodd" clip-rule="evenodd" d="M201.987 172.039C193.945 173.414 189.279 178.081 187.987 186.039C192.973 186.234 194.639 184.067 192.987 179.539C195.237 178.928 196.904 177.595 197.987 175.539C200.2 174.913 202.367 175.08 204.487 176.039C205.487 175.372 206.487 174.706 207.487 174.039C209.196 175.109 210.696 176.442 211.987 178.039C212.32 179.039 212.654 180.039 212.987 181.039C212.325 184.007 211.992 187.007 211.987 190.039C206.845 191.616 201.511 192.616 195.987 193.039C195.987 194.039 195.987 195.039 195.987 196.039C193.258 197.069 190.591 197.069 187.987 196.039C188.044 197.148 188.377 198.148 188.987 199.039C191.241 199.663 192.908 200.996 193.987 203.039C195.32 203.372 196.654 203.706 197.987 204.039C200.908 204.393 203.241 203.393 204.987 201.039C206.081 202.407 205.747 203.574 203.987 204.539C205.32 205.206 206.654 205.206 207.987 204.539C209.32 203.206 210.654 201.872 211.987 200.539C208.297 200.115 208.13 199.281 211.487 198.039C211.82 198.372 212.154 198.706 212.487 199.039C212.798 196.983 213.298 194.983 213.987 193.039C213.778 192.453 213.444 191.953 212.987 191.539C214.392 189.562 215.392 187.396 215.987 185.039C214.939 183.129 214.939 181.295 215.987 179.539C214.514 178.829 213.847 177.663 213.987 176.039C210.566 173.343 206.566 172.009 201.987 172.039Z" fill="#B60204"/>
<path fill-rule="evenodd" clip-rule="evenodd" d="M123.987 181.039C125.247 184.662 125.247 188.329 123.987 192.039C117.857 193.433 114.857 197.267 114.987 203.539C111.847 203.65 108.847 203.817 105.987 204.039C102.897 202.706 99.8974 201.373 96.9874 200.039C96.8974 201.035 97.2374 201.868 97.9874 202.539C106.297 207.646 113.957 206.98 120.987 200.539C121.937 200.056 122.937 199.89 123.987 200.039C125.597 196.268 126.597 192.268 126.987 188.039C126.857 186.164 126.527 184.331 125.987 182.539C125.647 181.509 124.987 181.009 123.987 181.039Z" fill="#9A0809"/>
<path fill-rule="evenodd" clip-rule="evenodd" d="M214.987 176.039C214.654 176.039 214.32 176.039 213.987 176.039C213.847 177.663 214.514 178.829 215.987 179.539C214.939 181.295 214.939 183.129 215.987 185.039C215.392 187.396 214.392 189.562 212.987 191.539C213.444 191.953 213.778 192.453 213.987 193.039C213.298 194.983 212.798 196.983 212.487 199.039C212.154 198.706 211.82 198.372 211.487 198.039C208.13 199.281 208.297 200.115 211.987 200.539C210.654 201.872 209.32 203.206 207.987 204.539C206.654 205.206 205.32 205.206 203.987 204.539C205.747 203.574 206.081 202.407 204.987 201.039C203.241 203.393 200.908 204.393 197.987 204.039C201.681 205.951 205.681 206.451 209.987 205.539C213.452 203.076 216.618 200.243 219.487 197.039C222.605 188.894 221.105 181.894 214.987 176.039Z" fill="#A10705"/>
<path fill-rule="evenodd" clip-rule="evenodd" d="M97.9874 179.039C96.7974 179.405 96.1274 180.238 95.9874 181.539C97.5174 183.121 98.0174 184.954 97.4874 187.039C96.4774 186.202 95.3074 185.869 93.9874 186.039C93.9874 189.372 93.9874 192.706 93.9874 196.039C94.6574 196.039 94.9874 196.372 94.9874 197.039C97.9274 197.945 100.927 198.611 103.987 199.039C103.777 197.395 104.107 195.895 104.987 194.539C109.007 194.394 112.847 193.56 116.487 192.039C118.027 188.717 119.197 185.217 119.987 181.539C119.917 180.774 119.587 180.274 118.987 180.039C118.137 184.066 116.477 187.733 113.987 191.039C110.367 191.864 106.697 192.364 102.987 192.539C99.7474 197.087 97.4174 196.421 95.9874 190.539C97.8474 189.281 99.1774 187.614 99.9874 185.539C99.4574 183.313 98.7874 181.146 97.9874 179.039Z" fill="#C70204"/>
<path fill-rule="evenodd" clip-rule="evenodd" d="M201.987 171.039C205.397 170.996 208.73 171.496 211.987 172.539C213.913 172.961 214.913 174.128 214.987 176.039C221.105 181.894 222.605 188.894 219.487 197.039C216.618 200.243 213.452 203.076 209.987 205.539C205.681 206.451 201.681 205.951 197.987 204.039C196.654 203.706 195.32 203.372 193.987 203.039C194.835 204.632 196.168 205.799 197.987 206.539C196.32 206.872 194.654 207.206 192.987 207.539C197.972 207.32 202.972 207.32 207.987 207.539C206.549 207.758 205.216 208.258 203.987 209.039C204.487 209.372 204.987 209.706 205.487 210.039C209.508 208.452 213.674 207.452 217.987 207.039C226.513 197.476 228.013 186.81 222.487 175.039C221.438 172.921 219.938 171.255 217.987 170.039C216.02 170.278 214.186 169.945 212.487 169.039C212.179 169.847 211.679 170.514 210.987 171.039C207.852 169.756 204.852 169.756 201.987 171.039Z" fill="#251B1C"/>
<path fill-rule="evenodd" clip-rule="evenodd" d="M115.987 174.039C116.517 176.323 117.517 178.323 118.987 180.039C119.587 180.274 119.917 180.774 119.987 181.539C119.197 185.217 118.027 188.717 116.487 192.039C112.847 193.56 109.007 194.394 104.987 194.539C104.107 195.895 103.777 197.395 103.987 199.039C100.927 198.611 97.9274 197.945 94.9874 197.039C94.7774 198.718 95.4374 199.718 96.9874 200.039C99.8974 201.373 102.897 202.706 105.987 204.039C108.847 203.817 111.847 203.65 114.987 203.539C114.857 197.267 117.857 193.433 123.987 192.039C125.247 188.329 125.247 184.662 123.987 181.039C124.117 178.172 122.787 176.506 119.987 176.039C118.887 174.939 117.547 174.272 115.987 174.039Z" fill="#AD0204"/>
<path fill-rule="evenodd" clip-rule="evenodd" d="M35.9874 34.039C21.9574 55.1403 14.4574 78.4737 13.4874 104.039C13.1574 113.706 12.8174 123.372 12.4874 133.039C8.51737 137.308 5.84737 142.308 4.48737 148.039C0.507366 163.81 -0.822634 179.81 0.487366 196.039C1.09737 199.087 2.59737 201.587 4.98737 203.539C14.4474 206.398 24.1174 207.898 33.9874 208.039C34.5574 206.461 35.5574 205.127 36.9874 204.039C42.2274 202.112 47.2274 199.778 51.9874 197.039C54.6574 194.039 57.3174 191.039 59.9874 188.039C64.7374 177.359 71.7374 168.525 80.9874 161.539C85.9474 160.593 90.6174 159.093 94.9874 157.039C86.9974 157.984 78.9974 158.151 70.9874 157.539C69.7174 162.648 66.7174 166.481 61.9874 169.039C60.0774 173.874 57.4074 178.208 53.9874 182.039C49.8474 184.348 46.5074 187.515 43.9874 191.539C32.3474 198.95 19.6774 201.95 5.98737 200.539C5.35737 199.789 4.85737 198.955 4.48737 198.039C3.11737 179.744 4.78737 161.744 9.48737 144.039C11.9174 136.346 17.0774 133.846 24.9874 136.539C34.4874 138.995 44.1474 140.329 53.9874 140.539C63.6574 140.918 73.3274 141.418 82.9874 142.039C85.3174 141.706 87.6574 141.372 89.9874 141.039C68.2974 133.193 47.6274 123.193 27.9874 111.039C25.4274 108.405 22.7574 105.905 19.9874 103.539C18.8774 96.744 18.7074 89.91 19.4874 83.039C23.0874 73.5755 26.2574 63.9088 28.9874 54.039C30.5974 50.2782 32.7674 46.9448 35.4874 44.039C36.3674 40.609 37.5374 37.2757 38.9874 34.039C38.2574 33.452 37.2574 33.452 35.9874 34.039Z" fill="#181818"/>
<path fill-rule="evenodd" clip-rule="evenodd" d="M119.987 176.039C122.787 176.506 124.117 178.172 123.987 181.039C124.987 181.009 125.647 181.509 125.987 182.539C126.527 184.331 126.857 186.164 126.987 188.039C126.597 192.268 125.597 196.268 123.987 200.039C122.937 199.89 121.937 200.056 120.987 200.539C113.957 206.98 106.297 207.646 97.9874 202.539C97.2374 201.868 96.8974 201.035 96.9874 200.039C95.4374 199.718 94.7774 198.718 94.9874 197.039C94.9874 196.372 94.6574 196.039 93.9874 196.039C92.2174 193.416 91.5574 190.416 91.9874 187.039C90.8474 190.891 90.8474 194.891 91.9874 199.039C85.4074 198.508 79.0774 199.174 72.9874 201.039C82.7874 214.252 95.7873 218.752 111.987 214.539C125.407 208.786 131.907 198.62 131.487 184.039C131.367 180.497 130.197 177.497 127.987 175.039C128.207 176.214 127.877 177.214 126.987 178.039C124.917 175.204 122.417 172.871 119.487 171.039C118.987 171.372 118.487 171.706 117.987 172.039C119.117 173.161 119.787 174.495 119.987 176.039Z" fill="#232021"/>
<path fill-rule="evenodd" clip-rule="evenodd" d="M166.987 201.039C180.788 217.396 197.121 220.229 215.987 209.539C216.868 208.831 217.534 207.997 217.987 207.039C213.674 207.452 209.508 208.452 205.487 210.039C204.987 209.706 204.487 209.372 203.987 209.039C205.216 208.258 206.549 207.758 207.987 207.539C202.972 207.32 197.972 207.32 192.987 207.539C194.654 207.206 196.32 206.872 197.987 206.539C196.168 205.799 194.835 204.632 193.987 203.039C192.908 200.996 191.241 199.663 188.987 199.039C187.37 199.577 185.703 199.91 183.987 200.039C183.546 195.103 182.046 194.769 179.487 199.039C178.438 198.022 177.271 197.855 175.987 198.539C173.39 201.391 170.39 202.224 166.987 201.039Z" fill="#242323"/>
<path fill-rule="evenodd" clip-rule="evenodd" d="M135.987 213.039C137.217 213.691 137.877 214.858 137.987 216.539C136.047 221.589 134.547 226.755 133.487 232.039C132.897 234.558 131.737 236.558 129.987 238.039C131.747 239 133.747 239.334 135.987 239.039C138.527 231.201 141.531 223.535 144.987 216.039C143.245 214.582 141.245 213.415 138.987 212.539C137.737 211.799 136.737 211.966 135.987 213.039Z" fill="#494948"/>
<path fill-rule="evenodd" clip-rule="evenodd" d="M16.9873 262.039C16.6673 265.233 17.8273 266.233 20.4873 265.039C20.8173 262.706 21.1573 260.372 21.4873 258.039C21.8173 258.706 22.1573 259.372 22.4873 260.039C24.7673 249.349 27.5973 240.016 30.9873 232.039C35.5473 226.156 41.5473 223.489 48.9873 224.039C51.7073 222.843 52.8773 220.843 52.4873 218.039C48.0773 215.722 43.5773 215.555 38.9873 217.539C35.2373 219.832 31.3973 221.999 27.4873 224.039C26.9873 225.574 27.1573 227.074 27.9873 228.539C23.0773 239.287 19.4073 250.454 16.9873 262.039Z" fill="#535352"/>
<path fill-rule="evenodd" clip-rule="evenodd" d="M144.987 216.039C141.531 223.535 138.527 231.201 135.987 239.039C136.047 239.582 136.377 239.915 136.987 240.039C137.657 239.039 138.317 238.039 138.987 237.039C140.558 237.848 142.225 238.182 143.987 238.039C143.466 233.82 144.633 230.153 147.487 227.039C149.987 225.206 152.487 223.372 154.987 221.539C151.113 220.441 147.78 218.607 144.987 216.039Z" fill="#333333"/>
<path fill-rule="evenodd" clip-rule="evenodd" d="M178.987 253.039C178.278 252.135 177.278 251.802 175.987 252.039C178.748 243.906 180.748 235.572 181.987 227.039C177.503 227.779 173.17 227.779 168.987 227.039C171.333 228.776 172.333 231.109 171.987 234.039C171.284 238.495 170.451 242.829 169.487 247.039C172.347 249.773 175.514 251.773 178.987 253.039Z" fill="#353535"/>
<path fill-rule="evenodd" clip-rule="evenodd" d="M161.987 227.039C151.383 225.814 147.217 230.48 149.487 241.039C155.565 247.616 161.565 247.616 167.487 241.039C169.462 234.716 167.629 230.049 161.987 227.039Z" fill="#6C6C6A"/>
<path fill-rule="evenodd" clip-rule="evenodd" d="M135.987 213.039C133.757 219.226 131.587 225.56 129.487 232.039C128.697 234.251 128.867 236.251 129.987 238.039C131.737 236.558 132.897 234.558 133.487 232.039C134.547 226.755 136.047 221.589 137.987 216.539C137.877 214.858 137.217 213.691 135.987 213.039Z" fill="#7D7D7D"/>
<path fill-rule="evenodd" clip-rule="evenodd" d="M77.9873 228.039C76.9873 227.953 76.1573 228.287 75.4873 229.039C74.0873 233.994 72.0873 238.661 69.4873 243.039C68.9773 248.44 68.1473 253.773 66.9873 259.039C62.0473 259.331 57.0473 259.497 51.9873 259.539C48.4673 262.333 48.1273 265.499 50.9873 269.039C56.6673 266.201 62.6673 264.534 68.9873 264.039C69.0973 261.756 69.9273 259.756 71.4873 258.039C74.8973 254.001 78.8973 250.668 83.4873 248.039C86.5673 244.569 87.8973 240.569 87.4873 236.039C84.7173 232.759 81.5473 230.093 77.9873 228.039Z" fill="#2B2B2B"/>
<path fill-rule="evenodd" clip-rule="evenodd" d="M160.987 230.039C159.987 230.039 158.987 230.039 157.987 230.039C157.987 231.372 157.987 232.706 157.987 234.039C156.199 233.754 154.532 234.087 152.987 235.039C153.812 235.925 154.812 236.258 155.987 236.039C155.679 238.463 156.013 240.796 156.987 243.039C157.32 239.372 159.32 237.372 162.987 237.039C159.449 235.894 159.115 234.061 161.987 231.539C161.431 231.156 161.098 230.656 160.987 230.039Z" fill="#2D2E2C"/>
<path fill-rule="evenodd" clip-rule="evenodd" d="M125.987 225.039C117.787 224.783 109.627 225.116 101.487 226.039C100.657 226.372 99.8174 226.706 98.9874 227.039C99.7374 229.292 101.077 231.126 102.987 232.539C101.707 233.223 100.537 233.056 99.4874 232.039C98.4474 229.793 97.2774 227.626 95.9874 225.539C92.3374 225.04 88.6674 224.874 84.9874 225.039C86.1274 228.372 87.9574 231.372 90.4874 234.039C92.1574 244.031 95.8274 244.698 101.487 236.039C103.347 233.364 104.347 230.364 104.487 227.039C105.297 228.975 105.797 230.975 105.987 233.039C112.217 233.188 118.217 234.188 123.987 236.039C124.817 232.403 125.477 228.736 125.987 225.039Z" fill="#272727"/>
<path fill-rule="evenodd" clip-rule="evenodd" d="M70.9874 218.039C68.6274 218.213 66.2974 218.546 63.9874 219.039C64.4774 221.345 64.8174 223.678 64.9874 226.039C61.3074 225.874 57.6374 226.04 53.9874 226.539C52.1874 227.511 50.5174 228.678 48.9874 230.039C52.5074 231.525 56.1674 232.692 59.9874 233.539C61.0874 235.94 61.2574 238.44 60.4874 241.039C52.9974 239.666 45.4974 239.833 37.9874 241.539C36.4774 242.978 36.1374 244.478 36.9874 246.039C42.1474 243.465 47.6474 242.131 53.4874 242.039C57.5674 243.159 61.7374 243.826 65.9874 244.039C67.5274 238.622 69.3574 233.288 71.4874 228.039C72.2374 224.615 72.0674 221.282 70.9874 218.039Z" fill="#272828"/>
<path fill-rule="evenodd" clip-rule="evenodd" d="M48.9874 224.039C41.5474 223.489 35.5474 226.156 30.9874 232.039C27.5974 240.016 24.7674 249.349 22.4874 260.039C22.1574 259.372 21.8174 258.706 21.4874 258.039C21.1574 260.372 20.8174 262.706 20.4874 265.039C17.8274 266.233 16.6674 265.233 16.9874 262.039C14.6574 267.302 12.3274 272.635 9.98737 278.039C11.1374 279.258 12.1374 280.591 12.9874 282.039C20.7374 273.537 25.5674 263.537 27.4874 252.039C32.0074 240.651 39.1774 231.317 48.9874 224.039Z" fill="#434341"/>
<path fill-rule="evenodd" clip-rule="evenodd" d="M104.987 240.039C106.057 241.823 107.727 242.99 109.987 243.539C116.107 245.19 122.107 247.024 127.987 249.039C130.317 248.786 132.317 249.453 133.987 251.039C134.787 250.582 135.117 249.915 134.987 249.039C125.357 244.798 115.357 241.798 104.987 240.039Z" fill="#A5A6A5"/>
<path fill-rule="evenodd" clip-rule="evenodd" d="M181.987 227.039C180.748 235.572 178.748 243.906 175.987 252.039C177.278 251.802 178.278 252.135 178.987 253.039C180.529 253.84 182.195 254.173 183.987 254.039C185.504 245.82 187.837 237.82 190.987 230.039C188.449 227.98 185.449 226.98 181.987 227.039Z" fill="#717172"/>
<path fill-rule="evenodd" clip-rule="evenodd" d="M55.9874 246.039C44.5874 244.987 36.0874 249.32 30.4874 259.039C29.6774 261.441 29.8374 263.774 30.9874 266.039C34.5074 262.685 38.1774 259.519 41.9874 256.539C49.2474 255.191 56.5774 254.691 63.9874 255.039C64.2974 252.615 63.9574 250.282 62.9874 248.039C60.5074 247.472 58.1674 246.805 55.9874 246.039Z" fill="#292929"/>
<path fill-rule="evenodd" clip-rule="evenodd" d="M146.987 245.039C145.991 244.953 145.158 245.287 144.487 246.039C143.992 248.012 143.825 250.012 143.987 252.039C146.654 252.372 149.32 252.706 151.987 253.039C152.144 251.666 151.977 250.332 151.487 249.039C149.495 248.211 147.995 246.878 146.987 245.039Z" fill="#686868"/>
<path fill-rule="evenodd" clip-rule="evenodd" d="M93.9873 246.039C90.0573 247.549 88.3873 250.549 88.9873 255.039C89.9873 255.039 90.9873 255.039 91.9873 255.039C93.4073 252.278 94.0773 249.278 93.9873 246.039Z" fill="#333333"/>
<path fill-rule="evenodd" clip-rule="evenodd" d="M163.987 250.039C161.281 250.114 158.614 250.447 155.987 251.039C155.773 252.683 156.107 254.183 156.987 255.539C159.3 256.201 161.633 256.701 163.987 257.039C163.987 254.706 163.987 252.372 163.987 250.039Z" fill="#696969"/>
<path fill-rule="evenodd" clip-rule="evenodd" d="M169.987 253.039C167.499 255.112 167.499 257.446 169.987 260.039C171.201 257.68 171.201 255.347 169.987 253.039Z" fill="#464646"/>
<path fill-rule="evenodd" clip-rule="evenodd" d="M104.987 240.039C103.387 240.791 101.887 241.791 100.487 243.039C97.2574 251.391 94.4274 259.891 91.9874 268.539C92.2474 269.8 92.9174 270.8 93.9874 271.539C98.9274 272.677 103.267 274.844 106.987 278.039C112.447 278.647 117.447 280.314 121.987 283.039C121.987 282.039 121.987 281.039 121.987 280.039C120.137 280.317 118.807 279.65 117.987 278.039C121.817 276.951 125.477 275.618 128.987 274.039C130.437 269.894 131.437 265.561 131.987 261.039C132.537 257.986 131.367 255.986 128.487 255.039C127.987 253.066 127.827 251.066 127.987 249.039C122.107 247.024 116.107 245.19 109.987 243.539C107.727 242.99 106.057 241.823 104.987 240.039Z" fill="#454645"/>
<path fill-rule="evenodd" clip-rule="evenodd" d="M140.987 255.039C139.614 254.882 138.277 255.049 136.987 255.539C145.897 259.182 154.897 262.849 163.987 266.539C165.96 267.034 167.96 267.201 169.987 267.039C173.91 263.146 177.91 263.146 181.987 267.039C186.082 267.347 190.082 268.18 193.987 269.539C206.766 273.515 219.433 277.681 231.987 282.039C234.492 282.956 236.825 282.956 238.987 282.039C217.671 275.545 196.504 268.545 175.487 261.039C173.526 262.436 171.359 263.436 168.987 264.039C159.77 260.633 150.437 257.633 140.987 255.039Z" fill="#A1A1A0"/>
<path fill-rule="evenodd" clip-rule="evenodd" d="M82.9874 254.039C80.3274 256.523 77.4974 258.856 74.4874 261.039C74.0074 261.987 73.8374 262.987 73.9874 264.039C80.6174 264.181 83.6174 260.847 82.9874 254.039Z" fill="#515151"/>
<path fill-rule="evenodd" clip-rule="evenodd" d="M169.987 267.039C168.118 273.618 170.618 277.618 177.487 279.039C182.829 276.525 184.329 272.525 181.987 267.039C177.91 263.146 173.91 263.146 169.987 267.039Z" fill="#393937"/>
<path fill-rule="evenodd" clip-rule="evenodd" d="M33.9874 287.039C33.9874 288.039 33.9874 289.039 33.9874 290.039C34.6474 289.261 35.4774 288.595 36.4874 288.039C36.7774 296.333 39.9374 303.666 45.9874 310.039C46.6574 309.706 47.3174 309.372 47.9874 309.039C55.4574 299.563 62.7974 290.063 69.9874 280.539C70.8874 276.428 71.2274 272.261 70.9874 268.039C57.2874 268.556 46.9574 274.723 39.9874 286.539C38.0174 287.034 36.0174 287.201 33.9874 287.039Z" fill="#2C2C2C"/>
<path fill-rule="evenodd" clip-rule="evenodd" d="M134.987 249.039C135.117 249.915 134.787 250.582 133.987 251.039C132.317 249.453 130.317 248.786 127.987 249.039C127.827 251.066 127.987 253.066 128.487 255.039C131.367 255.986 132.537 257.986 131.987 261.039C131.437 265.561 130.437 269.894 128.987 274.039C125.477 275.618 121.817 276.951 117.987 278.039C118.807 279.65 120.137 280.317 121.987 280.039C121.987 281.039 121.987 282.039 121.987 283.039C121.957 284.036 122.457 284.703 123.487 285.039C126.407 283.784 129.077 282.117 131.487 280.039C134.867 282.144 136.707 285.144 136.987 289.039C136.447 292.227 135.447 295.227 133.987 298.039C136.487 296.649 138.817 296.816 140.987 298.539C131.677 305.176 122.337 311.843 112.987 318.539C109.677 321.217 108.007 324.717 107.987 329.039C108.987 329.125 109.817 328.791 110.487 328.039C112.497 318.113 117.497 316.446 125.487 323.039C125.547 326.687 125.387 330.354 124.987 334.039C127.557 334.26 129.887 334.927 131.987 336.039C132.317 336.039 132.657 336.039 132.987 336.039C136.957 337.022 140.795 337.356 144.487 337.039C154.722 327.515 165.222 318.348 175.987 309.539C180.539 308.425 184.539 309.425 187.987 312.539C196.529 313.911 204.695 316.411 212.487 320.039C212.757 317.315 213.257 314.648 213.987 312.039C213.244 311.357 212.578 310.69 211.987 310.039C210.882 304.43 212.049 299.097 215.487 294.039C215.982 292.066 216.149 290.066 215.987 288.039C217.586 287.771 218.919 288.105 219.987 289.039C220.987 289.039 221.987 289.039 222.987 289.039C222.519 285.639 223.852 283.306 226.987 282.039C227.679 282.564 228.179 283.231 228.487 284.039C229.197 282.566 230.363 281.899 231.987 282.039C219.433 277.681 206.766 273.515 193.987 269.539C190.082 268.18 186.082 267.347 181.987 267.039C184.329 272.525 182.829 276.525 177.487 279.039C170.618 277.618 168.118 273.618 169.987 267.039C167.96 267.201 165.96 267.034 163.987 266.539C154.897 262.849 145.897 259.182 136.987 255.539C138.277 255.049 139.614 254.882 140.987 255.039C139.639 253.938 138.137 252.938 136.487 252.039C136.257 250.802 135.757 249.802 134.987 249.039Z" fill="#5F5F5E"/>
<path fill-rule="evenodd" clip-rule="evenodd" d="M155.987 266.039C152.05 265.746 148.217 266.079 144.487 267.039C137.537 273.599 136.207 281.266 140.487 290.039C142.045 291.898 143.878 293.398 145.987 294.539C151.358 295.215 156.691 295.048 161.987 294.039C167.785 286.419 168.452 278.253 163.987 269.539C160.957 268.961 158.29 267.794 155.987 266.039Z" fill="#2B2C2B"/>
<path fill-rule="evenodd" clip-rule="evenodd" d="M97.9874 277.039C93.2174 276.73 88.5574 277.23 83.9874 278.539C81.4574 280.623 81.4574 282.623 83.9874 284.539C88.5274 284.792 93.0274 285.292 97.4874 286.039C104.597 283.25 104.767 280.25 97.9874 277.039Z" fill="#292928"/>
<path fill-rule="evenodd" clip-rule="evenodd" d="M206.987 284.039C205.654 284.039 204.32 284.039 202.987 284.039C201.514 289.002 200.014 294.002 198.487 299.039C197.99 301.349 197.824 303.682 197.987 306.039C199.938 306.312 201.438 305.646 202.487 304.039C204.688 297.536 206.188 290.869 206.987 284.039Z" fill="#0A0A0B"/>
<path fill-rule="evenodd" clip-rule="evenodd" d="M71.9874 287.039C70.9374 286.89 69.9374 287.056 68.9874 287.539C63.8174 294.706 58.6574 301.872 53.4874 309.039C50.5074 313.352 50.3374 317.686 52.9874 322.039C59.6274 327.515 66.1274 333.181 72.4874 339.039C78.8474 331.004 84.8474 322.67 90.4874 314.039C92.1974 311.116 92.3674 308.116 90.9874 305.039C85.2574 298.307 78.9274 292.307 71.9874 287.039Z" fill="#2E2E2E"/>
<path fill-rule="evenodd" clip-rule="evenodd" d="M106.987 278.039C109.507 280.274 112.507 281.774 115.987 282.539C119.347 286.635 122.347 290.969 124.987 295.539C127.867 296.841 130.867 297.674 133.987 298.039C135.447 295.227 136.447 292.227 136.987 289.039C136.707 285.144 134.867 282.144 131.487 280.039C129.077 282.117 126.407 283.784 123.487 285.039C122.457 284.703 121.957 284.036 121.987 283.039C117.447 280.314 112.447 278.647 106.987 278.039Z" fill="#333332"/>
<path fill-rule="evenodd" clip-rule="evenodd" d="M219.987 293.039C218.654 298.039 217.32 303.039 215.987 308.039C220.47 308.643 224.804 309.976 228.987 312.039C229.987 306.707 230.987 301.374 231.987 296.039C227.436 296.17 224.103 294.17 221.987 290.039C221.311 291.141 220.645 292.141 219.987 293.039Z" fill="#5C5D5C"/>
<path fill-rule="evenodd" clip-rule="evenodd" d="M200.987 282.039C199.32 282.039 197.654 282.039 195.987 282.039C193.536 289.194 191.536 296.527 189.987 304.039C191.654 304.039 193.32 304.039 194.987 304.039C197.304 296.768 199.304 289.435 200.987 282.039Z" fill="#0F0F10"/>
<path fill-rule="evenodd" clip-rule="evenodd" d="M212.987 286.039C211.363 285.899 210.197 286.566 209.487 288.039C207.545 294.32 205.378 300.487 202.987 306.539C204.737 307.858 206.737 308.358 208.987 308.039C210.801 301.786 212.468 295.452 213.987 289.039C213.802 287.955 213.469 286.955 212.987 286.039Z" fill="#0C0C0D"/>
<path fill-rule="evenodd" clip-rule="evenodd" d="M109.987 294.039C102.917 293.459 99.9174 296.793 100.987 304.039C101.987 304.039 102.987 304.039 103.987 304.039C103.987 306.706 103.987 309.372 103.987 312.039C104.987 312.039 105.987 312.039 106.987 312.039C108.817 306.206 109.817 300.206 109.987 294.039Z" fill="#2A2A29"/>
<path fill-rule="evenodd" clip-rule="evenodd" d="M246.987 296.039C245.02 295.8 243.186 296.133 241.487 297.039C241.114 299.237 240.614 301.404 239.987 303.539C241.347 306.179 242.68 306.346 243.987 304.039C250.462 307.771 254.462 306.104 255.987 299.039C252.632 298.849 249.632 297.849 246.987 296.039Z" fill="#333233"/>
<path fill-rule="evenodd" clip-rule="evenodd" d="M211.987 310.039C213.686 310.012 215.02 309.345 215.987 308.039C217.32 303.039 218.654 298.039 219.987 293.039C219.987 291.706 219.987 290.372 219.987 289.039C218.919 288.105 217.586 287.771 215.987 288.039C216.149 290.066 215.982 292.066 215.487 294.039C212.049 299.097 210.882 304.43 211.987 310.039Z" fill="#0A090B"/>
<path fill-rule="evenodd" clip-rule="evenodd" d="M163.987 305.039C159.132 306.036 154.799 308.203 150.987 311.539C145.82 316.039 140.654 320.539 135.487 325.039C135.207 327.541 136.377 329.208 138.987 330.039C146.073 325.786 152.74 320.953 158.987 315.539C161.196 313.666 163.029 311.499 164.487 309.039C165.066 307.611 164.899 306.277 163.987 305.039Z" fill="#0B0B0B"/>
<path fill-rule="evenodd" clip-rule="evenodd" d="M238.987 282.039C236.825 282.956 234.492 282.956 231.987 282.039C230.363 281.899 229.197 282.566 228.487 284.039C228.179 283.231 227.679 282.564 226.987 282.039C223.852 283.306 222.519 285.639 222.987 289.039C221.987 289.039 220.987 289.039 219.987 289.039C219.987 290.372 219.987 291.706 219.987 293.039C220.645 292.141 221.311 291.141 221.987 290.039C224.103 294.17 227.436 296.17 231.987 296.039C230.987 301.374 229.987 306.707 228.987 312.039C224.804 309.976 220.47 308.643 215.987 308.039C215.02 309.345 213.686 310.012 211.987 310.039C212.578 310.69 213.244 311.357 213.987 312.039C213.257 314.648 212.757 317.315 212.487 320.039C204.695 316.411 196.529 313.911 187.987 312.539C184.539 309.425 180.539 308.425 175.987 309.539C165.222 318.348 154.722 327.515 144.487 337.039C140.795 337.356 136.957 337.022 132.987 336.039C136.167 337.699 139.505 339.366 142.987 341.039C143.654 340.872 144.32 340.706 144.987 340.539C155.401 332.335 165.401 323.668 174.987 314.539C181.697 314.134 188.03 315.467 193.987 318.539C196.166 318.981 196.832 319.981 195.987 321.539C196.792 322.652 197.459 323.818 197.987 325.039C198.987 325.039 199.987 325.039 200.987 325.039C199.709 323.79 198.709 322.29 197.987 320.539C198.32 320.372 198.654 320.206 198.987 320.039C200.307 321.809 201.807 322.142 203.487 321.039C211.483 324.96 219.816 326.627 228.487 326.039C232.93 312.144 237.097 298.144 240.987 284.039C240.74 282.826 240.073 282.159 238.987 282.039Z" fill="#383838"/>
<path fill-rule="evenodd" clip-rule="evenodd" d="M107.987 329.039C115.307 333.364 123.307 335.697 131.987 336.039C129.887 334.927 127.557 334.26 124.987 334.039C125.387 330.354 125.547 326.687 125.487 323.039C117.497 316.446 112.497 318.113 110.487 328.039C109.817 328.791 108.987 329.125 107.987 329.039Z" fill="#343434"/>
<path fill-rule="evenodd" clip-rule="evenodd" d="M102.987 332.039C101.667 331.869 100.497 332.202 99.4874 333.039C97.3174 339.478 99.3174 343.811 105.487 346.039C106.257 345.894 106.927 345.561 107.487 345.039C107.797 342.167 108.297 339.334 108.987 336.539C108.747 335.666 108.417 334.832 107.987 334.039C106.197 333.369 104.527 332.702 102.987 332.039Z" fill="#232321"/>
<path fill-rule="evenodd" clip-rule="evenodd" d="M166.987 329.039C165.935 328.89 164.935 329.056 163.987 329.539C158.467 334.56 152.801 339.393 146.987 344.039C145.654 346.039 145.654 348.039 146.987 350.039C148.506 351.39 149.839 352.89 150.987 354.539C158.378 355.529 165.378 354.363 171.987 351.039C173.541 343.231 171.874 335.897 166.987 329.039Z" fill="#2C2C2C"/>
<path fill-rule="evenodd" clip-rule="evenodd" d="M62.4874 330.539C59.4474 335.756 58.4474 341.423 59.4874 347.539C66.4274 348.948 73.4274 349.448 80.4874 349.039C81.9174 348.574 83.0874 347.74 83.9874 346.539C84.7074 343.319 85.8674 340.319 87.4874 337.539C85.4274 336.278 83.7574 336.778 82.4874 339.039C74.0574 340.321 67.3874 337.487 62.4874 330.539Z" fill="#2C2C2B"/>
<path fill-rule="evenodd" clip-rule="evenodd" d="M140.487 355.539C133.997 356.54 130.997 360.373 131.487 367.039C131.867 368.674 132.527 370.174 133.487 371.539C140.18 368.469 146.847 365.302 153.487 362.039C160.888 361.799 168.221 361.632 175.487 361.539C176.179 362.064 176.679 362.731 176.987 363.539C179.447 362.284 180.614 360.284 180.487 357.539C180.529 355.19 179.362 353.857 176.987 353.539C167.108 358.63 156.608 360.463 145.487 359.039C143.664 358.042 141.997 356.875 140.487 355.539Z" fill="#424241"/>
<path fill-rule="evenodd" clip-rule="evenodd" d="M50.4874 360.539C51.4974 361.867 52.8274 362.867 54.4874 363.539C63.4374 362.692 72.4374 362.525 81.4874 363.039C86.3174 364.923 90.9874 367.09 95.4874 369.539C96.1774 369.014 96.6774 368.347 96.9874 367.539C97.4874 364.557 97.6474 361.557 97.4874 358.539C95.3174 357.833 93.3174 356.833 91.4874 355.539C89.9774 356.875 88.3074 358.042 86.4874 359.039C74.1874 360.264 62.8574 357.764 52.4874 351.539C52.5874 354.731 51.9174 357.731 50.4874 360.539Z" fill="#3E3D3B"/>
<path fill-rule="evenodd" clip-rule="evenodd" d="M180.487 357.539C180.614 360.284 179.447 362.284 176.987 363.539C176.679 362.731 176.179 362.064 175.487 361.539C168.221 361.632 160.888 361.799 153.487 362.039C146.847 365.302 140.18 368.469 133.487 371.539C132.527 370.174 131.867 368.674 131.487 367.039C130.997 360.373 133.997 356.54 140.487 355.539C139.537 352.63 137.877 350.297 135.487 348.539C131.107 350.036 128.107 352.87 126.487 357.039C126.887 363.051 128.047 368.884 129.987 374.539C131.887 373.023 134.047 372.356 136.487 372.539C138.567 380.704 140.57 388.87 142.487 397.039C159.15 397.539 175.817 397.706 192.487 397.539C192.376 389.984 191.043 382.65 188.487 375.539C185.983 369.318 183.316 363.318 180.487 357.539Z" fill="#2E2E2E"/>
<path fill-rule="evenodd" clip-rule="evenodd" d="M172.487 363.539C169.924 364.239 167.424 365.239 164.987 366.539C162.777 364.928 160.277 364.261 157.487 364.539C157.437 366.629 158.437 367.962 160.487 368.539C161.453 370.435 161.786 372.435 161.487 374.539C164.752 374.831 167.752 374.164 170.487 372.539C172.44 373.195 174.44 373.528 176.487 373.539C176.487 372.539 176.487 371.539 176.487 370.539C175.487 370.539 174.487 370.539 173.487 370.539C173.689 368.089 173.356 365.756 172.487 363.539Z" fill="#060606"/>
<path fill-rule="evenodd" clip-rule="evenodd" d="M92.4873 354.539C91.8173 354.539 91.4873 354.872 91.4873 355.539C93.3173 356.833 95.3173 357.833 97.4873 358.539C97.6473 361.557 97.4873 364.557 96.9873 367.539C96.6773 368.347 96.1773 369.014 95.4873 369.539C90.9873 367.09 86.3173 364.923 81.4873 363.039C72.4373 362.525 63.4373 362.692 54.4873 363.539C52.8273 362.867 51.4973 361.867 50.4873 360.539C44.5373 371.788 40.8673 383.788 39.4873 396.539C56.1273 397.48 72.7973 397.814 89.4873 397.539C91.6873 388.936 93.6873 380.27 95.4873 371.539C98.3973 372.597 101.237 373.93 103.987 375.539C104.817 370.837 104.647 366.17 103.487 361.539C100.407 360.874 98.4073 359.041 97.4873 356.039C95.8373 355.431 94.1673 354.931 92.4873 354.539Z" fill="#30302F"/>
<path fill-rule="evenodd" clip-rule="evenodd" d="M74.4874 364.539C72.0474 364.356 69.8874 365.023 67.9874 366.539C65.4274 364.86 62.5874 364.193 59.4874 364.539C59.6474 365.912 59.4774 367.246 58.9874 368.539C56.8174 369.548 55.6474 371.215 55.4874 373.539C58.0574 373.695 60.5574 373.361 62.9874 372.539C65.1974 374.15 67.6974 374.817 70.4874 374.539C70.0674 371.382 71.2374 369.049 73.9874 367.539C74.4674 366.591 74.6374 365.591 74.4874 364.539Z" fill="#070606"/>
<path fill-rule="evenodd" clip-rule="evenodd" d="M92.4874 354.539C94.1674 354.931 95.8374 355.431 97.4874 356.039C98.4074 359.041 100.407 360.874 103.487 361.539C104.647 366.17 104.817 370.837 103.987 375.539C101.237 373.93 98.3974 372.597 95.4874 371.539C93.6874 380.27 91.6874 388.936 89.4874 397.539C72.7974 397.814 56.1274 397.48 39.4874 396.539C40.6074 397.986 42.1074 398.986 43.9874 399.539C44.4274 401.115 45.2574 402.449 46.4874 403.539C48.7974 404.312 51.1374 404.979 53.4874 405.539C66.9874 405.331 80.3174 405.331 93.4874 405.539C94.5074 404.186 95.8474 403.519 97.4874 403.539C99.3974 398.423 100.567 393.089 100.987 387.539C102.317 386.545 103.647 385.545 104.987 384.539C106.017 384.875 106.517 385.542 106.487 386.539C107.387 385.83 107.727 384.83 107.487 383.539C105.857 383.214 104.857 382.214 104.487 380.539C105.087 376.403 105.427 372.236 105.487 368.039C107.447 358.783 104.447 351.95 96.4874 347.539C95.0074 349.75 93.6774 352.083 92.4874 354.539Z" fill="#181818"/>
</svg>
