<svg width="1249" height="1601" viewBox="0 0 1249 1601" fill="none" xmlns="http://www.w3.org/2000/svg">
<path fill-rule="evenodd" clip-rule="evenodd" d="M633.5 91.5C633.3 93.646 632.3 93.812 630.5 92C629.76 90.215 629.09 88.382 628.5 86.5C627.73 85.289 626.89 85.289 626 86.5C626.2 84.874 626.2 83.207 626 81.5C624.701 81.966 623.201 81.966 621.5 81.5C621.5 79.5 621.5 77.5 621.5 75.5C621.768 50.468 622.768 25.468 624.5 0.5C626.32 27.802 627.49 55.135 628 82.5C629.84 85.528 631.68 88.528 633.5 91.5Z" fill="#171818"/>
<path fill-rule="evenodd" clip-rule="evenodd" d="M621.5 82.5C621.5 82.167 621.5 81.833 621.5 81.5C623.201 81.966 624.701 81.966 626 81.5C626.2 83.207 626.2 84.874 626 86.5C626.89 85.289 627.73 85.289 628.5 86.5C629.09 88.382 629.76 90.215 630.5 92C632.3 93.812 633.3 93.646 633.5 91.5C634.4 92.29 635.07 93.29 635.5 94.5C634.02 94.238 632.69 94.571 631.5 95.5C637.61 115.182 642.77 135.182 647 155.5C648.71 163.75 649.54 172.084 649.5 180.5C641.17 180.5 632.83 180.5 624.5 180.5C624.667 148.498 624.5 116.498 624 84.5C623.583 83.244 622.75 82.577 621.5 82.5Z" fill="#242A2D"/>
<path fill-rule="evenodd" clip-rule="evenodd" d="M621.5 82.5C622.75 82.577 623.583 83.244 624 84.5C624.5 116.498 624.667 148.498 624.5 180.5C624.5 182.167 624.5 183.833 624.5 185.5C615.167 185.5 605.833 185.5 596.5 185.5C590.642 185.822 584.975 185.489 579.5 184.5C579.629 182.784 579.962 181.117 580.5 179.5C586.137 180.339 592.137 180.673 598.5 180.5C600.948 167.248 603.115 153.914 605 140.5C610.396 121.095 615.896 101.762 621.5 82.5Z" fill="#333C40"/>
<path fill-rule="evenodd" clip-rule="evenodd" d="M621.5 75.5C621.5 77.5 621.5 79.5 621.5 81.5C621.5 81.833 621.5 82.167 621.5 82.5C615.896 101.762 610.396 121.095 605 140.5C603.115 153.914 600.948 167.248 598.5 180.5C592.137 180.673 586.137 180.339 580.5 179.5C588.972 145.557 602.139 113.557 620 83.5C620.183 80.635 620.683 77.969 621.5 75.5Z" fill="#4F5C63"/>
<path fill-rule="evenodd" clip-rule="evenodd" d="M635.5 94.5C650.96 122.856 662.29 152.856 669.5 184.5C664.23 185.248 658.23 185.581 651.5 185.5C642.5 185.5 633.5 185.5 624.5 185.5C624.5 183.833 624.5 182.167 624.5 180.5C632.83 180.5 641.17 180.5 649.5 180.5C649.54 172.084 648.71 163.75 647 155.5C642.77 135.182 637.61 115.182 631.5 95.5C632.69 94.571 634.02 94.238 635.5 94.5Z" fill="#1A1E21"/>
<path fill-rule="evenodd" clip-rule="evenodd" d="M579.5 184.5C584.975 185.489 590.642 185.822 596.5 185.5C596.5 187.167 596.5 188.833 596.5 190.5C590.167 190.5 583.833 190.5 577.5 190.5C577.875 188.302 578.542 186.302 579.5 184.5Z" fill="#768691"/>
<path fill-rule="evenodd" clip-rule="evenodd" d="M596.5 185.5C605.833 185.5 615.167 185.5 624.5 185.5C624.5 187.167 624.5 188.833 624.5 190.5C615.167 190.5 605.833 190.5 596.5 190.5C596.5 188.833 596.5 187.167 596.5 185.5Z" fill="#4E5A60"/>
<path fill-rule="evenodd" clip-rule="evenodd" d="M624.5 185.5C633.5 185.5 642.5 185.5 651.5 185.5C651.5 187.167 651.5 188.833 651.5 190.5C642.5 190.5 633.5 190.5 624.5 190.5C624.5 188.833 624.5 187.167 624.5 185.5Z" fill="#373F42"/>
<path fill-rule="evenodd" clip-rule="evenodd" d="M669.5 184.5C670.74 186.214 671.41 188.214 671.5 190.5C669.55 190.773 668.05 190.107 667 188.5C662.43 190.09 657.6 191.09 652.5 191.5C658.55 232.39 661.55 273.556 661.5 315C661.5 324.193 660.83 333.026 659.5 341.5C658.08 334.226 654.08 328.726 647.5 325C640.68 320.004 633.01 317.504 624.5 317.5C624.5 275.167 624.5 232.833 624.5 190.5C633.5 190.5 642.5 190.5 651.5 190.5C651.5 188.833 651.5 187.167 651.5 185.5C658.23 185.581 664.23 185.248 669.5 184.5Z" fill="#232A2D"/>
<path fill-rule="evenodd" clip-rule="evenodd" d="M596.5 190.5C605.833 190.5 615.167 190.5 624.5 190.5C624.5 232.833 624.5 275.167 624.5 317.5C623.167 317.5 621.833 317.5 620.5 317.5C613.443 318.925 606.776 321.258 600.5 324.5C598.311 327.543 595.811 330.543 593 333.5C591.123 337.255 589.289 340.921 587.5 344.5C586.755 292.921 589.755 241.588 596.5 190.5Z" fill="#343C42"/>
<path fill-rule="evenodd" clip-rule="evenodd" d="M620.5 317.5C610.057 329.853 606.057 344.186 608.5 360.5C601.5 360.5 594.5 360.5 587.5 360.5C587.5 355.167 587.5 349.833 587.5 344.5C589.289 340.921 591.123 337.255 593 333.5C595.811 330.543 598.311 327.543 600.5 324.5C606.776 321.258 613.443 318.925 620.5 317.5Z" fill="#252C2F"/>
<path fill-rule="evenodd" clip-rule="evenodd" d="M620.5 317.5C621.833 317.5 623.167 317.5 624.5 317.5C624.5 333.5 624.5 349.5 624.5 365.5C612.167 365.5 599.833 365.5 587.5 365.5C587.5 363.833 587.5 362.167 587.5 360.5C594.5 360.5 601.5 360.5 608.5 360.5C606.057 344.186 610.057 329.853 620.5 317.5Z" fill="#181C1F"/>
<path fill-rule="evenodd" clip-rule="evenodd" d="M624.5 317.5C633.01 317.504 640.68 320.004 647.5 325C654.08 328.726 658.08 334.226 659.5 341.5C660.89 343.951 661.73 346.618 662 349.5C662.83 388.336 662.66 427.002 661.5 465.5C649.17 465.5 636.83 465.5 624.5 465.5C618.833 465.5 613.167 465.5 607.5 465.5C607.216 463.585 607.549 461.919 608.5 460.5C613.833 460.5 619.167 460.5 624.5 460.5C624.5 430.833 624.5 401.167 624.5 371.5C629.64 370.512 634.97 370.179 640.5 370.5C640.5 368.833 640.5 367.167 640.5 365.5C635.17 365.5 629.83 365.5 624.5 365.5C624.5 349.5 624.5 333.5 624.5 317.5Z" fill="#0E1011"/>
<path fill-rule="evenodd" clip-rule="evenodd" d="M624.5 371.5C624.5 401.167 624.5 430.833 624.5 460.5C619.167 460.5 613.833 460.5 608.5 460.5C608.5 430.833 608.5 401.167 608.5 371.5C613.833 371.5 619.167 371.5 624.5 371.5Z" fill="#191D1F"/>
<path fill-rule="evenodd" clip-rule="evenodd" d="M687.5 414.5C712.5 414.5 737.5 414.5 762.5 414.5C762.5 415.833 762.5 417.167 762.5 418.5C761.6 417.791 761.26 416.791 761.5 415.5C736.66 415.831 711.99 415.498 687.5 414.5Z" fill="#3B3D40"/>
<path fill-rule="evenodd" clip-rule="evenodd" d="M587.5 480.5C589.087 514.219 592.587 547.885 598 581.5C601.666 595.497 605.333 609.497 609 623.5C612.175 630.674 615.175 638.007 618 645.5C619.359 646.365 620.526 647.365 621.5 648.5C622.313 650.261 623.313 651.928 624.5 653.5C624.5 740.5 624.5 827.5 624.5 914.5C624.5 914.83 624.5 915.17 624.5 915.5C612.238 904.24 600.572 892.24 589.5 879.5C582.833 870.17 576.167 860.83 569.5 851.5C538.949 801.03 517.782 746.693 506 688.5C493.362 619.766 488.696 550.433 492 480.5C492.836 458.778 494.336 437.111 496.5 415.5C518.167 415.5 539.833 415.5 561.5 415.5C561.052 493.513 561.552 571.513 563 649.5C566.215 682.672 572.215 715.339 581 747.5C583.919 753.923 586.253 760.59 588 767.5C594.253 779.005 600.253 790.672 606 802.5C611.063 808.28 615.896 814.28 620.5 820.5C620.833 820 621.167 819.5 621.5 819C614.157 803.8 608.323 787.963 604 771.5C594.973 728.288 589.64 684.621 588 640.5C587.5 587.168 587.333 533.834 587.5 480.5Z" fill="#343C43"/>
<path fill-rule="evenodd" clip-rule="evenodd" d="M624.5 914.5C624.5 827.5 624.5 740.5 624.5 653.5C626.25 652.341 627.25 650.674 627.5 648.5C631.53 641.447 635.36 634.114 639 626.5C651.56 581.396 658.72 535.396 660.5 488.5C661.67 541.665 661.83 594.998 661 648.5C659.45 698.595 651.78 747.595 638 795.5C634.12 803.12 630.62 810.95 627.5 819C627.85 820.26 628.52 820.59 629.5 820C642.06 804.39 652.23 787.227 660 768.5C661.74 765.043 662.74 761.377 663 757.5C664.33 756.833 665.33 755.833 666 754.5C671.75 736.832 676.25 718.832 679.5 700.5C682.32 676.504 684.99 652.504 687.5 628.5C687.72 557.841 687.72 487.174 687.5 416.5C709.17 416.5 730.83 416.5 752.5 416.5C759.57 492.878 759.07 569.211 751 645.5C745.39 677.87 738.39 709.87 730 741.5C728.75 743.001 727.75 744.668 727 746.5C722.66 760.2 718.32 773.866 714 787.5C711.26 789.984 709.26 792.984 708 796.5C705.76 803.3 703.26 809.96 700.5 816.5C699.32 816.28 698.32 816.61 697.5 817.5C695.34 822.48 693.34 827.48 691.5 832.5C686.69 837.82 682.86 843.82 680 850.5C670.9 862.4 662.07 874.4 653.5 886.5C648.25 892.04 643.25 897.71 638.5 903.5C633.8 907.21 629.13 910.88 624.5 914.5Z" fill="#232A2D"/>
<path fill-rule="evenodd" clip-rule="evenodd" d="M577.5 190.5C583.833 190.5 590.167 190.5 596.5 190.5C589.755 241.588 586.755 292.921 587.5 344.5C587.5 349.833 587.5 355.167 587.5 360.5C587.5 362.167 587.5 363.833 587.5 365.5C593.979 366.491 600.646 366.824 607.5 366.5C607.5 367.833 607.5 369.167 607.5 370.5C600.833 370.5 594.167 370.5 587.5 370.5C587.5 407.167 587.5 443.833 587.5 480.5C587.333 533.834 587.5 587.168 588 640.5C589.64 684.621 594.973 728.288 604 771.5C608.323 787.963 614.157 803.8 621.5 819C621.167 819.5 620.833 820 620.5 820.5C615.896 814.28 611.063 808.28 606 802.5C600.253 790.672 594.253 779.005 588 767.5C586.253 760.59 583.919 753.923 581 747.5C572.215 715.339 566.215 682.672 563 649.5C561.552 571.513 561.052 493.513 561.5 415.5C539.833 415.5 518.167 415.5 496.5 415.5C494.336 437.111 492.836 458.778 492 480.5C488.696 550.433 493.362 619.766 506 688.5C517.782 746.693 538.949 801.03 569.5 851.5C576.167 860.83 582.833 870.17 589.5 879.5C600.572 892.24 612.238 904.24 624.5 915.5C624.5 941.5 624.5 967.5 624.5 993.5C624.5 993.83 624.5 994.17 624.5 994.5C618.377 990.22 612.377 985.72 606.5 981C596.675 970.34 586.675 959.84 576.5 949.5C561.899 931.23 548.899 911.9 537.5 891.5C536.833 890.5 536.167 889.5 535.5 888.5C530.169 877.88 524.836 867.22 519.5 856.5C519.204 854.6 518.537 852.93 517.5 851.5C508.39 828 500.557 804 494 779.5C493.586 779.043 493.086 778.709 492.5 778.5C337.236 862.72 181.57 946.38 25.5 1029.5C24.575 1030.36 23.908 1031.36 23.5 1032.5C19.321 1024.13 15.655 1015.47 12.5 1006.5C165.474 893.74 318.807 780.578 472.5 667C474.65 664.445 474.983 661.612 473.5 658.5C319.109 772.577 164.776 886.58 10.5 1000.5C7.655 995.47 5.322 990.14 3.5 984.5C159.33 853.84 315.33 723.34 471.5 593C472.492 575.243 472.826 557.41 472.5 539.5C475.029 497.641 479.696 455.974 486.5 414.5C511.5 414.5 536.5 414.5 561.5 414.5C561.136 371.154 561.636 327.82 563 284.5C565.537 252.788 570.37 221.455 577.5 190.5Z" fill="#4E5B63"/>
<path fill-rule="evenodd" clip-rule="evenodd" d="M671.5 190.5C680.02 226.652 685.19 263.319 687 300.5C687.5 338.499 687.67 376.499 687.5 414.5C711.99 415.498 736.66 415.831 761.5 415.5C761.26 416.791 761.6 417.791 762.5 418.5C769.15 458.384 773.82 498.384 776.5 538.5C776.5 546.833 776.5 555.167 776.5 563.5C776.68 591.842 776.35 620.176 775.5 648.5C774.75 654.366 774.09 660.366 773.5 666.5C770.66 702.365 764.99 737.698 756.5 772.5C753.24 785.451 750.07 798.451 747 811.5C742.12 824.27 736.95 836.94 731.5 849.5C731.69 851.58 732.69 853.08 734.5 854C739.07 856.23 743.41 858.9 747.5 862C749.77 863.12 752.1 863.95 754.5 864.5C754.28 865.68 754.61 866.68 755.5 867.5C764.26 871.05 772.26 875.88 779.5 882C788.89 887.82 798.56 893.15 808.5 898C847.17 898.33 885.83 898.67 924.5 899C934.77 903.47 944.77 908.47 954.5 914C987.58 933.21 1021.25 951.37 1055.5 968.5C1061.48 972.13 1067.48 975.8 1073.5 979.5C1078.54 982.36 1083.87 984.53 1089.5 986C1092.09 990.11 1095.76 992.28 1100.5 992.5C1100.5 993.5 1100.5 994.5 1100.5 995.5C1104.14 996.32 1107.81 997.15 1111.5 998C1117.35 1002.43 1123.68 1006.09 1130.5 1009C1143.43 1016.96 1156.76 1023.96 1170.5 1030C1173.83 1032.33 1177.17 1034.67 1180.5 1037C1192.57 1043.13 1204.57 1048.96 1216.5 1054.5C1216.03 1056.58 1215.36 1058.58 1214.5 1060.5C1212.89 1060.06 1211.72 1059.06 1211 1057.5C1210.67 1058.17 1210.33 1058.83 1210 1059.5C1202.62 1055.81 1195.46 1051.64 1188.5 1047C1185.67 1045.38 1182.67 1044.21 1179.5 1043.5C1178.61 1042.68 1178.28 1041.68 1178.5 1040.5C1173.9 1040.62 1170.07 1038.95 1167 1035.5C1165.19 1034.92 1163.36 1034.42 1161.5 1034C1153.79 1028.79 1145.96 1023.95 1138 1019.5C1108.24 1004.43 1078.74 989.1 1049.5 973.5C1048.83 972.5 1048.17 971.5 1047.5 970.5C1042.07 968.08 1036.57 965.74 1031 963.5C1015.93 955.38 1001.1 946.88 986.5 938C977.12 932.77 967.46 928.27 957.5 924.5C956.62 923.24 955.62 922.07 954.5 921C952.05 920.71 949.71 920.04 947.5 919C940.04 913.35 932.04 908.69 923.5 905C883.83 904.67 844.17 904.33 804.5 904C794.94 897.26 784.94 891.26 774.5 886C759.47 876.49 744.47 866.99 729.5 857.5C725.04 866.14 720.38 874.81 715.5 883.5C714.17 885.5 714.17 887.5 715.5 889.5C721.72 892.78 728.05 895.78 734.5 898.5C738.91 901.6 743.24 904.6 747.5 907.5C747.5 974.17 747.5 1040.83 747.5 1107.5C748.55 1107.35 749.55 1107.52 750.5 1108C756.49 1113.99 763.49 1118.32 771.5 1121C777.06 1125.93 783.06 1130.1 789.5 1133.5C789.67 1113.16 789.5 1092.83 789 1072.5C788.09 1071.67 787.42 1070.67 787 1069.5C786.28 1070.45 785.45 1070.62 784.5 1070C785.83 1069 785.83 1068 784.5 1067C785.31 1066.69 785.97 1066.19 786.5 1065.5C786.15 1064.3 785.65 1064.3 785 1065.5C784.33 1045.5 784.33 1025.5 785 1005.5C785.96 997.74 790.13 992.57 797.5 990C875.83 989.33 954.17 989.33 1032.5 990C1076.52 1013.08 1120.85 1035.41 1165.5 1057C1172.37 1063.38 1174.87 1071.22 1173 1080.5C1169.58 1087.85 1167.25 1095.52 1166 1103.5C1164.84 1104 1164.01 1104.83 1163.5 1106C1161.42 1113.9 1158.76 1121.56 1155.5 1129C1155.83 1129.33 1156.17 1129.67 1156.5 1130C1152.5 1130.67 1152.5 1131.33 1156.5 1132C1155.96 1132.72 1155.29 1133.22 1154.5 1133.5C1152.6 1133.2 1150.93 1132.54 1149.5 1131.5C1151.2 1123.65 1153.37 1115.65 1156 1107.5C1157.36 1105.97 1158.53 1104.3 1159.5 1102.5C1161.58 1093.79 1164.42 1085.46 1168 1077.5C1168.81 1073.34 1168.31 1069.34 1166.5 1065.5C1160.37 1061.93 1154.37 1058.1 1148.5 1054C1143.69 1051.52 1138.69 1049.52 1133.5 1048C1114.57 1037.75 1095.24 1028.08 1075.5 1019C1068.61 1015.46 1061.95 1011.46 1055.5 1007C1047.67 1003.58 1040 999.92 1032.5 996C1031.22 995.32 1030.05 995.48 1029 996.5C1022.44 1020.74 1015.61 1044.74 1008.5 1068.5C1006.6 1069.47 1004.6 1069.8 1002.5 1069.5C1008.5 1046.81 1014.5 1024.14 1020.5 1001.5C947.17 1001.33 873.83 1001.5 800.5 1002C799.3 1002.9 798.47 1004.07 798 1005.5C797.33 1025.17 797.33 1044.83 798 1064.5C799.89 1065.62 800.73 1067.28 800.5 1069.5C797.29 1069.19 794.29 1069.52 791.5 1070.5C790.67 1112.33 790.17 1154.33 790 1196.5C789.83 1177.82 789.33 1159.16 788.5 1140.5C773.31 1131.49 758.47 1121.82 744 1111.5C743.33 1112.83 742.67 1112.83 742 1111.5C741.83 1044.83 741.33 978.16 740.5 911.5C733.12 906.76 725.78 901.93 718.5 897C716.13 896.27 713.8 895.43 711.5 894.5C707.44 897.48 704.94 901.48 704 906.5C696.08 915.89 689.25 925.89 683.5 936.5C682.5 936.5 681.5 936.5 680.5 936.5C680.65 937.55 680.48 938.55 680 939.5C671.03 949.63 662.36 959.97 654 970.5C644.89 976.28 637.06 983.44 630.5 992C628.48 992.5 626.48 993 624.5 993.5C624.5 967.5 624.5 941.5 624.5 915.5C624.5 915.17 624.5 914.83 624.5 914.5C629.13 910.88 633.8 907.21 638.5 903.5C643.25 897.71 648.25 892.04 653.5 886.5C662.07 874.4 670.9 862.4 680 850.5C682.86 843.82 686.69 837.82 691.5 832.5C693.34 827.48 695.34 822.48 697.5 817.5C698.32 816.61 699.32 816.28 700.5 816.5C703.26 809.96 705.76 803.3 708 796.5C709.26 792.984 711.26 789.984 714 787.5C718.32 773.866 722.66 760.2 727 746.5C727.75 744.668 728.75 743.001 730 741.5C738.39 709.87 745.39 677.87 751 645.5C759.07 569.211 759.57 492.878 752.5 416.5C730.83 416.5 709.17 416.5 687.5 416.5C687.72 487.174 687.72 557.841 687.5 628.5C684.99 652.504 682.32 676.504 679.5 700.5C676.25 718.832 671.75 736.832 666 754.5C665.33 755.833 664.33 756.833 663 757.5C662.74 761.377 661.74 765.043 660 768.5C652.23 787.227 642.06 804.39 629.5 820C628.52 820.59 627.85 820.26 627.5 819C630.62 810.95 634.12 803.12 638 795.5C651.78 747.595 659.45 698.595 661 648.5C661.83 594.998 661.67 541.665 660.5 488.5C660.5 485.833 660.5 483.167 660.5 480.5C661.49 475.695 661.82 470.695 661.5 465.5C662.66 427.002 662.83 388.336 662 349.5C661.73 346.618 660.89 343.951 659.5 341.5C660.83 333.026 661.5 324.193 661.5 315C661.55 273.556 658.55 232.39 652.5 191.5C657.6 191.09 662.43 190.09 667 188.5C668.05 190.107 669.55 190.773 671.5 190.5Z" fill="#191E21"/>
<path fill-rule="evenodd" clip-rule="evenodd" d="M660.5 480.5C660.5 483.167 660.5 485.833 660.5 488.5C658.72 535.396 651.56 581.396 639 626.5C635.36 634.114 631.53 641.447 627.5 648.5C626.88 648.083 626.54 647.416 626.5 646.5C628.99 635.283 630.99 623.95 632.5 612.5C637.13 565.624 639.97 518.624 641 471.5C647.41 470.522 653.91 470.189 660.5 470.5C660.5 473.833 660.5 477.167 660.5 480.5Z" fill="#0C0F0E"/>
<path fill-rule="evenodd" clip-rule="evenodd" d="M587.5 365.5C599.833 365.5 612.167 365.5 624.5 365.5C629.83 365.5 635.17 365.5 640.5 365.5C640.5 367.167 640.5 368.833 640.5 370.5C634.97 370.179 629.64 370.512 624.5 371.5C619.167 371.5 613.833 371.5 608.5 371.5C608.5 401.167 608.5 430.833 608.5 460.5C607.549 461.919 607.216 463.585 607.5 465.5C613.167 465.5 618.833 465.5 624.5 465.5C624.5 467.5 624.5 469.5 624.5 471.5C619.167 471.5 613.833 471.5 608.5 471.5C608.375 530.891 612.709 589.891 621.5 648.5C620.526 647.365 619.359 646.365 618 645.5C615.175 638.007 612.175 630.674 609 623.5C605.333 609.497 601.666 595.497 598 581.5C592.587 547.885 589.087 514.219 587.5 480.5C587.5 443.833 587.5 407.167 587.5 370.5C594.167 370.5 600.833 370.5 607.5 370.5C607.5 369.167 607.5 367.833 607.5 366.5C600.646 366.824 593.979 366.491 587.5 365.5Z" fill="#262C2F"/>
<path fill-rule="evenodd" clip-rule="evenodd" d="M624.5 471.5C624.521 532.326 624.521 592.992 624.5 653.5C623.313 651.928 622.313 650.261 621.5 648.5C612.709 589.891 608.375 530.891 608.5 471.5C613.833 471.5 619.167 471.5 624.5 471.5Z" fill="#191E1F"/>
<path fill-rule="evenodd" clip-rule="evenodd" d="M624.5 465.5C636.83 465.5 649.17 465.5 661.5 465.5C661.82 470.695 661.49 475.695 660.5 480.5C660.5 477.167 660.5 473.833 660.5 470.5C653.91 470.189 647.41 470.522 641 471.5C639.97 518.624 637.13 565.624 632.5 612.5C630.99 623.95 628.99 635.283 626.5 646.5C626.54 647.416 626.88 648.083 627.5 648.5C627.25 650.674 626.25 652.341 624.5 653.5C624.521 592.992 624.521 532.326 624.5 471.5C624.5 469.5 624.5 467.5 624.5 465.5Z" fill="#121515"/>
<path fill-rule="evenodd" clip-rule="evenodd" d="M904.5 523.5C903.42 528.671 901.09 533.004 897.5 536.5C899.07 531.68 901.41 527.347 904.5 523.5Z" fill="#DB5766"/>
<path fill-rule="evenodd" clip-rule="evenodd" d="M341.5 518.5C347.391 526.282 351.724 534.948 354.5 544.5C353.504 544.414 352.671 544.748 352 545.5C351.814 547.9 351.314 550.234 350.5 552.5C350.348 547.24 350.181 541.907 350 536.5C349.252 534.668 348.252 533.001 347 531.5C346.333 532.833 345.667 532.833 345 531.5C344.833 532.333 344.667 533.167 344.5 534C345.972 537.111 347.306 540.278 348.5 543.5C348.125 545.916 347.459 548.25 346.5 550.5C347.687 556.58 349.187 562.58 351 568.5C351.499 574.491 351.666 580.491 351.5 586.5C344.167 586.5 336.833 586.5 329.5 586.5C329.45 570.702 331.116 554.869 334.5 539C334.26 536.984 333.926 534.984 333.5 533C335.82 529.365 337.82 524.865 339.5 519.5C339.957 518.702 340.624 518.369 341.5 518.5Z" fill="#E73F47"/>
<path fill-rule="evenodd" clip-rule="evenodd" d="M911.5 520.5C915.21 525.247 917.87 530.581 919.5 536.5C917.95 536.179 917.29 535.179 917.5 533.5C914.95 533.439 913.45 532.106 913 529.5C912.73 531.101 912.23 532.601 911.5 534C913.96 540.367 915.79 546.867 917 553.5C917.59 563.861 918.42 574.194 919.5 584.5C912.5 584.5 905.5 584.5 898.5 584.5C898.13 576.734 898.8 569.067 900.5 561.5C900.03 559.693 899.69 557.86 899.5 556C901.56 550.227 902.89 544.227 903.5 538C903.09 536.856 902.76 535.689 902.5 534.5C903.57 531.001 905.07 527.668 907 524.5C907.33 524.833 907.67 525.167 908 525.5C908.49 523.866 908.66 522.199 908.5 520.5C909.5 520.5 910.5 520.5 911.5 520.5Z" fill="#E02C33"/>
<path fill-rule="evenodd" clip-rule="evenodd" d="M923.5 545.5C924.92 547.515 925.59 549.848 925.5 552.5C924.08 550.485 923.41 548.152 923.5 545.5Z" fill="#CE5B5E"/>
<path fill-rule="evenodd" clip-rule="evenodd" d="M472.5 539.5C472.826 557.41 472.492 575.243 471.5 593C315.33 723.34 159.33 853.84 3.5 984.5C2.412 982.48 1.412 980.32 0.5 978C2.112 975.38 4.112 973.05 6.5 971C94.671 889.66 182.671 808.16 270.5 726.5C272.5 723.833 274.833 721.5 277.5 719.5C282.106 715.714 286.44 711.714 290.5 707.5C293.855 706.145 296.189 703.811 297.5 700.5C303.082 696.589 308.082 691.923 312.5 686.5C318.129 682.539 323.129 677.873 327.5 672.5C336.493 664.84 345.16 656.84 353.5 648.5C358.207 644.778 362.707 640.778 367 636.5C367.5 629.842 367.666 623.175 367.5 616.5C368.328 622.653 368.828 628.987 369 635.5C398.172 607.329 427.672 579.495 457.5 552C462.393 547.599 467.393 543.432 472.5 539.5Z" fill="#768994"/>
<path fill-rule="evenodd" clip-rule="evenodd" d="M341.5 518.5C340.624 518.369 339.957 518.702 339.5 519.5C337.82 524.865 335.82 529.365 333.5 533C333.926 534.984 334.26 536.984 334.5 539C331.116 554.869 329.45 570.702 329.5 586.5C328.596 587.209 328.263 588.209 328.5 589.5C328.5 591.5 328.5 593.5 328.5 595.5C328.5 596.167 328.5 596.833 328.5 597.5C325.213 596.839 321.88 596.339 318.5 596C317.422 595.326 316.755 594.326 316.5 593C317.47 585.526 318.137 578.026 318.5 570.5C322.087 551.315 329.087 533.481 339.5 517C340.816 516.472 341.483 516.972 341.5 518.5Z" fill="#F35F6C"/>
<path fill-rule="evenodd" clip-rule="evenodd" d="M354.5 544.5C357.46 552.345 359.794 560.345 361.5 568.5C360.965 573.312 361.965 577.645 364.5 581.5C364.5 582.5 364.5 583.5 364.5 584.5C364.372 588.881 364.705 593.215 365.5 597.5C353.167 597.5 340.833 597.5 328.5 597.5C328.5 596.833 328.5 596.167 328.5 595.5C336.5 595.5 344.5 595.5 352.5 595.5C352.643 593.738 352.309 592.071 351.5 590.5C343.862 589.503 336.196 589.169 328.5 589.5C328.263 588.209 328.596 587.209 329.5 586.5C336.833 586.5 344.167 586.5 351.5 586.5C351.666 580.491 351.499 574.491 351 568.5C349.187 562.58 347.687 556.58 346.5 550.5C347.459 548.25 348.125 545.916 348.5 543.5C347.306 540.278 345.972 537.111 344.5 534C344.667 533.167 344.833 532.333 345 531.5C345.667 532.833 346.333 532.833 347 531.5C348.252 533.001 349.252 534.668 350 536.5C350.181 541.907 350.348 547.24 350.5 552.5C351.314 550.234 351.814 547.9 352 545.5C352.671 544.748 353.504 544.414 354.5 544.5Z" fill="#E33037"/>
<path fill-rule="evenodd" clip-rule="evenodd" d="M776.5 538.5C810.78 570.606 845.28 602.606 880 634.5C880.17 628.319 880.67 622.319 881.5 616.5C881.17 623.2 881.5 629.866 882.5 636.5C886.51 641.502 891.18 645.835 896.5 649.5C909.41 662.289 922.75 674.623 936.5 686.5C940.15 690.812 944.15 694.812 948.5 698.5C951.07 701.608 954.07 704.275 957.5 706.5C961.15 711.151 965.49 715.151 970.5 718.5C970.5 718.833 970.5 719.167 970.5 719.5C971.96 721.255 973.8 722.588 976 723.5C976.15 726.525 977.65 728.191 980.5 728.5C1067.93 808.55 1154.93 889.05 1241.5 970C1244.22 972.38 1246.55 975.05 1248.5 978C1247.59 980.32 1246.59 982.48 1245.5 984.5C1090.5 855.36 935.5 725.862 780.5 596C779.3 595.097 778.47 593.931 778 592.5C777.83 582.658 777.33 572.991 776.5 563.5C776.5 555.167 776.5 546.833 776.5 538.5Z" fill="#516674"/>
<path fill-rule="evenodd" clip-rule="evenodd" d="M911.5 520.5C910.5 520.5 909.5 520.5 908.5 520.5C908.66 522.199 908.49 523.866 908 525.5C907.67 525.167 907.33 524.833 907 524.5C905.07 527.668 903.57 531.001 902.5 534.5C902.76 535.689 903.09 536.856 903.5 538C902.89 544.227 901.56 550.227 899.5 556C899.69 557.86 900.03 559.693 900.5 561.5C898.8 569.067 898.13 576.734 898.5 584.5C905.5 584.5 912.5 584.5 919.5 584.5C920.04 584.56 920.38 584.893 920.5 585.5C909.85 586.499 899.19 586.832 888.5 586.5C888.5 587.5 888.5 588.5 888.5 589.5C899.15 590.238 909.82 590.572 920.5 590.5C920.5 591.833 920.5 593.167 920.5 594.5C912.47 594.169 904.47 594.502 896.5 595.5C904.66 596.167 912.66 596.833 920.5 597.5C908.17 597.5 895.83 597.5 883.5 597.5C884.63 591.559 885.3 585.559 885.5 579.5C887.18 564.417 891.18 550.083 897.5 536.5C901.09 533.004 903.42 528.671 904.5 523.5C904.93 520.715 906.27 518.381 908.5 516.5C910.29 517.283 911.29 518.616 911.5 520.5Z" fill="#EC404A"/>
<path fill-rule="evenodd" clip-rule="evenodd" d="M919.5 536.5C921.58 539.111 922.91 542.111 923.5 545.5C923.41 548.152 924.08 550.485 925.5 552.5C924.09 558.862 924.25 565.196 926 571.5C926.48 570.552 926.65 569.552 926.5 568.5C927.5 568.5 928.5 568.5 929.5 568.5C930.04 573.851 930.7 579.184 931.5 584.5C919.52 584.67 919.52 585.17 931.5 586C932.13 588.939 932.79 591.772 933.5 594.5C933.5 595.5 933.5 596.5 933.5 597.5C929.17 597.5 924.83 597.5 920.5 597.5C912.66 596.833 904.66 596.167 896.5 595.5C904.47 594.502 912.47 594.169 920.5 594.5C920.5 593.167 920.5 591.833 920.5 590.5C909.82 590.572 899.15 590.238 888.5 589.5C888.5 588.5 888.5 587.5 888.5 586.5C899.19 586.832 909.85 586.499 920.5 585.5C920.38 584.893 920.04 584.56 919.5 584.5C918.42 574.194 917.59 563.861 917 553.5C915.79 546.867 913.96 540.367 911.5 534C912.23 532.601 912.73 531.101 913 529.5C913.45 532.106 914.95 533.439 917.5 533.5C917.29 535.179 917.95 536.179 919.5 536.5Z" fill="#DC2325"/>
<path fill-rule="evenodd" clip-rule="evenodd" d="M361.5 568.5C362.66 572.681 363.66 577.015 364.5 581.5C361.965 577.645 360.965 573.312 361.5 568.5Z" fill="#D3565B"/>
<path fill-rule="evenodd" clip-rule="evenodd" d="M925.5 552.5C929.65 563.373 932.32 574.706 933.5 586.5C933.5 589.167 933.5 591.833 933.5 594.5C932.79 591.772 932.13 588.939 931.5 586C919.52 585.17 919.52 584.67 931.5 584.5C930.7 579.184 930.04 573.851 929.5 568.5C928.5 568.5 927.5 568.5 926.5 568.5C926.65 569.552 926.48 570.552 926 571.5C924.25 565.196 924.09 558.862 925.5 552.5Z" fill="#C72D32"/>
<path fill-rule="evenodd" clip-rule="evenodd" d="M318.5 570.5C318.137 578.026 317.47 585.526 316.5 593C316.755 594.326 317.422 595.326 318.5 596C321.88 596.339 325.213 596.839 328.5 597.5C340.833 597.5 353.167 597.5 365.5 597.5C364.705 593.215 364.372 588.881 364.5 584.5C365.644 588.964 366.31 593.63 366.5 598.5C366.167 598.5 365.833 598.5 365.5 598.5C348.5 598.5 331.5 598.5 314.5 598.5C315.191 588.955 316.524 579.622 318.5 570.5Z" fill="#D85B6B"/>
<path fill-rule="evenodd" clip-rule="evenodd" d="M328.5 589.5C336.196 589.169 343.862 589.503 351.5 590.5C352.309 592.071 352.643 593.738 352.5 595.5C344.5 595.5 336.5 595.5 328.5 595.5C328.5 593.5 328.5 591.5 328.5 589.5Z" fill="#E63F4B"/>
<path fill-rule="evenodd" clip-rule="evenodd" d="M885.5 579.5C885.3 585.559 884.63 591.559 883.5 597.5C895.83 597.5 908.17 597.5 920.5 597.5C924.83 597.5 929.17 597.5 933.5 597.5C933.5 596.5 933.5 595.5 933.5 594.5C933.5 591.833 933.5 589.167 933.5 586.5C934.48 590.298 934.82 594.298 934.5 598.5C917.17 598.5 899.83 598.5 882.5 598.5C882.85 591.932 883.85 585.598 885.5 579.5Z" fill="#B83D44"/>
<path fill-rule="evenodd" clip-rule="evenodd" d="M314.5 598.5C331.5 598.5 348.5 598.5 365.5 598.5C364.737 599.268 363.737 599.768 362.5 600C359.183 600.498 355.85 600.665 352.5 600.5C352.5 610.5 352.5 620.5 352.5 630.5C352.5 630.833 352.5 631.167 352.5 631.5C351.078 631.709 349.745 632.209 348.5 633C342.971 637.695 337.971 642.861 333.5 648.5C331.21 649.467 329.21 650.8 327.5 652.5C327.667 635.163 327.5 617.83 327 600.5C322.732 599.86 318.565 599.193 314.5 598.5Z" fill="#363C42"/>
<path fill-rule="evenodd" clip-rule="evenodd" d="M365.5 598.5C365.833 598.5 366.167 598.5 366.5 598.5C367.407 604.106 367.74 609.773 367.5 615.5C366.676 619.312 366.176 623.312 366 627.5C364.815 625.623 363.815 623.623 363 621.5C359.075 624.033 355.575 627.033 352.5 630.5C352.5 620.5 352.5 610.5 352.5 600.5C355.85 600.665 359.183 600.498 362.5 600C363.737 599.768 364.737 599.268 365.5 598.5Z" fill="#232B2D"/>
<path fill-rule="evenodd" clip-rule="evenodd" d="M776.5 563.5C777.33 572.991 777.83 582.658 778 592.5C778.47 593.931 779.3 595.097 780.5 596C935.5 725.862 1090.5 855.36 1245.5 984.5C1243.4 990.35 1241.07 996.02 1238.5 1001.5C1237.53 1000.69 1236.7 999.69 1236 998.5C1235.67 1000.17 1235.33 1001.83 1235 1003.5C1233.48 1002.05 1233.32 1000.55 1234.5 999C1232.83 996.66 1230.83 994.66 1228.5 993C1183.08 960.49 1138.08 927.15 1093.5 893C1051.58 863.88 1010.58 833.54 970.5 802C964.97 798.256 959.3 794.756 953.5 791.5C952.61 790.675 952.28 789.675 952.5 788.5C937.33 778.407 922.66 767.574 908.5 756C905.83 754.667 903.17 753.333 900.5 752C876.7 733.173 852.7 714.839 828.5 697C820.36 692.869 813.02 687.536 806.5 681C802.3 679.476 798.97 676.809 796.5 673C794.78 672.654 793.12 672.154 791.5 671.5C787.89 668.022 783.89 665.022 779.5 662.5C778.15 661.315 776.98 659.981 776 658.5C775.5 655.183 775.33 651.85 775.5 648.5C776.35 620.176 776.68 591.842 776.5 563.5Z" fill="#373F45"/>
<path fill-rule="evenodd" clip-rule="evenodd" d="M886.5 599.5C904.88 599.028 916.54 599.361 921.5 600.5C921.67 618.17 921.5 635.836 921 653.5C913.6 645.43 905.6 638.096 897 631.5C896.5 637.491 896.33 643.491 896.5 649.5C891.18 645.835 886.51 641.502 882.5 636.5C881.5 629.866 881.17 623.2 881.5 616.5C886.27 620.952 891.27 624.952 896.5 628.5C896.5 619.167 896.5 609.833 896.5 600.5C892.96 600.813 889.62 600.479 886.5 599.5Z" fill="#232B2E"/>
<path fill-rule="evenodd" clip-rule="evenodd" d="M882.5 599.5C882.5 599.167 882.5 598.833 882.5 598.5C899.83 598.5 917.17 598.5 934.5 598.5C935.32 601.641 935.82 604.975 936 608.5C936.5 634.498 936.67 660.498 936.5 686.5C922.75 674.623 909.41 662.289 896.5 649.5C896.33 643.491 896.5 637.491 897 631.5C905.6 638.096 913.6 645.43 921 653.5C921.5 635.836 921.67 618.17 921.5 600.5C916.54 599.361 904.88 599.028 886.5 599.5C885.17 599.5 883.83 599.5 882.5 599.5Z" fill="#191D20"/>
<path fill-rule="evenodd" clip-rule="evenodd" d="M882.5 599.5C883.83 599.5 885.17 599.5 886.5 599.5C889.62 600.479 892.96 600.813 896.5 600.5C896.5 609.833 896.5 619.167 896.5 628.5C891.27 624.952 886.27 620.952 881.5 616.5C881.31 610.788 881.65 605.121 882.5 599.5Z" fill="#373F45"/>
<path fill-rule="evenodd" clip-rule="evenodd" d="M314.5 598.5C318.565 599.193 322.732 599.86 327 600.5C327.5 617.83 327.667 635.163 327.5 652.5C327.5 652.833 327.5 653.167 327.5 653.5C322.726 657.987 317.726 662.321 312.5 666.5C312.333 647.164 312.5 627.83 313 608.5C313.179 604.975 313.679 601.641 314.5 598.5Z" fill="#4F5C64"/>
<path fill-rule="evenodd" clip-rule="evenodd" d="M367.5 615.5C367.5 615.833 367.5 616.167 367.5 616.5C367.666 623.175 367.5 629.842 367 636.5C362.707 640.778 358.207 644.778 353.5 648.5C352.503 648.53 351.836 648.03 351.5 647C352.017 644.923 352.684 642.923 353.5 641C352.549 637.943 352.216 634.777 352.5 631.5C352.5 631.167 352.5 630.833 352.5 630.5C355.575 627.033 359.075 624.033 363 621.5C363.815 623.623 364.815 625.623 366 627.5C366.176 623.312 366.676 619.312 367.5 615.5Z" fill="#171E21"/>
<path fill-rule="evenodd" clip-rule="evenodd" d="M966.5 623.5C967.11 624.391 967.44 625.391 967.5 626.5C966.9 626.735 966.57 627.235 966.5 628C968.88 637.364 970.38 646.864 971 656.5C971.5 670.829 971.67 685.163 971.5 699.5C966.91 696.053 962.58 692.386 958.5 688.5C957.17 666.967 959.17 645.8 964.5 625C964.84 623.97 965.5 623.47 966.5 623.5Z" fill="#B5BBBE"/>
<path fill-rule="evenodd" clip-rule="evenodd" d="M352.5 631.5C352.216 634.777 352.549 637.943 353.5 641C352.684 642.923 352.017 644.923 351.5 647C351.836 648.03 352.503 648.53 353.5 648.5C345.16 656.84 336.493 664.84 327.5 672.5C327.5 666.167 327.5 659.833 327.5 653.5C327.5 653.167 327.5 652.833 327.5 652.5C329.21 650.8 331.21 649.467 333.5 648.5C337.971 642.861 342.971 637.695 348.5 633C349.745 632.209 351.078 631.709 352.5 631.5Z" fill="#232B2E"/>
<path fill-rule="evenodd" clip-rule="evenodd" d="M285.5 624.5C284.903 624.735 284.57 625.235 284.5 626C289.554 643.455 291.554 661.288 290.5 679.5C290.5 682.5 290.5 685.5 290.5 688.5C289.417 688.539 288.417 688.873 287.5 689.5C284.599 693.34 281.265 696.673 277.5 699.5C276.317 674.579 277.984 649.912 282.5 625.5C283.14 622.318 284.14 621.985 285.5 624.5Z" fill="#C7CBCE"/>
<path fill-rule="evenodd" clip-rule="evenodd" d="M285.5 624.5C294.833 641.178 298.833 659.178 297.5 678.5C295.283 679.369 292.95 679.702 290.5 679.5C291.554 661.288 289.554 643.455 284.5 626C284.57 625.235 284.903 624.735 285.5 624.5Z" fill="#B0B3B6"/>
<path fill-rule="evenodd" clip-rule="evenodd" d="M967.5 626.5C970.11 630.05 971.94 634.05 973 638.5C975.28 645.013 976.95 651.68 978 658.5C979.4 681.471 979.9 704.471 979.5 727.5C978.83 720.322 978.17 712.989 977.5 705.5C976.58 703.244 974.91 702.244 972.5 702.5C973.12 708.598 972.45 714.265 970.5 719.5C970.5 719.167 970.5 718.833 970.5 718.5C971.49 712.355 971.82 706.022 971.5 699.5C971.67 685.163 971.5 670.829 971 656.5C970.38 646.864 968.88 637.364 966.5 628C966.57 627.235 966.9 626.735 967.5 626.5Z" fill="#979EA1"/>
<path fill-rule="evenodd" clip-rule="evenodd" d="M327.5 653.5C327.5 659.833 327.5 666.167 327.5 672.5C323.129 677.873 318.129 682.539 312.5 686.5C312.5 679.833 312.5 673.167 312.5 666.5C317.726 662.321 322.726 657.987 327.5 653.5Z" fill="#374146"/>
<path fill-rule="evenodd" clip-rule="evenodd" d="M966.5 623.5C965.5 623.47 964.84 623.97 964.5 625C959.17 645.8 957.17 666.967 958.5 688.5C958.82 694.69 958.49 700.69 957.5 706.5C954.07 704.275 951.07 701.608 948.5 698.5C950.33 685.865 951.5 672.865 952 659.5C953.33 646.692 957.16 634.692 963.5 623.5C964.61 622.224 965.61 622.224 966.5 623.5Z" fill="#D8DBDE"/>
<path fill-rule="evenodd" clip-rule="evenodd" d="M1236.5 1007.5C1233.07 1016.01 1229.41 1024.35 1225.5 1032.5C1224.43 1030.39 1222.77 1028.89 1220.5 1028C1214.96 1026.27 1209.96 1023.6 1205.5 1020C1198.27 1017.62 1191.61 1014.12 1185.5 1009.5C1162.23 997.53 1139.23 985.03 1116.5 972C1076.37 951.46 1036.7 930.13 997.5 908C994.73 907.47 992.06 906.64 989.5 905.5C971.83 893.55 953.16 883.38 933.5 875C905.95 859.06 877.95 843.89 849.5 829.5C834.37 821.08 819.37 812.58 804.5 804C788.31 796.073 772.31 787.907 756.5 779.5C756.5 777.167 756.5 774.833 756.5 772.5C764.99 737.698 770.66 702.365 773.5 666.5C774.12 666.389 774.62 666.056 775 665.5C787.54 674.864 800.04 684.364 812.5 694C827.77 704.285 842.44 715.285 856.5 727C861.06 728.445 864.72 731.111 867.5 735C876.51 741.009 885.51 747.009 894.5 753C895.83 754.667 897.17 756.333 898.5 758C919.52 772.175 940.18 786.842 960.5 802C973.57 811.53 986.24 821.53 998.5 832C999.83 832.33 1001.17 832.67 1002.5 833C1010.17 839.33 1017.83 845.67 1025.5 852C1032.74 856.98 1040.07 861.82 1047.5 866.5C1110.76 913.85 1173.76 960.85 1236.5 1007.5Z" fill="#373F45"/>
<path fill-rule="evenodd" clip-rule="evenodd" d="M282.5 625.5C277.984 649.912 276.317 674.579 277.5 699.5C277.5 706.167 277.5 712.833 277.5 719.5C274.833 721.5 272.5 723.833 270.5 726.5C270.739 724.533 270.406 722.699 269.5 721C270.161 699.565 270.828 678.065 271.5 656.5C272.496 651.866 273.329 647.2 274 642.5C275.667 638.167 277.333 633.833 279 629.5C279.74 627.681 280.907 626.348 282.5 625.5Z" fill="#E0E3E6"/>
<path fill-rule="evenodd" clip-rule="evenodd" d="M297.5 678.5C297.5 685.833 297.5 693.167 297.5 700.5C296.189 703.811 293.855 706.145 290.5 707.5C290.5 701.167 290.5 694.833 290.5 688.5C290.5 685.5 290.5 682.5 290.5 679.5C292.95 679.702 295.283 679.369 297.5 678.5Z" fill="#919B9C"/>
<path fill-rule="evenodd" clip-rule="evenodd" d="M290.5 688.5C290.5 694.833 290.5 701.167 290.5 707.5C286.44 711.714 282.106 715.714 277.5 719.5C277.5 712.833 277.5 706.167 277.5 699.5C281.265 696.673 284.599 693.34 287.5 689.5C288.417 688.873 289.417 688.539 290.5 688.5Z" fill="#B6BDC0"/>
<path fill-rule="evenodd" clip-rule="evenodd" d="M958.5 688.5C962.58 692.386 966.91 696.053 971.5 699.5C971.82 706.022 971.49 712.355 970.5 718.5C965.49 715.151 961.15 711.151 957.5 706.5C958.49 700.69 958.82 694.69 958.5 688.5Z" fill="#A0A8AC"/>
<path fill-rule="evenodd" clip-rule="evenodd" d="M979.5 727.5C980.17 727.5 980.5 727.833 980.5 728.5C977.65 728.191 976.15 726.525 976 723.5C973.8 722.588 971.96 721.255 970.5 719.5C972.45 714.265 973.12 708.598 972.5 702.5C974.91 702.244 976.58 703.244 977.5 705.5C978.17 712.989 978.83 720.322 979.5 727.5Z" fill="#6F7B80"/>
<path fill-rule="evenodd" clip-rule="evenodd" d="M12.5 1006.5C11.27 1004.7 10.604 1002.7 10.5 1000.5C164.776 886.58 319.109 772.577 473.5 658.5C474.983 661.612 474.65 664.445 472.5 667C318.807 780.578 165.474 893.74 12.5 1006.5Z" fill="#354249"/>
<path fill-rule="evenodd" clip-rule="evenodd" d="M756.5 772.5C756.5 774.833 756.5 777.167 756.5 779.5C772.31 787.907 788.31 796.073 804.5 804C819.37 812.58 834.37 821.08 849.5 829.5C877.95 843.89 905.95 859.06 933.5 875C953.16 883.38 971.83 893.55 989.5 905.5C992.06 906.64 994.73 907.47 997.5 908C1036.7 930.13 1076.37 951.46 1116.5 972C1139.23 985.03 1162.23 997.53 1185.5 1009.5C1191.61 1014.12 1198.27 1017.62 1205.5 1020C1209.96 1023.6 1214.96 1026.27 1220.5 1028C1222.77 1028.89 1224.43 1030.39 1225.5 1032.5C1222.99 1040.16 1219.99 1047.49 1216.5 1054.5C1204.57 1048.96 1192.57 1043.13 1180.5 1037C1177.17 1034.67 1173.83 1032.33 1170.5 1030C1156.76 1023.96 1143.43 1016.96 1130.5 1009C1123.68 1006.09 1117.35 1002.43 1111.5 998C1107.81 997.15 1104.14 996.32 1100.5 995.5C1100.5 994.5 1100.5 993.5 1100.5 992.5C1095.76 992.28 1092.09 990.11 1089.5 986C1083.87 984.53 1078.54 982.36 1073.5 979.5C1067.48 975.8 1061.48 972.13 1055.5 968.5C1021.25 951.37 987.58 933.21 954.5 914C944.77 908.47 934.77 903.47 924.5 899C885.83 898.67 847.17 898.33 808.5 898C798.56 893.15 788.89 887.82 779.5 882C772.26 875.88 764.26 871.05 755.5 867.5C754.61 866.68 754.28 865.68 754.5 864.5C752.1 863.95 749.77 863.12 747.5 862C743.41 858.9 739.07 856.23 734.5 854C732.69 853.08 731.69 851.58 731.5 849.5C736.95 836.94 742.12 824.27 747 811.5C750.07 798.451 753.24 785.451 756.5 772.5Z" fill="#232A2D"/>
<path fill-rule="evenodd" clip-rule="evenodd" d="M517.5 851.5C512.153 855.17 506.487 858.34 500.5 861C495.714 864.28 491.047 867.78 486.5 871.5C484.604 872.47 482.604 872.8 480.5 872.5C480.079 874.91 478.746 876.74 476.5 878C467.959 881.96 459.626 886.29 451.5 891C448.833 893.33 446.167 895.67 443.5 898C403.833 898.33 364.167 898.67 324.5 899C314.917 903.96 305.25 908.63 295.5 913C292.61 914.94 289.944 917.1 287.5 919.5C280.518 920.88 274.518 924.04 269.5 929C262.071 933.08 254.404 936.74 246.5 940C239.038 945.27 231.038 949.6 222.5 953C205.024 962.84 187.357 972.17 169.5 981C168.953 981.92 168.287 982.76 167.5 983.5C153.576 989.88 140.076 997.22 127 1005.5C123.565 1005.63 121.065 1007.13 119.5 1010C111.293 1013.94 102.959 1017.6 94.5 1021C93.5 1022 92.5 1023 91.5 1024C81.816 1028.51 72.483 1033.68 63.5 1039.5C53.237 1044.8 42.904 1049.8 32.5 1054.5C29.006 1047.49 26.006 1040.16 23.5 1032.5C23.908 1031.36 24.575 1030.36 25.5 1029.5C181.57 946.38 337.236 862.72 492.5 778.5C493.086 778.709 493.586 779.043 494 779.5C500.557 804 508.39 828 517.5 851.5Z" fill="#343C43"/>
<path fill-rule="evenodd" clip-rule="evenodd" d="M775.5 648.5C775.33 651.85 775.5 655.183 776 658.5C776.98 659.981 778.15 661.315 779.5 662.5C783.89 665.022 787.89 668.022 791.5 671.5C793.12 672.154 794.78 672.654 796.5 673C798.97 676.809 802.3 679.476 806.5 681C813.02 687.536 820.36 692.869 828.5 697C852.7 714.839 876.7 733.173 900.5 752C903.17 753.333 905.83 754.667 908.5 756C922.66 767.574 937.33 778.407 952.5 788.5C952.28 789.675 952.61 790.675 953.5 791.5C959.3 794.756 964.97 798.256 970.5 802C1010.58 833.54 1051.58 863.88 1093.5 893C1138.08 927.15 1183.08 960.49 1228.5 993C1230.83 994.66 1232.83 996.66 1234.5 999C1233.32 1000.55 1233.48 1002.05 1235 1003.5C1235.33 1001.83 1235.67 1000.17 1236 998.5C1236.7 999.69 1237.53 1000.69 1238.5 1001.5C1237.83 1003.5 1237.17 1005.5 1236.5 1007.5C1173.76 960.85 1110.76 913.85 1047.5 866.5C1040.07 861.82 1032.74 856.98 1025.5 852C1017.83 845.67 1010.17 839.33 1002.5 833C1001.17 832.67 999.83 832.33 998.5 832C986.24 821.53 973.57 811.53 960.5 802C940.18 786.842 919.52 772.175 898.5 758C897.17 756.333 895.83 754.667 894.5 753C885.51 747.009 876.51 741.009 867.5 735C864.72 731.111 861.06 728.445 856.5 727C842.44 715.285 827.77 704.285 812.5 694C800.04 684.364 787.54 674.864 775 665.5C774.62 666.056 774.12 666.389 773.5 666.5C774.09 660.366 774.75 654.366 775.5 648.5Z" fill="#252D30"/>
<path fill-rule="evenodd" clip-rule="evenodd" d="M519.5 856.5C524.836 867.22 530.169 877.88 535.5 888.5C524.082 894.97 512.749 901.31 501.5 907.5C501.667 973.17 501.5 1038.83 501 1104.5C500.888 1107.45 499.388 1108.78 496.5 1108.5C496.719 1109.68 496.386 1110.68 495.5 1111.5C490.169 1115.17 484.502 1118.33 478.5 1121C475.88 1124.98 472.213 1126.81 467.5 1126.5C467.5 1127.5 467.5 1128.5 467.5 1129.5C464.091 1129.73 461.591 1131.4 460 1134.5C459.167 1113.49 459.334 1092.49 460.5 1071.5C462.015 1069.45 462.849 1067.12 463 1064.5C463.667 1045.83 463.667 1027.17 463 1008.5C463.323 999.22 459.157 993.06 450.5 990C372.5 989.33 294.5 989.33 216.5 990C195.083 1000.23 173.75 1010.73 152.5 1021.5C150.564 1023.46 148.398 1025.12 146 1026.5C130.597 1031.96 116.097 1039.13 102.5 1048C93.626 1050.44 85.959 1054.94 79.5 1061.5C78.087 1063.37 76.92 1065.37 76 1067.5C75.297 1072.69 75.464 1077.86 76.5 1083C80.326 1090.81 83.159 1098.98 85 1107.5C89.029 1115.15 92.529 1122.98 95.5 1131C94.001 1131.84 93.668 1132.67 94.5 1133.5C86.467 1137.26 78.301 1140.93 70 1144.5C57.894 1116.62 46.06 1088.62 34.5 1060.5C120.898 1015.13 206.898 968.97 292.5 922C300.215 919.64 307.215 915.98 313.5 911C317.748 909.4 321.748 907.4 325.5 905C364.5 904.67 403.5 904.33 442.5 904C468.594 888.71 494.261 872.88 519.5 856.5Z" fill="#343C42"/>
<path fill-rule="evenodd" clip-rule="evenodd" d="M1214.5 1060.5C1203.02 1088.14 1191.52 1115.81 1180 1143.5C1178.95 1144.52 1177.78 1144.68 1176.5 1144C1168.95 1140.73 1161.62 1137.23 1154.5 1133.5C1155.29 1133.22 1155.96 1132.72 1156.5 1132C1152.5 1131.33 1152.5 1130.67 1156.5 1130C1156.17 1129.67 1155.83 1129.33 1155.5 1129C1158.76 1121.56 1161.42 1113.9 1163.5 1106C1164.01 1104.83 1164.84 1104 1166 1103.5C1167.25 1095.52 1169.58 1087.85 1173 1080.5C1174.87 1071.22 1172.37 1063.38 1165.5 1057C1120.85 1035.41 1076.52 1013.08 1032.5 990C954.17 989.33 875.83 989.33 797.5 990C790.13 992.57 785.96 997.74 785 1005.5C784.33 1025.5 784.33 1045.5 785 1065.5C785.65 1064.3 786.15 1064.3 786.5 1065.5C785.97 1066.19 785.31 1066.69 784.5 1067C785.83 1068 785.83 1069 784.5 1070C785.45 1070.62 786.28 1070.45 787 1069.5C787.42 1070.67 788.09 1071.67 789 1072.5C789.5 1092.83 789.67 1113.16 789.5 1133.5C783.06 1130.1 777.06 1125.93 771.5 1121C763.49 1118.32 756.49 1113.99 750.5 1108C749.55 1107.52 748.55 1107.35 747.5 1107.5C747.5 1040.83 747.5 974.17 747.5 907.5C743.24 904.6 738.91 901.6 734.5 898.5C728.05 895.78 721.72 892.78 715.5 889.5C714.17 887.5 714.17 885.5 715.5 883.5C720.38 874.81 725.04 866.14 729.5 857.5C744.47 866.99 759.47 876.49 774.5 886C784.94 891.26 794.94 897.26 804.5 904C844.17 904.33 883.83 904.67 923.5 905C932.04 908.69 940.04 913.35 947.5 919C949.71 920.04 952.05 920.71 954.5 921C955.62 922.07 956.62 923.24 957.5 924.5C967.46 928.27 977.12 932.77 986.5 938C1001.1 946.88 1015.93 955.38 1031 963.5C1036.57 965.74 1042.07 968.08 1047.5 970.5C1048.17 971.5 1048.83 972.5 1049.5 973.5C1078.74 989.1 1108.24 1004.43 1138 1019.5C1145.96 1023.95 1153.79 1028.79 1161.5 1034C1163.36 1034.42 1165.19 1034.92 1167 1035.5C1170.07 1038.95 1173.9 1040.62 1178.5 1040.5C1178.28 1041.68 1178.61 1042.68 1179.5 1043.5C1182.67 1044.21 1185.67 1045.38 1188.5 1047C1195.46 1051.64 1202.62 1055.81 1210 1059.5C1210.33 1058.83 1210.67 1058.17 1211 1057.5C1211.72 1059.06 1212.89 1060.06 1214.5 1060.5Z" fill="#232A2D"/>
<path fill-rule="evenodd" clip-rule="evenodd" d="M791.5 1070.5C791.33 1112.5 791.5 1154.5 792 1196.5C876.03 1275.86 960.03 1355.19 1044 1434.5C1037.01 1451.48 1029.18 1468.14 1020.5 1484.5C1017.4 1481.98 1013.4 1480.32 1008.5 1479.5C1006.24 1474.51 1002.24 1471.68 996.5 1471C981.82 1461.35 966.49 1453.01 950.5 1446C945.4 1440.33 939.07 1436.83 931.5 1435.5C930.61 1434.68 930.28 1433.68 930.5 1432.5C925.3 1431.16 920.63 1428.66 916.5 1425C913.83 1424 911.17 1423 908.5 1422C887.27 1409.22 865.6 1397.22 843.5 1386C836.36 1380.93 828.7 1376.59 820.5 1373C814.77 1369.96 809.43 1366.29 804.5 1362C803.55 1361.52 802.55 1361.35 801.5 1361.5C801.96 1337.16 802.46 1312.82 803 1288.5C794.4 1280.65 785.9 1272.65 777.5 1264.5C776.82 1313.87 776.16 1363.2 775.5 1412.5C765.69 1377.62 756.03 1342.62 746.5 1307.5C746.63 1305.03 745.97 1303.69 744.5 1303.5C744.3 1274.66 743.13 1245.66 741 1216.5C738.18 1195.26 736.34 1173.92 735.5 1152.5C732.04 1130.63 729.2 1108.63 727 1086.5C722.91 1064.33 717.91 1042.33 712 1020.5C708.86 1013.12 705.53 1005.78 702 998.5C700.34 997.18 699.17 995.52 698.5 993.5C696.59 992.63 694.76 991.63 693 990.5C692.5 990.83 692 991.17 691.5 991.5C692.68 995.89 694.01 1000.22 695.5 1004.5C698.32 1021.75 700.49 1039.08 702 1056.5C706 1112.43 709 1168.43 711 1224.5C711.5 1256.16 711.67 1287.83 711.5 1319.5C696.17 1319.5 680.83 1319.5 665.5 1319.5C665.5 1318.17 665.5 1316.83 665.5 1315.5C665.4 1279.83 665.9 1244.16 667 1208.5C669.56 1160.51 671.89 1112.51 674 1064.5C675.57 1045.74 677.9 1027.07 681 1008.5C682.36 1002.71 683.86 997.05 685.5 991.5C681.05 992.77 677.55 995.43 675 999.5C672.51 1006.46 669.51 1013.13 666 1019.5C658.22 1044.64 652.72 1070.31 649.5 1096.5C648.8 1099.9 648.14 1103.4 647.5 1107C647.62 1108.27 647.95 1109.6 648.5 1111C647.96 1111.72 647.29 1112.22 646.5 1112.5C639.37 1109.44 632.37 1106.1 625.5 1102.5C624.048 1100.23 624.715 1098.73 627.5 1098C626.55 1097.52 625.55 1097.35 624.5 1097.5C624.5 1063.17 624.5 1028.83 624.5 994.5C624.5 994.17 624.5 993.83 624.5 993.5C626.48 993 628.48 992.5 630.5 992C637.06 983.44 644.89 976.28 654 970.5C662.36 959.97 671.03 949.63 680 939.5C680.48 938.55 680.65 937.55 680.5 936.5C681.5 936.5 682.5 936.5 683.5 936.5C689.25 925.89 696.08 915.89 704 906.5C704.94 901.48 707.44 897.48 711.5 894.5C713.8 895.43 716.13 896.27 718.5 897C725.78 901.93 733.12 906.76 740.5 911.5C741.33 978.16 741.83 1044.83 742 1111.5C742.67 1112.83 743.33 1112.83 744 1111.5C758.47 1121.82 773.31 1131.49 788.5 1140.5C789.33 1159.16 789.83 1177.82 790 1196.5C790.17 1154.33 790.67 1112.33 791.5 1070.5Z" fill="#232A2D"/>
<path fill-rule="evenodd" clip-rule="evenodd" d="M537.5 891.5C548.899 911.9 561.899 931.23 576.5 949.5C586.675 959.84 596.675 970.34 606.5 981C612.377 985.72 618.377 990.22 624.5 994.5C624.5 1028.83 624.5 1063.17 624.5 1097.5C625.55 1097.35 626.55 1097.52 627.5 1098C624.715 1098.73 624.048 1100.23 625.5 1102.5C617.982 1105.26 610.648 1108.59 603.5 1112.5C601.289 1110.71 600.623 1108.54 601.5 1106C597.224 1085.95 593.724 1065.78 591 1045.5C589.495 1039.96 587.495 1034.62 585 1029.5C583.253 1013.62 576.42 1000.45 564.5 990C563.517 989.41 562.85 989.74 562.5 991C564.628 995.32 566.294 999.82 567.5 1004.5C570.33 1024.46 572.83 1044.46 575 1064.5C576.501 1104.53 578.501 1144.53 581 1184.5C582.683 1229.49 583.516 1274.49 583.5 1319.5C568.167 1319.5 552.833 1319.5 537.5 1319.5C537.69 1239.76 540.19 1160.09 545 1080.5C547.011 1056.42 549.677 1032.42 553 1008.5C554.488 1001.54 556.655 994.87 559.5 988.5C558.448 988.35 557.448 988.52 556.5 989C553.333 992.17 550.167 995.33 547 998.5C545.554 1003.64 543.221 1008.31 540 1012.5C531.96 1037.3 525.96 1062.63 522 1088.5C518.821 1112.47 515.821 1136.47 513 1160.5C509.632 1207.88 506.465 1255.22 503.5 1302.5C502.344 1306.79 501.344 1311.13 500.5 1315.5C491.49 1347.58 482.49 1379.58 473.5 1411.5C472.838 1362.57 472.171 1313.57 471.5 1264.5C463.118 1272.72 454.618 1280.72 446 1288.5C446.295 1312.73 447.128 1336.9 448.5 1361C432.79 1369.16 417.123 1377.66 401.5 1386.5C400.614 1387.32 400.281 1388.32 400.5 1389.5C398.146 1389.84 395.813 1390.34 393.5 1391C389.583 1394.09 385.25 1396.42 380.5 1398C373.586 1403.56 365.919 1407.89 357.5 1411C344.805 1419.74 331.472 1427.08 317.5 1433C310.68 1436.58 304.347 1440.91 298.5 1446C295.673 1447.62 292.673 1448.79 289.5 1449.5C268.97 1460.93 248.637 1472.6 228.5 1484.5C219.852 1468.2 212.018 1451.54 205 1434.5C288.974 1355.19 372.974 1275.86 457 1196.5C457.5 1154.5 457.667 1112.5 457.5 1070.5C458.167 1112.34 458.833 1154.34 459.5 1196.5C459.531 1178.01 459.531 1159.35 459.5 1140.5C472.596 1132.9 485.263 1124.57 497.5 1115.5C500.382 1113.89 503.382 1112.56 506.5 1111.5C507.333 1045.17 507.833 978.84 508 912.5C508.956 911.42 509.789 910.25 510.5 909C519.001 904.04 527.667 899.37 536.5 895C537.337 893.99 537.67 892.82 537.5 891.5Z" fill="#343C43"/>
<path fill-rule="evenodd" clip-rule="evenodd" d="M517.5 851.5C518.537 852.93 519.204 854.6 519.5 856.5C494.261 872.88 468.594 888.71 442.5 904C403.5 904.33 364.5 904.67 325.5 905C321.748 907.4 317.748 909.4 313.5 911C307.215 915.98 300.215 919.64 292.5 922C206.898 968.97 120.898 1015.13 34.5 1060.5C33.637 1058.58 32.971 1056.58 32.5 1054.5C42.904 1049.8 53.237 1044.8 63.5 1039.5C72.483 1033.68 81.816 1028.51 91.5 1024C92.5 1023 93.5 1022 94.5 1021C102.959 1017.6 111.293 1013.94 119.5 1010C121.065 1007.13 123.565 1005.63 127 1005.5C140.076 997.22 153.576 989.88 167.5 983.5C168.287 982.76 168.953 981.92 169.5 981C187.357 972.17 205.024 962.84 222.5 953C231.038 949.6 239.038 945.27 246.5 940C254.404 936.74 262.071 933.08 269.5 929C274.518 924.04 280.518 920.88 287.5 919.5C289.944 917.1 292.61 914.94 295.5 913C305.25 908.63 314.917 903.96 324.5 899C364.167 898.67 403.833 898.33 443.5 898C446.167 895.67 448.833 893.33 451.5 891C459.626 886.29 467.959 881.96 476.5 878C478.746 876.74 480.079 874.91 480.5 872.5C482.604 872.8 484.604 872.47 486.5 871.5C491.047 867.78 495.714 864.28 500.5 861C506.487 858.34 512.153 855.17 517.5 851.5Z" fill="#232B2E"/>
<path fill-rule="evenodd" clip-rule="evenodd" d="M535.5 888.5C536.167 889.5 536.833 890.5 537.5 891.5C537.67 892.82 537.337 893.99 536.5 895C527.667 899.37 519.001 904.04 510.5 909C509.789 910.25 508.956 911.42 508 912.5C507.833 978.84 507.333 1045.17 506.5 1111.5C503.382 1112.56 500.382 1113.89 497.5 1115.5C485.263 1124.57 472.596 1132.9 459.5 1140.5C459.531 1159.35 459.531 1178.01 459.5 1196.5C458.833 1154.34 458.167 1112.34 457.5 1070.5C454.713 1069.52 451.713 1069.19 448.5 1069.5C449.86 1066.38 450.693 1063.05 451 1059.5C451.667 1040.83 451.667 1022.17 451 1003.5C450.308 1002.97 449.808 1002.31 449.5 1001.5C376.481 1000.17 303.481 1000.17 230.5 1001.5C229.833 1001.83 229.167 1002.17 228.5 1002.5C229.23 1005.11 229.73 1007.78 230 1010.5C235.803 1028.39 240.97 1046.39 245.5 1064.5C245.286 1066.14 245.62 1067.64 246.5 1069C244.866 1069.49 243.199 1069.66 241.5 1069.5C238.674 1061.55 235.841 1053.55 233 1045.5C228.851 1029.71 224.684 1013.88 220.5 998C220.291 996.13 219.291 994.96 217.5 994.5C204.477 1001.01 191.811 1008.18 179.5 1016C177.833 1016.33 176.167 1016.67 174.5 1017C164.034 1022.9 153.367 1028.23 142.5 1033C124.916 1042.94 106.916 1051.94 88.5 1060C82.287 1064.26 79.787 1070.09 81 1077.5C86.037 1093.6 91.704 1109.6 98 1125.5C99.713 1127.36 100.88 1129.02 101.5 1130.5C99.351 1131.74 97.018 1132.74 94.5 1133.5C93.668 1132.67 94.001 1131.84 95.5 1131C92.529 1122.98 89.029 1115.15 85 1107.5C83.159 1098.98 80.326 1090.81 76.5 1083C75.464 1077.86 75.297 1072.69 76 1067.5C76.92 1065.37 78.087 1063.37 79.5 1061.5C85.959 1054.94 93.626 1050.44 102.5 1048C116.097 1039.13 130.597 1031.96 146 1026.5C148.398 1025.12 150.564 1023.46 152.5 1021.5C173.75 1010.73 195.083 1000.23 216.5 990C294.5 989.33 372.5 989.33 450.5 990C459.157 993.06 463.323 999.22 463 1008.5C463.667 1027.17 463.667 1045.83 463 1064.5C462.849 1067.12 462.015 1069.45 460.5 1071.5C459.334 1092.49 459.167 1113.49 460 1134.5C461.591 1131.4 464.091 1129.73 467.5 1129.5C467.5 1128.5 467.5 1127.5 467.5 1126.5C472.213 1126.81 475.88 1124.98 478.5 1121C484.502 1118.33 490.169 1115.17 495.5 1111.5C496.386 1110.68 496.719 1109.68 496.5 1108.5C499.388 1108.78 500.888 1107.45 501 1104.5C501.5 1038.83 501.667 973.17 501.5 907.5C512.749 901.31 524.082 894.97 535.5 888.5Z" fill="#232B2E"/>
<path fill-rule="evenodd" clip-rule="evenodd" d="M603.5 1112.5C602.853 1113.27 602.52 1114.27 602.5 1115.5C610.599 1183.25 615.265 1251.25 616.5 1319.5C605.5 1319.5 594.5 1319.5 583.5 1319.5C583.516 1274.49 582.683 1229.49 581 1184.5C578.501 1144.53 576.501 1104.53 575 1064.5C572.83 1044.46 570.33 1024.46 567.5 1004.5C566.294 999.82 564.628 995.32 562.5 991C562.85 989.74 563.517 989.41 564.5 990C576.42 1000.45 583.253 1013.62 585 1029.5C587.495 1034.62 589.495 1039.96 591 1045.5C593.724 1065.78 597.224 1085.95 601.5 1106C600.623 1108.54 601.289 1110.71 603.5 1112.5Z" fill="#232B2E"/>
<path fill-rule="evenodd" clip-rule="evenodd" d="M665.5 1315.5C664.5 1242.67 664.17 1169.67 664.5 1096.5C660.17 1096.5 655.83 1096.5 651.5 1096.5C651.65 1095.45 651.48 1094.45 651 1093.5C650.77 1094.74 650.27 1095.74 649.5 1096.5C652.72 1070.31 658.22 1044.64 666 1019.5C669.51 1013.13 672.51 1006.46 675 999.5C677.55 995.43 681.05 992.77 685.5 991.5C683.86 997.05 682.36 1002.71 681 1008.5C677.9 1027.07 675.57 1045.74 674 1064.5C671.89 1112.51 669.56 1160.51 667 1208.5C665.9 1244.16 665.4 1279.83 665.5 1315.5Z" fill="#373F42"/>
<path fill-rule="evenodd" clip-rule="evenodd" d="M744.5 1303.5C744.5 1308.83 744.5 1314.17 744.5 1319.5C733.83 1319.5 723.17 1319.5 712.5 1319.5C712.17 1319.5 711.83 1319.5 711.5 1319.5C711.67 1287.83 711.5 1256.16 711 1224.5C709 1168.43 706 1112.43 702 1056.5C700.49 1039.08 698.32 1021.75 695.5 1004.5C694.01 1000.22 692.68 995.89 691.5 991.5C692 991.17 692.5 990.83 693 990.5C694.76 991.63 696.59 992.63 698.5 993.5C699.17 995.52 700.34 997.18 702 998.5C705.53 1005.78 708.86 1013.12 712 1020.5C717.91 1042.33 722.91 1064.33 727 1086.5C729.2 1108.63 732.04 1130.63 735.5 1152.5C736.34 1173.92 738.18 1195.26 741 1216.5C743.13 1245.66 744.3 1274.66 744.5 1303.5Z" fill="#191E21"/>
<path fill-rule="evenodd" clip-rule="evenodd" d="M1002.5 1069.5C935.17 1069.5 867.83 1069.5 800.5 1069.5C800.73 1067.28 799.89 1065.62 798 1064.5C797.33 1044.83 797.33 1025.17 798 1005.5C798.47 1004.07 799.3 1002.9 800.5 1002C873.83 1001.5 947.17 1001.33 1020.5 1001.5C1014.5 1024.14 1008.5 1046.81 1002.5 1069.5Z" fill="#232A2D"/>
<path fill-rule="evenodd" clip-rule="evenodd" d="M236.5 1071.5C193.409 1090.87 150.076 1109.87 106.5 1128.5C101.521 1117.77 97.354 1105.77 94 1092.5C92.152 1087.45 90.152 1082.45 88 1077.5C87.542 1074.44 87.876 1071.44 89 1068.5C94.514 1064.43 100.347 1060.93 106.5 1058C129.647 1047.92 152.314 1037.09 174.5 1025.5C175.687 1024.48 176.687 1023.31 177.5 1022C186.667 1018.54 195.334 1014.21 203.5 1009C207.745 1007.22 212.079 1005.72 216.5 1004.5C218.715 1009.86 219.882 1015.53 220 1021.5C223.082 1031.57 226.416 1041.57 230 1051.5C231.274 1056.49 232.441 1061.49 233.5 1066.5C233.291 1067.09 232.957 1067.59 232.5 1068C234.087 1068.86 235.754 1069.53 237.5 1070C236.833 1070.33 236.167 1070.67 235.5 1071C235.728 1071.4 236.062 1071.57 236.5 1071.5Z" fill="#232A2D"/>
<path fill-rule="evenodd" clip-rule="evenodd" d="M457.5 1070.5C453.5 1070.5 449.5 1070.5 445.5 1070.5C444.081 1069.55 442.415 1069.22 440.5 1069.5C440.286 1067.86 440.62 1066.36 441.5 1065C376.168 1064.5 310.834 1064.33 245.5 1064.5C240.97 1046.39 235.803 1028.39 230 1010.5C229.73 1007.78 229.23 1005.11 228.5 1002.5C229.167 1002.17 229.833 1001.83 230.5 1001.5C303.481 1000.17 376.481 1000.17 449.5 1001.5C449.808 1002.31 450.308 1002.97 451 1003.5C451.667 1022.17 451.667 1040.83 451 1059.5C450.693 1063.05 449.86 1066.38 448.5 1069.5C451.713 1069.19 454.713 1069.52 457.5 1070.5Z" fill="#343C43"/>
<path fill-rule="evenodd" clip-rule="evenodd" d="M537.5 1319.5C526.5 1319.5 515.5 1319.5 504.5 1319.5C504.822 1313.64 504.489 1307.98 503.5 1302.5C506.465 1255.22 509.632 1207.88 513 1160.5C515.821 1136.47 518.821 1112.47 522 1088.5C525.96 1062.63 531.96 1037.3 540 1012.5C543.221 1008.31 545.554 1003.64 547 998.5C550.167 995.33 553.333 992.17 556.5 989C557.448 988.52 558.448 988.35 559.5 988.5C556.655 994.87 554.488 1001.54 553 1008.5C549.677 1032.42 547.011 1056.42 545 1080.5C540.19 1160.09 537.69 1239.76 537.5 1319.5Z" fill="#4E5B63"/>
<path fill-rule="evenodd" clip-rule="evenodd" d="M1142.5 1128.5C1098.65 1109.74 1054.98 1090.74 1011.5 1071.5C1012.38 1071.63 1013.04 1071.3 1013.5 1070.5C1012.62 1069.75 1011.62 1069.25 1010.5 1069C1012.65 1068.74 1014.32 1067.74 1015.5 1066C1021.01 1048.46 1025.85 1030.63 1030 1012.5C1031.45 1009.99 1032.62 1007.32 1033.5 1004.5C1035.12 1005.15 1036.78 1005.65 1038.5 1006C1052.66 1013.31 1066.99 1020.48 1081.5 1027.5C1096.32 1036.24 1111.65 1043.91 1127.5 1050.5C1138.14 1056.78 1148.98 1062.78 1160 1068.5C1161.87 1073.15 1161.87 1077.82 1160 1082.5C1155.64 1090.59 1152.64 1099.25 1151 1108.5C1148.89 1113.24 1146.39 1117.74 1143.5 1122C1144.87 1124.16 1144.53 1126.33 1142.5 1128.5Z" fill="#383F46"/>
<path fill-rule="evenodd" clip-rule="evenodd" d="M1149.5 1131.5C1146.84 1131.07 1144.51 1130.07 1142.5 1128.5C1144.53 1126.33 1144.87 1124.16 1143.5 1122C1146.39 1117.74 1148.89 1113.24 1151 1108.5C1152.64 1099.25 1155.64 1090.59 1160 1082.5C1161.87 1077.82 1161.87 1073.15 1160 1068.5C1148.98 1062.78 1138.14 1056.78 1127.5 1050.5C1111.65 1043.91 1096.32 1036.24 1081.5 1027.5C1066.99 1020.48 1052.66 1013.31 1038.5 1006C1036.78 1005.65 1035.12 1005.15 1033.5 1004.5C1032.62 1007.32 1031.45 1009.99 1030 1012.5C1025.85 1030.63 1021.01 1048.46 1015.5 1066C1014.32 1067.74 1012.65 1068.74 1010.5 1069C1011.62 1069.25 1012.62 1069.75 1013.5 1070.5C1013.04 1071.3 1012.38 1071.63 1011.5 1071.5C938.21 1070.51 864.87 1070.17 791.5 1070.5C794.29 1069.52 797.29 1069.19 800.5 1069.5C867.83 1069.5 935.17 1069.5 1002.5 1069.5C1004.6 1069.8 1006.6 1069.47 1008.5 1068.5C1015.61 1044.74 1022.44 1020.74 1029 996.5C1030.05 995.48 1031.22 995.32 1032.5 996C1040 999.92 1047.67 1003.58 1055.5 1007C1061.95 1011.46 1068.61 1015.46 1075.5 1019C1095.24 1028.08 1114.57 1037.75 1133.5 1048C1138.69 1049.52 1143.69 1051.52 1148.5 1054C1154.37 1058.1 1160.37 1061.93 1166.5 1065.5C1168.31 1069.34 1168.81 1073.34 1168 1077.5C1164.42 1085.46 1161.58 1093.79 1159.5 1102.5C1158.53 1104.3 1157.36 1105.97 1156 1107.5C1153.37 1115.65 1151.2 1123.65 1149.5 1131.5Z" fill="#292F32"/>
<path fill-rule="evenodd" clip-rule="evenodd" d="M241.5 1069.5C240.833 1069.5 240.5 1069.83 240.5 1070.5C239.167 1070.83 237.833 1071.17 236.5 1071.5C236.062 1071.57 235.728 1071.4 235.5 1071C236.167 1070.67 236.833 1070.33 237.5 1070C235.754 1069.53 234.087 1068.86 232.5 1068C232.957 1067.59 233.291 1067.09 233.5 1066.5C232.441 1061.49 231.274 1056.49 230 1051.5C226.416 1041.57 223.082 1031.57 220 1021.5C219.882 1015.53 218.715 1009.86 216.5 1004.5C212.079 1005.72 207.745 1007.22 203.5 1009C195.334 1014.21 186.667 1018.54 177.5 1022C176.687 1023.31 175.687 1024.48 174.5 1025.5C152.314 1037.09 129.647 1047.92 106.5 1058C100.347 1060.93 94.514 1064.43 89 1068.5C87.876 1071.44 87.542 1074.44 88 1077.5C90.152 1082.45 92.152 1087.45 94 1092.5C97.354 1105.77 101.521 1117.77 106.5 1128.5C104.833 1129.17 103.167 1129.83 101.5 1130.5C100.88 1129.02 99.713 1127.36 98 1125.5C91.704 1109.6 86.037 1093.6 81 1077.5C79.787 1070.09 82.287 1064.26 88.5 1060C106.916 1051.94 124.916 1042.94 142.5 1033C153.367 1028.23 164.034 1022.9 174.5 1017C176.167 1016.67 177.833 1016.33 179.5 1016C191.811 1008.18 204.477 1001.01 217.5 994.5C219.291 994.96 220.291 996.13 220.5 998C224.684 1013.88 228.851 1029.71 233 1045.5C235.841 1053.55 238.674 1061.55 241.5 1069.5Z" fill="#191E21"/>
<path fill-rule="evenodd" clip-rule="evenodd" d="M245.5 1064.5C310.834 1064.33 376.168 1064.5 441.5 1065C440.62 1066.36 440.286 1067.86 440.5 1069.5C442.415 1069.22 444.081 1069.55 445.5 1070.5C377.167 1070.5 308.833 1070.5 240.5 1070.5C240.5 1069.83 240.833 1069.5 241.5 1069.5C243.199 1069.66 244.866 1069.49 246.5 1069C245.62 1067.64 245.286 1066.14 245.5 1064.5Z" fill="#354043"/>
<path fill-rule="evenodd" clip-rule="evenodd" d="M665.5 1315.5C665.5 1316.83 665.5 1318.17 665.5 1319.5C654.5 1319.5 643.5 1319.5 632.5 1319.5C633.89 1250.27 638.56 1181.27 646.5 1112.5C647.29 1112.22 647.96 1111.72 648.5 1111C647.95 1109.6 647.62 1108.27 647.5 1107C648.14 1103.4 648.8 1099.9 649.5 1096.5C650.27 1095.74 650.77 1094.74 651 1093.5C651.48 1094.45 651.65 1095.45 651.5 1096.5C655.83 1096.5 660.17 1096.5 664.5 1096.5C664.17 1169.67 664.5 1242.67 665.5 1315.5Z" fill="#373F46"/>
<path fill-rule="evenodd" clip-rule="evenodd" d="M473.5 1411.5C473.167 1413.5 472.833 1415.5 472.5 1417.5C471.501 1478 471.168 1538.66 471.5 1599.5C467.167 1599.5 462.833 1599.5 458.5 1599.5C458.768 1597.9 458.434 1596.57 457.5 1595.5C455.759 1551.84 454.093 1508.17 452.5 1464.5C450.98 1434.85 449.646 1405.18 448.5 1375.5C448.5 1373.17 448.5 1370.83 448.5 1368.5C447.448 1368.35 446.448 1368.52 445.5 1369C412.669 1388.54 379.336 1407.21 345.5 1425C307.774 1447.53 269.44 1469.03 230.5 1489.5C229.559 1487.95 228.893 1486.28 228.5 1484.5C248.637 1472.6 268.97 1460.93 289.5 1449.5C292.673 1448.79 295.673 1447.62 298.5 1446C304.347 1440.91 310.68 1436.58 317.5 1433C331.472 1427.08 344.805 1419.74 357.5 1411C365.919 1407.89 373.586 1403.56 380.5 1398C385.25 1396.42 389.583 1394.09 393.5 1391C395.813 1390.34 398.146 1389.84 400.5 1389.5C400.281 1388.32 400.614 1387.32 401.5 1386.5C417.123 1377.66 432.79 1369.16 448.5 1361C447.128 1336.9 446.295 1312.73 446 1288.5C454.618 1280.72 463.118 1272.72 471.5 1264.5C472.171 1313.57 472.838 1362.57 473.5 1411.5Z" fill="#232A2E"/>
<path fill-rule="evenodd" clip-rule="evenodd" d="M1020.5 1484.5C1020.11 1486.28 1019.44 1487.95 1018.5 1489.5C1013.69 1488.74 1009.36 1486.24 1005.5 1482C1000.95 1479.7 996.29 1477.7 991.5 1476C928.17 1439.49 864.5 1403.65 800.5 1368.5C800.5 1371.17 800.5 1373.83 800.5 1376.5C800 1405.88 798.67 1435.21 796.5 1464.5C794.76 1508.16 793.09 1551.83 791.5 1595.5C790.83 1595.5 790.5 1595.83 790.5 1596.5C786.74 1598.18 782.74 1598.85 778.5 1598.5C778.83 1539 778.5 1479.66 777.5 1420.5C777.67 1419.51 777.34 1418.84 776.5 1418.5C776.48 1416.44 776.15 1414.44 775.5 1412.5C776.16 1363.2 776.82 1313.87 777.5 1264.5C785.9 1272.65 794.4 1280.65 803 1288.5C802.46 1312.82 801.96 1337.16 801.5 1361.5C802.55 1361.35 803.55 1361.52 804.5 1362C809.43 1366.29 814.77 1369.96 820.5 1373C828.7 1376.59 836.36 1380.93 843.5 1386C865.6 1397.22 887.27 1409.22 908.5 1422C911.17 1423 913.83 1424 916.5 1425C920.63 1428.66 925.3 1431.16 930.5 1432.5C930.28 1433.68 930.61 1434.68 931.5 1435.5C939.07 1436.83 945.4 1440.33 950.5 1446C966.49 1453.01 981.82 1461.35 996.5 1471C1002.24 1471.68 1006.24 1474.51 1008.5 1479.5C1013.4 1480.32 1017.4 1481.98 1020.5 1484.5Z" fill="#191E21"/>
<path fill-rule="evenodd" clip-rule="evenodd" d="M504.5 1320.5C504.5 1320.17 504.5 1319.83 504.5 1319.5C515.5 1319.5 526.5 1319.5 537.5 1319.5C537.5 1342.17 537.5 1364.83 537.5 1387.5C552.833 1387.5 568.167 1387.5 583.5 1387.5C583.5 1387.83 583.5 1388.17 583.5 1388.5C568.167 1388.5 552.833 1388.5 537.5 1388.5C537.167 1388.5 536.833 1388.5 536.5 1388.5C536.5 1365.83 536.5 1343.17 536.5 1320.5C525.833 1320.5 515.167 1320.5 504.5 1320.5Z" fill="#99A6AE"/>
<path fill-rule="evenodd" clip-rule="evenodd" d="M537.5 1319.5C552.833 1319.5 568.167 1319.5 583.5 1319.5C583.5 1342.17 583.5 1364.83 583.5 1387.5C568.167 1387.5 552.833 1387.5 537.5 1387.5C537.5 1364.83 537.5 1342.17 537.5 1319.5Z" fill="#738088"/>
<path fill-rule="evenodd" clip-rule="evenodd" d="M583.5 1319.5C594.5 1319.5 605.5 1319.5 616.5 1319.5C616.5 1342.5 616.5 1365.5 616.5 1388.5C605.5 1388.5 594.5 1388.5 583.5 1388.5C583.5 1388.17 583.5 1387.83 583.5 1387.5C583.5 1364.83 583.5 1342.17 583.5 1319.5Z" fill="#515B65"/>
<path fill-rule="evenodd" clip-rule="evenodd" d="M665.5 1319.5C680.83 1319.5 696.17 1319.5 711.5 1319.5C711.83 1319.5 712.17 1319.5 712.5 1319.5C711.51 1342.09 711.18 1364.76 711.5 1387.5C722.5 1387.5 733.5 1387.5 744.5 1387.5C744.5 1387.83 744.5 1388.17 744.5 1388.5C733.5 1388.5 722.5 1388.5 711.5 1388.5C696.17 1388.5 680.83 1388.5 665.5 1388.5C665.5 1365.5 665.5 1342.5 665.5 1319.5Z" fill="#505B65"/>
<path fill-rule="evenodd" clip-rule="evenodd" d="M712.5 1319.5C723.17 1319.5 733.83 1319.5 744.5 1319.5C744.5 1342.17 744.5 1364.83 744.5 1387.5C733.5 1387.5 722.5 1387.5 711.5 1387.5C711.18 1364.76 711.51 1342.09 712.5 1319.5Z" fill="#383F47"/>
<path fill-rule="evenodd" clip-rule="evenodd" d="M504.5 1320.5C515.167 1320.5 525.833 1320.5 536.5 1320.5C536.5 1343.17 536.5 1365.83 536.5 1388.5C525.833 1388.5 515.167 1388.5 504.5 1388.5C504.5 1365.83 504.5 1343.17 504.5 1320.5Z" fill="#AEC0C4"/>
<path fill-rule="evenodd" clip-rule="evenodd" d="M632.5 1319.5C643.5 1319.5 654.5 1319.5 665.5 1319.5C665.5 1342.5 665.5 1365.5 665.5 1388.5C654.5 1388.5 643.5 1388.5 632.5 1388.5C632.5 1365.5 632.5 1342.5 632.5 1319.5Z" fill="#96ADB1"/>
<path fill-rule="evenodd" clip-rule="evenodd" d="M746.5 1307.5C745.5 1338 745.17 1368.66 745.5 1399.5C737.83 1399.5 730.17 1399.5 722.5 1399.5C722.5 1399.17 722.5 1398.83 722.5 1398.5C729.83 1398.5 737.17 1398.5 744.5 1398.5C744.5 1395.17 744.5 1391.83 744.5 1388.5C744.5 1388.17 744.5 1387.83 744.5 1387.5C744.5 1364.83 744.5 1342.17 744.5 1319.5C744.5 1314.17 744.5 1308.83 744.5 1303.5C745.97 1303.69 746.63 1305.03 746.5 1307.5Z" fill="#AFB3B4"/>
<path fill-rule="evenodd" clip-rule="evenodd" d="M800.5 1376.5C802.29 1376.21 803.95 1376.55 805.5 1377.5C845.54 1399.71 885.21 1422.21 924.5 1445C928.26 1446.25 931.92 1447.75 935.5 1449.5C940.12 1452.76 944.78 1455.92 949.5 1459C963.5 1466.34 977.5 1473.67 991.5 1481C992.17 1482 992.83 1483 993.5 1484C999.92 1486.87 1006.25 1490.04 1012.5 1493.5C1013.09 1493.29 1013.59 1492.96 1014 1492.5C1014.28 1493.42 1014.78 1494.08 1015.5 1494.5C1010.68 1504.81 1005.84 1515.14 1001 1525.5C1000.44 1526.02 999.77 1526.36 999 1526.5C931.56 1505.6 864.06 1484.93 796.5 1464.5C798.67 1435.21 800 1405.88 800.5 1376.5Z" fill="#383F46"/>
<path fill-rule="evenodd" clip-rule="evenodd" d="M448.5 1375.5C449.646 1405.18 450.98 1434.85 452.5 1464.5C384.657 1484.41 316.99 1505.07 249.5 1526.5C243.597 1515.7 237.93 1504.7 232.5 1493.5C234.839 1493.59 237.172 1493.09 239.5 1492C256.614 1482.27 273.614 1472.27 290.5 1462C332.349 1439.79 373.682 1416.79 414.5 1393C421.365 1389.4 428.365 1386.07 435.5 1383C439.279 1379.45 443.612 1376.95 448.5 1375.5Z" fill="#4F5B63"/>
<path fill-rule="evenodd" clip-rule="evenodd" d="M537.5 1388.5C552.833 1388.5 568.167 1388.5 583.5 1388.5C583.5 1391.83 583.5 1395.17 583.5 1398.5C568.167 1398.5 552.833 1398.5 537.5 1398.5C537.5 1395.17 537.5 1391.83 537.5 1388.5Z" fill="#AEC0C4"/>
<path fill-rule="evenodd" clip-rule="evenodd" d="M665.5 1388.5C680.83 1388.5 696.17 1388.5 711.5 1388.5C711.25 1391.94 711.59 1395.27 712.5 1398.5C696.83 1398.5 681.17 1398.5 665.5 1398.5C665.5 1395.17 665.5 1391.83 665.5 1388.5Z" fill="#95AEB0"/>
<path fill-rule="evenodd" clip-rule="evenodd" d="M632.5 1388.5C643.5 1388.5 654.5 1388.5 665.5 1388.5C665.5 1391.83 665.5 1395.17 665.5 1398.5C661.96 1398.19 658.62 1398.52 655.5 1399.5C655.5 1402.83 655.5 1406.17 655.5 1409.5C655.5 1422.83 655.5 1436.17 655.5 1449.5C654.5 1433.01 654.17 1416.34 654.5 1399.5C647.17 1399.5 639.83 1399.5 632.5 1399.5C632.5 1395.83 632.5 1392.17 632.5 1388.5Z" fill="#CAD4D6"/>
<path fill-rule="evenodd" clip-rule="evenodd" d="M503.5 1302.5C504.489 1307.98 504.822 1313.64 504.5 1319.5C504.5 1319.83 504.5 1320.17 504.5 1320.5C504.5 1343.17 504.5 1365.83 504.5 1388.5C515.167 1388.5 525.833 1388.5 536.5 1388.5C536.833 1388.5 537.167 1388.5 537.5 1388.5C537.5 1391.83 537.5 1395.17 537.5 1398.5C533.958 1398.19 530.625 1398.52 527.5 1399.5C527.5 1402.83 527.5 1406.17 527.5 1409.5C527.5 1422.83 527.5 1436.17 527.5 1449.5C526.503 1433.01 526.17 1416.34 526.5 1399.5C518.913 1399.81 511.413 1399.48 504 1398.5C503.667 1371.83 503.333 1345.17 503 1318.5C502.667 1319.17 502.333 1319.83 502 1320.5C501.802 1318.62 501.302 1316.95 500.5 1315.5C501.344 1311.13 502.344 1306.79 503.5 1302.5Z" fill="#D3DADD"/>
<path fill-rule="evenodd" clip-rule="evenodd" d="M583.5 1388.5C594.5 1388.5 605.5 1388.5 616.5 1388.5C616.5 1392.17 616.5 1395.83 616.5 1399.5C609.167 1399.5 601.833 1399.5 594.5 1399.5C594.83 1416.34 594.497 1433.01 593.5 1449.5C593.5 1432.83 593.5 1416.17 593.5 1399.5C586.833 1399.5 580.167 1399.5 573.5 1399.5C564.5 1399.5 555.5 1399.5 546.5 1399.5C540.167 1399.5 533.833 1399.5 527.5 1399.5C530.625 1398.52 533.958 1398.19 537.5 1398.5C552.833 1398.5 568.167 1398.5 583.5 1398.5C583.5 1395.17 583.5 1391.83 583.5 1388.5Z" fill="#97A8AC"/>
<path fill-rule="evenodd" clip-rule="evenodd" d="M711.5 1388.5C722.5 1388.5 733.5 1388.5 744.5 1388.5C744.5 1391.83 744.5 1395.17 744.5 1398.5C737.17 1398.5 729.83 1398.5 722.5 1398.5C719.17 1398.5 715.83 1398.5 712.5 1398.5C711.59 1395.27 711.25 1391.94 711.5 1388.5Z" fill="#78969B"/>
<path fill-rule="evenodd" clip-rule="evenodd" d="M527.5 1399.5C533.833 1399.5 540.167 1399.5 546.5 1399.5C547.414 1402.73 547.747 1406.06 547.5 1409.5C540.833 1409.5 534.167 1409.5 527.5 1409.5C527.5 1406.17 527.5 1402.83 527.5 1399.5Z" fill="#344044"/>
<path fill-rule="evenodd" clip-rule="evenodd" d="M546.5 1399.5C555.5 1399.5 564.5 1399.5 573.5 1399.5C573.5 1402.83 573.5 1406.17 573.5 1409.5C564.833 1409.5 556.167 1409.5 547.5 1409.5C547.747 1406.06 547.414 1402.73 546.5 1399.5Z" fill="#222A2D"/>
<path fill-rule="evenodd" clip-rule="evenodd" d="M674.5 1399.5C690.17 1399.5 705.83 1399.5 721.5 1399.5C721.5 1416.17 721.5 1432.83 721.5 1449.5C714.83 1449.5 708.17 1449.5 701.5 1449.5C701.5 1449.17 701.5 1448.83 701.5 1448.5C707.83 1448.5 714.17 1448.5 720.5 1448.5C720.5 1435.5 720.5 1422.5 720.5 1409.5C714.5 1409.5 708.5 1409.5 702.5 1409.5C702.5 1406.5 702.5 1403.5 702.5 1400.5C692.99 1400.83 683.65 1400.49 674.5 1399.5Z" fill="#0E1316"/>
<path fill-rule="evenodd" clip-rule="evenodd" d="M1018.5 1489.5C1017.74 1491.37 1016.74 1493.04 1015.5 1494.5C1014.78 1494.08 1014.28 1493.42 1014 1492.5C1013.59 1492.96 1013.09 1493.29 1012.5 1493.5C1006.25 1490.04 999.92 1486.87 993.5 1484C992.83 1483 992.17 1482 991.5 1481C977.5 1473.67 963.5 1466.34 949.5 1459C944.78 1455.92 940.12 1452.76 935.5 1449.5C931.92 1447.75 928.26 1446.25 924.5 1445C885.21 1422.21 845.54 1399.71 805.5 1377.5C803.95 1376.55 802.29 1376.21 800.5 1376.5C800.5 1373.83 800.5 1371.17 800.5 1368.5C864.5 1403.65 928.17 1439.49 991.5 1476C996.29 1477.7 1000.95 1479.7 1005.5 1482C1009.36 1486.24 1013.69 1488.74 1018.5 1489.5Z" fill="#262C30"/>
<path fill-rule="evenodd" clip-rule="evenodd" d="M573.5 1399.5C580.167 1399.5 586.833 1399.5 593.5 1399.5C593.5 1416.17 593.5 1432.83 593.5 1449.5C587.167 1449.5 580.833 1449.5 574.5 1449.5C580.31 1448.51 586.31 1448.18 592.5 1448.5C592.5 1435.5 592.5 1422.5 592.5 1409.5C586.167 1409.5 579.833 1409.5 573.5 1409.5C573.5 1406.17 573.5 1402.83 573.5 1399.5Z" fill="#171D1F"/>
<path fill-rule="evenodd" clip-rule="evenodd" d="M547.5 1409.5C556.167 1409.5 564.833 1409.5 573.5 1409.5C573.5 1422.5 573.5 1435.5 573.5 1448.5C564.983 1448.17 556.65 1448.51 548.5 1449.5C547.833 1449.5 547.167 1449.5 546.5 1449.5C547.481 1436.25 547.814 1422.91 547.5 1409.5Z" fill="#343C42"/>
<path fill-rule="evenodd" clip-rule="evenodd" d="M573.5 1409.5C579.833 1409.5 586.167 1409.5 592.5 1409.5C592.5 1422.5 592.5 1435.5 592.5 1448.5C586.31 1448.18 580.31 1448.51 574.5 1449.5C565.833 1449.5 557.167 1449.5 548.5 1449.5C556.65 1448.51 564.983 1448.17 573.5 1448.5C573.5 1435.5 573.5 1422.5 573.5 1409.5Z" fill="#232B2E"/>
<path fill-rule="evenodd" clip-rule="evenodd" d="M655.5 1399.5C661.83 1399.5 668.17 1399.5 674.5 1399.5C683.65 1400.49 692.99 1400.83 702.5 1400.5C702.5 1403.5 702.5 1406.5 702.5 1409.5C708.5 1409.5 714.5 1409.5 720.5 1409.5C720.5 1422.5 720.5 1435.5 720.5 1448.5C714.17 1448.5 707.83 1448.5 701.5 1448.5C701.5 1435.5 701.5 1422.5 701.5 1409.5C692.78 1409.22 684.11 1409.56 675.5 1410.5C669.02 1409.51 662.35 1409.18 655.5 1409.5C655.5 1406.17 655.5 1402.83 655.5 1399.5Z" fill="#191F22"/>
<path fill-rule="evenodd" clip-rule="evenodd" d="M655.5 1409.5C662.35 1409.18 669.02 1409.51 675.5 1410.5C675.81 1423.58 675.48 1436.58 674.5 1449.5C668.17 1449.5 661.83 1449.5 655.5 1449.5C655.5 1436.17 655.5 1422.83 655.5 1409.5Z" fill="#373F42"/>
<path fill-rule="evenodd" clip-rule="evenodd" d="M701.5 1448.5C701.5 1448.83 701.5 1449.17 701.5 1449.5C692.5 1449.5 683.5 1449.5 674.5 1449.5C675.48 1436.58 675.81 1423.58 675.5 1410.5C684.11 1409.56 692.78 1409.22 701.5 1409.5C701.5 1422.5 701.5 1435.5 701.5 1448.5Z" fill="#232A2D"/>
<path fill-rule="evenodd" clip-rule="evenodd" d="M527.5 1409.5C534.167 1409.5 540.833 1409.5 547.5 1409.5C547.814 1422.91 547.481 1436.25 546.5 1449.5C540.167 1449.5 533.833 1449.5 527.5 1449.5C527.5 1436.17 527.5 1422.83 527.5 1409.5Z" fill="#4E5B63"/>
<path fill-rule="evenodd" clip-rule="evenodd" d="M655.5 1399.5C658.62 1398.52 661.96 1398.19 665.5 1398.5C681.17 1398.5 696.83 1398.5 712.5 1398.5C715.83 1398.5 719.17 1398.5 722.5 1398.5C722.5 1398.83 722.5 1399.17 722.5 1399.5C722.83 1416.34 722.5 1433.01 721.5 1449.5C721.5 1432.83 721.5 1416.17 721.5 1399.5C705.83 1399.5 690.17 1399.5 674.5 1399.5C668.17 1399.5 661.83 1399.5 655.5 1399.5Z" fill="#60686A"/>
<path fill-rule="evenodd" clip-rule="evenodd" d="M472.5 1417.5C472.5 1478.5 472.5 1539.5 472.5 1600.5C467.5 1600.5 462.5 1600.5 457.5 1600.5C457.5 1598.83 457.5 1597.17 457.5 1595.5C458.434 1596.57 458.768 1597.9 458.5 1599.5C462.833 1599.5 467.167 1599.5 471.5 1599.5C471.168 1538.66 471.501 1478 472.5 1417.5Z" fill="#6E7377"/>
<path fill-rule="evenodd" clip-rule="evenodd" d="M776.5 1418.5C777.34 1418.84 777.67 1419.51 777.5 1420.5C777.5 1480.17 777.5 1539.83 777.5 1599.5C781.83 1599.5 786.17 1599.5 790.5 1599.5C790.5 1598.5 790.5 1597.5 790.5 1596.5C790.5 1595.83 790.83 1595.5 791.5 1595.5C791.5 1597.17 791.5 1598.83 791.5 1600.5C786.5 1600.5 781.5 1600.5 776.5 1600.5C776.5 1539.83 776.5 1479.17 776.5 1418.5Z" fill="#666A6D"/>
<path fill-rule="evenodd" clip-rule="evenodd" d="M777.5 1420.5C778.5 1479.66 778.83 1539 778.5 1598.5C782.74 1598.85 786.74 1598.18 790.5 1596.5C790.5 1597.5 790.5 1598.5 790.5 1599.5C786.17 1599.5 781.83 1599.5 777.5 1599.5C777.5 1539.83 777.5 1480.17 777.5 1420.5Z" fill="#090E11"/>
<path fill-rule="evenodd" clip-rule="evenodd" d="M448.5 1375.5C443.612 1376.95 439.279 1379.45 435.5 1383C428.365 1386.07 421.365 1389.4 414.5 1393C373.682 1416.79 332.349 1439.79 290.5 1462C273.614 1472.27 256.614 1482.27 239.5 1492C237.172 1493.09 234.839 1493.59 232.5 1493.5C231.833 1492.17 231.167 1490.83 230.5 1489.5C269.44 1469.03 307.774 1447.53 345.5 1425C379.336 1407.21 412.669 1388.54 445.5 1369C446.448 1368.52 447.448 1368.35 448.5 1368.5C448.5 1370.83 448.5 1373.17 448.5 1375.5Z" fill="#364044"/>
</svg>
